%TF.GenerationSoftware,KiCad,Pcbnew,9.0.5*%
%TF.CreationDate,2026-03-23T11:06:28+01:00*%
%TF.ProjectId,UMB,554d422e-6b69-4636-9164-5f7063625858,rev?*%
%TF.SameCoordinates,PX3197500PY8b3c880*%
%TF.FileFunction,Legend,Bot*%
%TF.FilePolarity,Positive*%
%FSLAX46Y46*%
G04 Gerber Fmt 4.6, Leading zero omitted, Abs format (unit mm)*
G04 Created by KiCad (PCBNEW 9.0.5) date 2026-03-23 11:06:28*
%MOMM*%
%LPD*%
G01*
G04 APERTURE LIST*
%ADD10C,0.100000*%
%ADD11C,0.000000*%
%ADD12C,0.300000*%
G04 APERTURE END LIST*
D10*
X90499800Y35158920D02*
X90118847Y35158920D01*
X90575990Y34930348D02*
X90309323Y35730348D01*
X90309323Y35730348D02*
X90042657Y34930348D01*
X89433133Y35463682D02*
X89433133Y34930348D01*
X89775990Y35463682D02*
X89775990Y35044634D01*
X89775990Y35044634D02*
X89737895Y34968443D01*
X89737895Y34968443D02*
X89661705Y34930348D01*
X89661705Y34930348D02*
X89547419Y34930348D01*
X89547419Y34930348D02*
X89471228Y34968443D01*
X89471228Y34968443D02*
X89433133Y35006539D01*
X89166466Y35463682D02*
X88861704Y35463682D01*
X89052180Y35730348D02*
X89052180Y35044634D01*
X89052180Y35044634D02*
X89014085Y34968443D01*
X89014085Y34968443D02*
X88937895Y34930348D01*
X88937895Y34930348D02*
X88861704Y34930348D01*
X88595037Y34930348D02*
X88595037Y35730348D01*
X88252180Y34930348D02*
X88252180Y35349396D01*
X88252180Y35349396D02*
X88290275Y35425586D01*
X88290275Y35425586D02*
X88366466Y35463682D01*
X88366466Y35463682D02*
X88480752Y35463682D01*
X88480752Y35463682D02*
X88556942Y35425586D01*
X88556942Y35425586D02*
X88595037Y35387491D01*
X87756942Y34930348D02*
X87833132Y34968443D01*
X87833132Y34968443D02*
X87871227Y35006539D01*
X87871227Y35006539D02*
X87909323Y35082729D01*
X87909323Y35082729D02*
X87909323Y35311301D01*
X87909323Y35311301D02*
X87871227Y35387491D01*
X87871227Y35387491D02*
X87833132Y35425586D01*
X87833132Y35425586D02*
X87756942Y35463682D01*
X87756942Y35463682D02*
X87642656Y35463682D01*
X87642656Y35463682D02*
X87566465Y35425586D01*
X87566465Y35425586D02*
X87528370Y35387491D01*
X87528370Y35387491D02*
X87490275Y35311301D01*
X87490275Y35311301D02*
X87490275Y35082729D01*
X87490275Y35082729D02*
X87528370Y35006539D01*
X87528370Y35006539D02*
X87566465Y34968443D01*
X87566465Y34968443D02*
X87642656Y34930348D01*
X87642656Y34930348D02*
X87756942Y34930348D01*
X87147417Y34930348D02*
X87147417Y35463682D01*
X87147417Y35311301D02*
X87109322Y35387491D01*
X87109322Y35387491D02*
X87071227Y35425586D01*
X87071227Y35425586D02*
X86995036Y35463682D01*
X86995036Y35463682D02*
X86918846Y35463682D01*
X86652179Y35006539D02*
X86614084Y34968443D01*
X86614084Y34968443D02*
X86652179Y34930348D01*
X86652179Y34930348D02*
X86690275Y34968443D01*
X86690275Y34968443D02*
X86652179Y35006539D01*
X86652179Y35006539D02*
X86652179Y34930348D01*
X86652179Y35425586D02*
X86614084Y35387491D01*
X86614084Y35387491D02*
X86652179Y35349396D01*
X86652179Y35349396D02*
X86690275Y35387491D01*
X86690275Y35387491D02*
X86652179Y35425586D01*
X86652179Y35425586D02*
X86652179Y35349396D01*
X85661703Y34930348D02*
X85661703Y35730348D01*
X85204560Y34930348D02*
X85547418Y35387491D01*
X85204560Y35730348D02*
X85661703Y35273205D01*
X84518846Y34930348D02*
X84518846Y35349396D01*
X84518846Y35349396D02*
X84556941Y35425586D01*
X84556941Y35425586D02*
X84633132Y35463682D01*
X84633132Y35463682D02*
X84785513Y35463682D01*
X84785513Y35463682D02*
X84861703Y35425586D01*
X84518846Y34968443D02*
X84595037Y34930348D01*
X84595037Y34930348D02*
X84785513Y34930348D01*
X84785513Y34930348D02*
X84861703Y34968443D01*
X84861703Y34968443D02*
X84899799Y35044634D01*
X84899799Y35044634D02*
X84899799Y35120824D01*
X84899799Y35120824D02*
X84861703Y35197015D01*
X84861703Y35197015D02*
X84785513Y35235110D01*
X84785513Y35235110D02*
X84595037Y35235110D01*
X84595037Y35235110D02*
X84518846Y35273205D01*
X83795036Y34968443D02*
X83871227Y34930348D01*
X83871227Y34930348D02*
X84023608Y34930348D01*
X84023608Y34930348D02*
X84099798Y34968443D01*
X84099798Y34968443D02*
X84137893Y35006539D01*
X84137893Y35006539D02*
X84175989Y35082729D01*
X84175989Y35082729D02*
X84175989Y35311301D01*
X84175989Y35311301D02*
X84137893Y35387491D01*
X84137893Y35387491D02*
X84099798Y35425586D01*
X84099798Y35425586D02*
X84023608Y35463682D01*
X84023608Y35463682D02*
X83871227Y35463682D01*
X83871227Y35463682D02*
X83795036Y35425586D01*
X83452179Y35463682D02*
X83452179Y34663682D01*
X83452179Y35425586D02*
X83375989Y35463682D01*
X83375989Y35463682D02*
X83223608Y35463682D01*
X83223608Y35463682D02*
X83147417Y35425586D01*
X83147417Y35425586D02*
X83109322Y35387491D01*
X83109322Y35387491D02*
X83071227Y35311301D01*
X83071227Y35311301D02*
X83071227Y35082729D01*
X83071227Y35082729D02*
X83109322Y35006539D01*
X83109322Y35006539D02*
X83147417Y34968443D01*
X83147417Y34968443D02*
X83223608Y34930348D01*
X83223608Y34930348D02*
X83375989Y34930348D01*
X83375989Y34930348D02*
X83452179Y34968443D01*
X82423607Y34968443D02*
X82499798Y34930348D01*
X82499798Y34930348D02*
X82652179Y34930348D01*
X82652179Y34930348D02*
X82728369Y34968443D01*
X82728369Y34968443D02*
X82766465Y35044634D01*
X82766465Y35044634D02*
X82766465Y35349396D01*
X82766465Y35349396D02*
X82728369Y35425586D01*
X82728369Y35425586D02*
X82652179Y35463682D01*
X82652179Y35463682D02*
X82499798Y35463682D01*
X82499798Y35463682D02*
X82423607Y35425586D01*
X82423607Y35425586D02*
X82385512Y35349396D01*
X82385512Y35349396D02*
X82385512Y35273205D01*
X82385512Y35273205D02*
X82766465Y35197015D01*
X82042655Y34930348D02*
X82042655Y35463682D01*
X82042655Y35311301D02*
X82004560Y35387491D01*
X82004560Y35387491D02*
X81966465Y35425586D01*
X81966465Y35425586D02*
X81890274Y35463682D01*
X81890274Y35463682D02*
X81814084Y35463682D01*
X80937893Y34930348D02*
X80937893Y35730348D01*
X80937893Y35730348D02*
X80633131Y35730348D01*
X80633131Y35730348D02*
X80556941Y35692253D01*
X80556941Y35692253D02*
X80518846Y35654158D01*
X80518846Y35654158D02*
X80480750Y35577967D01*
X80480750Y35577967D02*
X80480750Y35463682D01*
X80480750Y35463682D02*
X80518846Y35387491D01*
X80518846Y35387491D02*
X80556941Y35349396D01*
X80556941Y35349396D02*
X80633131Y35311301D01*
X80633131Y35311301D02*
X80937893Y35311301D01*
X79795036Y34930348D02*
X79795036Y35349396D01*
X79795036Y35349396D02*
X79833131Y35425586D01*
X79833131Y35425586D02*
X79909322Y35463682D01*
X79909322Y35463682D02*
X80061703Y35463682D01*
X80061703Y35463682D02*
X80137893Y35425586D01*
X79795036Y34968443D02*
X79871227Y34930348D01*
X79871227Y34930348D02*
X80061703Y34930348D01*
X80061703Y34930348D02*
X80137893Y34968443D01*
X80137893Y34968443D02*
X80175989Y35044634D01*
X80175989Y35044634D02*
X80175989Y35120824D01*
X80175989Y35120824D02*
X80137893Y35197015D01*
X80137893Y35197015D02*
X80061703Y35235110D01*
X80061703Y35235110D02*
X79871227Y35235110D01*
X79871227Y35235110D02*
X79795036Y35273205D01*
X79490274Y35463682D02*
X79337893Y34930348D01*
X79337893Y34930348D02*
X79185512Y35311301D01*
X79185512Y35311301D02*
X79033131Y34930348D01*
X79033131Y34930348D02*
X78880750Y35463682D01*
X78461703Y34930348D02*
X78537893Y34968443D01*
X78537893Y34968443D02*
X78575988Y35044634D01*
X78575988Y35044634D02*
X78575988Y35730348D01*
X77814083Y34930348D02*
X77814083Y35349396D01*
X77814083Y35349396D02*
X77852178Y35425586D01*
X77852178Y35425586D02*
X77928369Y35463682D01*
X77928369Y35463682D02*
X78080750Y35463682D01*
X78080750Y35463682D02*
X78156940Y35425586D01*
X77814083Y34968443D02*
X77890274Y34930348D01*
X77890274Y34930348D02*
X78080750Y34930348D01*
X78080750Y34930348D02*
X78156940Y34968443D01*
X78156940Y34968443D02*
X78195036Y35044634D01*
X78195036Y35044634D02*
X78195036Y35120824D01*
X78195036Y35120824D02*
X78156940Y35197015D01*
X78156940Y35197015D02*
X78080750Y35235110D01*
X78080750Y35235110D02*
X77890274Y35235110D01*
X77890274Y35235110D02*
X77814083Y35273205D01*
X77433130Y34930348D02*
X77433130Y35730348D01*
X77356940Y35235110D02*
X77128368Y34930348D01*
X77128368Y35463682D02*
X77433130Y35158920D01*
X90004561Y33457077D02*
X90271228Y33838030D01*
X90461704Y33457077D02*
X90461704Y34257077D01*
X90461704Y34257077D02*
X90156942Y34257077D01*
X90156942Y34257077D02*
X90080752Y34218982D01*
X90080752Y34218982D02*
X90042657Y34180887D01*
X90042657Y34180887D02*
X90004561Y34104696D01*
X90004561Y34104696D02*
X90004561Y33990411D01*
X90004561Y33990411D02*
X90042657Y33914220D01*
X90042657Y33914220D02*
X90080752Y33876125D01*
X90080752Y33876125D02*
X90156942Y33838030D01*
X90156942Y33838030D02*
X90461704Y33838030D01*
X89356942Y33495172D02*
X89433133Y33457077D01*
X89433133Y33457077D02*
X89585514Y33457077D01*
X89585514Y33457077D02*
X89661704Y33495172D01*
X89661704Y33495172D02*
X89699800Y33571363D01*
X89699800Y33571363D02*
X89699800Y33876125D01*
X89699800Y33876125D02*
X89661704Y33952315D01*
X89661704Y33952315D02*
X89585514Y33990411D01*
X89585514Y33990411D02*
X89433133Y33990411D01*
X89433133Y33990411D02*
X89356942Y33952315D01*
X89356942Y33952315D02*
X89318847Y33876125D01*
X89318847Y33876125D02*
X89318847Y33799934D01*
X89318847Y33799934D02*
X89699800Y33723744D01*
X89052181Y33990411D02*
X88861705Y33457077D01*
X88861705Y33457077D02*
X88671228Y33990411D01*
X88366466Y33457077D02*
X88366466Y33990411D01*
X88366466Y34257077D02*
X88404562Y34218982D01*
X88404562Y34218982D02*
X88366466Y34180887D01*
X88366466Y34180887D02*
X88328371Y34218982D01*
X88328371Y34218982D02*
X88366466Y34257077D01*
X88366466Y34257077D02*
X88366466Y34180887D01*
X87680752Y33495172D02*
X87756943Y33457077D01*
X87756943Y33457077D02*
X87909324Y33457077D01*
X87909324Y33457077D02*
X87985514Y33495172D01*
X87985514Y33495172D02*
X88023610Y33571363D01*
X88023610Y33571363D02*
X88023610Y33876125D01*
X88023610Y33876125D02*
X87985514Y33952315D01*
X87985514Y33952315D02*
X87909324Y33990411D01*
X87909324Y33990411D02*
X87756943Y33990411D01*
X87756943Y33990411D02*
X87680752Y33952315D01*
X87680752Y33952315D02*
X87642657Y33876125D01*
X87642657Y33876125D02*
X87642657Y33799934D01*
X87642657Y33799934D02*
X88023610Y33723744D01*
X87375991Y33990411D02*
X87223610Y33457077D01*
X87223610Y33457077D02*
X87071229Y33838030D01*
X87071229Y33838030D02*
X86918848Y33457077D01*
X86918848Y33457077D02*
X86766467Y33990411D01*
X86156943Y33495172D02*
X86233134Y33457077D01*
X86233134Y33457077D02*
X86385515Y33457077D01*
X86385515Y33457077D02*
X86461705Y33495172D01*
X86461705Y33495172D02*
X86499801Y33571363D01*
X86499801Y33571363D02*
X86499801Y33876125D01*
X86499801Y33876125D02*
X86461705Y33952315D01*
X86461705Y33952315D02*
X86385515Y33990411D01*
X86385515Y33990411D02*
X86233134Y33990411D01*
X86233134Y33990411D02*
X86156943Y33952315D01*
X86156943Y33952315D02*
X86118848Y33876125D01*
X86118848Y33876125D02*
X86118848Y33799934D01*
X86118848Y33799934D02*
X86499801Y33723744D01*
X85775991Y33457077D02*
X85775991Y33990411D01*
X85775991Y33838030D02*
X85737896Y33914220D01*
X85737896Y33914220D02*
X85699801Y33952315D01*
X85699801Y33952315D02*
X85623610Y33990411D01*
X85623610Y33990411D02*
X85547420Y33990411D01*
X85280753Y33533268D02*
X85242658Y33495172D01*
X85242658Y33495172D02*
X85280753Y33457077D01*
X85280753Y33457077D02*
X85318849Y33495172D01*
X85318849Y33495172D02*
X85280753Y33533268D01*
X85280753Y33533268D02*
X85280753Y33457077D01*
X85280753Y33952315D02*
X85242658Y33914220D01*
X85242658Y33914220D02*
X85280753Y33876125D01*
X85280753Y33876125D02*
X85318849Y33914220D01*
X85318849Y33914220D02*
X85280753Y33952315D01*
X85280753Y33952315D02*
X85280753Y33876125D01*
X84290277Y33457077D02*
X84290277Y34257077D01*
X84290277Y34257077D02*
X83985515Y34257077D01*
X83985515Y34257077D02*
X83909325Y34218982D01*
X83909325Y34218982D02*
X83871230Y34180887D01*
X83871230Y34180887D02*
X83833134Y34104696D01*
X83833134Y34104696D02*
X83833134Y33990411D01*
X83833134Y33990411D02*
X83871230Y33914220D01*
X83871230Y33914220D02*
X83909325Y33876125D01*
X83909325Y33876125D02*
X83985515Y33838030D01*
X83985515Y33838030D02*
X84290277Y33838030D01*
X83490277Y33457077D02*
X83490277Y33990411D01*
X83490277Y34257077D02*
X83528373Y34218982D01*
X83528373Y34218982D02*
X83490277Y34180887D01*
X83490277Y34180887D02*
X83452182Y34218982D01*
X83452182Y34218982D02*
X83490277Y34257077D01*
X83490277Y34257077D02*
X83490277Y34180887D01*
X82995040Y33457077D02*
X83071230Y33495172D01*
X83071230Y33495172D02*
X83109325Y33533268D01*
X83109325Y33533268D02*
X83147421Y33609458D01*
X83147421Y33609458D02*
X83147421Y33838030D01*
X83147421Y33838030D02*
X83109325Y33914220D01*
X83109325Y33914220D02*
X83071230Y33952315D01*
X83071230Y33952315D02*
X82995040Y33990411D01*
X82995040Y33990411D02*
X82880754Y33990411D01*
X82880754Y33990411D02*
X82804563Y33952315D01*
X82804563Y33952315D02*
X82766468Y33914220D01*
X82766468Y33914220D02*
X82728373Y33838030D01*
X82728373Y33838030D02*
X82728373Y33609458D01*
X82728373Y33609458D02*
X82766468Y33533268D01*
X82766468Y33533268D02*
X82804563Y33495172D01*
X82804563Y33495172D02*
X82880754Y33457077D01*
X82880754Y33457077D02*
X82995040Y33457077D01*
X82499801Y33990411D02*
X82195039Y33990411D01*
X82385515Y34257077D02*
X82385515Y33571363D01*
X82385515Y33571363D02*
X82347420Y33495172D01*
X82347420Y33495172D02*
X82271230Y33457077D01*
X82271230Y33457077D02*
X82195039Y33457077D01*
X81928372Y33457077D02*
X81928372Y33990411D01*
X81928372Y33838030D02*
X81890277Y33914220D01*
X81890277Y33914220D02*
X81852182Y33952315D01*
X81852182Y33952315D02*
X81775991Y33990411D01*
X81775991Y33990411D02*
X81699801Y33990411D01*
X80442658Y33457077D02*
X80823610Y33457077D01*
X80823610Y33457077D02*
X80823610Y34257077D01*
X79871229Y33495172D02*
X79947420Y33457077D01*
X79947420Y33457077D02*
X80099801Y33457077D01*
X80099801Y33457077D02*
X80175991Y33495172D01*
X80175991Y33495172D02*
X80214087Y33571363D01*
X80214087Y33571363D02*
X80214087Y33876125D01*
X80214087Y33876125D02*
X80175991Y33952315D01*
X80175991Y33952315D02*
X80099801Y33990411D01*
X80099801Y33990411D02*
X79947420Y33990411D01*
X79947420Y33990411D02*
X79871229Y33952315D01*
X79871229Y33952315D02*
X79833134Y33876125D01*
X79833134Y33876125D02*
X79833134Y33799934D01*
X79833134Y33799934D02*
X80214087Y33723744D01*
X79528373Y33495172D02*
X79452182Y33457077D01*
X79452182Y33457077D02*
X79299801Y33457077D01*
X79299801Y33457077D02*
X79223611Y33495172D01*
X79223611Y33495172D02*
X79185515Y33571363D01*
X79185515Y33571363D02*
X79185515Y33609458D01*
X79185515Y33609458D02*
X79223611Y33685649D01*
X79223611Y33685649D02*
X79299801Y33723744D01*
X79299801Y33723744D02*
X79414087Y33723744D01*
X79414087Y33723744D02*
X79490277Y33761839D01*
X79490277Y33761839D02*
X79528373Y33838030D01*
X79528373Y33838030D02*
X79528373Y33876125D01*
X79528373Y33876125D02*
X79490277Y33952315D01*
X79490277Y33952315D02*
X79414087Y33990411D01*
X79414087Y33990411D02*
X79299801Y33990411D01*
X79299801Y33990411D02*
X79223611Y33952315D01*
X78842658Y33457077D02*
X78842658Y33990411D01*
X78842658Y34257077D02*
X78880754Y34218982D01*
X78880754Y34218982D02*
X78842658Y34180887D01*
X78842658Y34180887D02*
X78804563Y34218982D01*
X78804563Y34218982D02*
X78842658Y34257077D01*
X78842658Y34257077D02*
X78842658Y34180887D01*
X78118849Y33495172D02*
X78195040Y33457077D01*
X78195040Y33457077D02*
X78347421Y33457077D01*
X78347421Y33457077D02*
X78423611Y33495172D01*
X78423611Y33495172D02*
X78461706Y33533268D01*
X78461706Y33533268D02*
X78499802Y33609458D01*
X78499802Y33609458D02*
X78499802Y33838030D01*
X78499802Y33838030D02*
X78461706Y33914220D01*
X78461706Y33914220D02*
X78423611Y33952315D01*
X78423611Y33952315D02*
X78347421Y33990411D01*
X78347421Y33990411D02*
X78195040Y33990411D01*
X78195040Y33990411D02*
X78118849Y33952315D01*
X77775992Y33457077D02*
X77775992Y34257077D01*
X77699802Y33761839D02*
X77471230Y33457077D01*
X77471230Y33990411D02*
X77775992Y33685649D01*
X77128373Y33457077D02*
X77128373Y33990411D01*
X77128373Y34257077D02*
X77166469Y34218982D01*
X77166469Y34218982D02*
X77128373Y34180887D01*
X77128373Y34180887D02*
X77090278Y34218982D01*
X77090278Y34218982D02*
X77128373Y34257077D01*
X77128373Y34257077D02*
X77128373Y34180887D01*
X76709326Y33495172D02*
X76709326Y33457077D01*
X76709326Y33457077D02*
X76747421Y33380887D01*
X76747421Y33380887D02*
X76785517Y33342792D01*
X75756945Y33457077D02*
X75756945Y34257077D01*
X75756945Y34257077D02*
X75452183Y34257077D01*
X75452183Y34257077D02*
X75375993Y34218982D01*
X75375993Y34218982D02*
X75337898Y34180887D01*
X75337898Y34180887D02*
X75299802Y34104696D01*
X75299802Y34104696D02*
X75299802Y33990411D01*
X75299802Y33990411D02*
X75337898Y33914220D01*
X75337898Y33914220D02*
X75375993Y33876125D01*
X75375993Y33876125D02*
X75452183Y33838030D01*
X75452183Y33838030D02*
X75756945Y33838030D01*
X74956945Y33457077D02*
X74956945Y33990411D01*
X74956945Y34257077D02*
X74995041Y34218982D01*
X74995041Y34218982D02*
X74956945Y34180887D01*
X74956945Y34180887D02*
X74918850Y34218982D01*
X74918850Y34218982D02*
X74956945Y34257077D01*
X74956945Y34257077D02*
X74956945Y34180887D01*
X74461708Y33457077D02*
X74537898Y33495172D01*
X74537898Y33495172D02*
X74575993Y33533268D01*
X74575993Y33533268D02*
X74614089Y33609458D01*
X74614089Y33609458D02*
X74614089Y33838030D01*
X74614089Y33838030D02*
X74575993Y33914220D01*
X74575993Y33914220D02*
X74537898Y33952315D01*
X74537898Y33952315D02*
X74461708Y33990411D01*
X74461708Y33990411D02*
X74347422Y33990411D01*
X74347422Y33990411D02*
X74271231Y33952315D01*
X74271231Y33952315D02*
X74233136Y33914220D01*
X74233136Y33914220D02*
X74195041Y33838030D01*
X74195041Y33838030D02*
X74195041Y33609458D01*
X74195041Y33609458D02*
X74233136Y33533268D01*
X74233136Y33533268D02*
X74271231Y33495172D01*
X74271231Y33495172D02*
X74347422Y33457077D01*
X74347422Y33457077D02*
X74461708Y33457077D01*
X73966469Y33990411D02*
X73661707Y33990411D01*
X73852183Y34257077D02*
X73852183Y33571363D01*
X73852183Y33571363D02*
X73814088Y33495172D01*
X73814088Y33495172D02*
X73737898Y33457077D01*
X73737898Y33457077D02*
X73661707Y33457077D01*
X73395040Y33457077D02*
X73395040Y33990411D01*
X73395040Y33838030D02*
X73356945Y33914220D01*
X73356945Y33914220D02*
X73318850Y33952315D01*
X73318850Y33952315D02*
X73242659Y33990411D01*
X73242659Y33990411D02*
X73166469Y33990411D01*
X72366469Y34257077D02*
X72175993Y33457077D01*
X72175993Y33457077D02*
X72023612Y34028506D01*
X72023612Y34028506D02*
X71871231Y33457077D01*
X71871231Y33457077D02*
X71680755Y34257077D01*
X71375992Y33457077D02*
X71375992Y33990411D01*
X71375992Y34257077D02*
X71414088Y34218982D01*
X71414088Y34218982D02*
X71375992Y34180887D01*
X71375992Y34180887D02*
X71337897Y34218982D01*
X71337897Y34218982D02*
X71375992Y34257077D01*
X71375992Y34257077D02*
X71375992Y34180887D01*
X71109326Y33990411D02*
X70804564Y33990411D01*
X70995040Y34257077D02*
X70995040Y33571363D01*
X70995040Y33571363D02*
X70956945Y33495172D01*
X70956945Y33495172D02*
X70880755Y33457077D01*
X70880755Y33457077D02*
X70804564Y33457077D01*
X70652183Y33990411D02*
X70347421Y33990411D01*
X70537897Y34257077D02*
X70537897Y33571363D01*
X70537897Y33571363D02*
X70499802Y33495172D01*
X70499802Y33495172D02*
X70423612Y33457077D01*
X70423612Y33457077D02*
X70347421Y33457077D01*
D11*
%TO.C,REF\u002A\u002A*%
G36*
X88090065Y32898473D02*
G01*
X88268891Y32898336D01*
X88460085Y32898088D01*
X89841839Y32895970D01*
X89878680Y32792281D01*
X89883386Y32778938D01*
X89896073Y32741883D01*
X89906364Y32710247D01*
X89913302Y32687034D01*
X89915932Y32675247D01*
X89915697Y32674103D01*
X89914128Y32672596D01*
X89910538Y32671215D01*
X89904290Y32669953D01*
X89894750Y32668804D01*
X89881282Y32667761D01*
X89863252Y32666817D01*
X89840023Y32665967D01*
X89810961Y32665203D01*
X89775431Y32664518D01*
X89732797Y32663907D01*
X89682425Y32663363D01*
X89623678Y32662878D01*
X89555922Y32662448D01*
X89478521Y32662063D01*
X89390841Y32661719D01*
X89292246Y32661409D01*
X89182101Y32661126D01*
X89059771Y32660863D01*
X88924620Y32660614D01*
X88776013Y32660373D01*
X88613315Y32660132D01*
X88435891Y32659885D01*
X86955441Y32657869D01*
X86899106Y32637291D01*
X86868934Y32625387D01*
X86791089Y32584835D01*
X86725006Y32534443D01*
X86670769Y32474340D01*
X86628464Y32404657D01*
X86598174Y32325524D01*
X86579986Y32237069D01*
X86573983Y32139423D01*
X86574135Y32123040D01*
X86580459Y32034034D01*
X86596507Y31955514D01*
X86622882Y31885813D01*
X86660186Y31823267D01*
X86709023Y31766210D01*
X86745735Y31732267D01*
X86784142Y31704248D01*
X86828710Y31679663D01*
X86836770Y31675618D01*
X86847938Y31669808D01*
X86858213Y31664456D01*
X86868220Y31659545D01*
X86878585Y31655055D01*
X86889933Y31650967D01*
X86902889Y31647263D01*
X86918078Y31643924D01*
X86936125Y31640930D01*
X86957655Y31638264D01*
X86983295Y31635907D01*
X87013668Y31633839D01*
X87049399Y31632042D01*
X87091115Y31630497D01*
X87139440Y31629186D01*
X87195000Y31628089D01*
X87258418Y31627187D01*
X87330322Y31626463D01*
X87411335Y31625897D01*
X87502084Y31625470D01*
X87603192Y31625164D01*
X87715286Y31624959D01*
X87838990Y31624838D01*
X87974929Y31624781D01*
X88123729Y31624769D01*
X88286016Y31624784D01*
X88462413Y31624806D01*
X88653546Y31624818D01*
X88806968Y31624808D01*
X88960485Y31624777D01*
X89109198Y31624726D01*
X89252404Y31624657D01*
X89389400Y31624570D01*
X89519481Y31624466D01*
X89641944Y31624346D01*
X89756084Y31624211D01*
X89861198Y31624063D01*
X89956581Y31623902D01*
X90041531Y31623729D01*
X90115343Y31623545D01*
X90177313Y31623352D01*
X90226737Y31623149D01*
X90262911Y31622939D01*
X90285132Y31622722D01*
X90292695Y31622499D01*
X90292696Y31622490D01*
X90295225Y31614770D01*
X90302242Y31594504D01*
X90313078Y31563592D01*
X90327065Y31523933D01*
X90343536Y31477425D01*
X90361821Y31425968D01*
X90379932Y31374698D01*
X90396493Y31327059D01*
X90410551Y31285831D01*
X90421431Y31253024D01*
X90428456Y31230648D01*
X90430947Y31220714D01*
X90430118Y31217907D01*
X90424469Y31214545D01*
X90411702Y31212404D01*
X90389758Y31211332D01*
X90356581Y31211177D01*
X90310112Y31211787D01*
X90189276Y31213902D01*
X90157623Y31302230D01*
X90125970Y31390557D01*
X88533025Y31394398D01*
X86940080Y31398238D01*
X86866200Y31418662D01*
X86844651Y31424862D01*
X86752166Y31458115D01*
X86670407Y31499780D01*
X86596780Y31551360D01*
X86528692Y31614361D01*
X86494331Y31651903D01*
X86460877Y31693989D01*
X86432336Y31738034D01*
X86404524Y31789953D01*
X86376032Y31852605D01*
X86352535Y31920503D01*
X86337093Y31990013D01*
X86328786Y32065403D01*
X86326693Y32150944D01*
X86326761Y32158911D01*
X86327677Y32206896D01*
X86329707Y32244645D01*
X86333335Y32276633D01*
X86339046Y32307334D01*
X86347327Y32341223D01*
X86365930Y32401391D01*
X86408022Y32497985D01*
X86462784Y32587963D01*
X86528932Y32669335D01*
X86605181Y32740116D01*
X86654688Y32776736D01*
X86730497Y32821138D01*
X86811433Y32854532D01*
X86900178Y32877955D01*
X86999416Y32892443D01*
X87007613Y32893021D01*
X87034624Y32894027D01*
X87076630Y32894935D01*
X87133392Y32895742D01*
X87204671Y32896447D01*
X87290230Y32897051D01*
X87389828Y32897551D01*
X87503228Y32897947D01*
X87630190Y32898239D01*
X87770476Y32898424D01*
X87923847Y32898503D01*
X88090065Y32898473D01*
G37*
G36*
X89778146Y32591543D02*
G01*
X89824514Y32590858D01*
X89949538Y32588743D01*
X90029007Y32366003D01*
X90037196Y32343043D01*
X90056579Y32288637D01*
X90074145Y32239245D01*
X90089225Y32196758D01*
X90101147Y32163067D01*
X90109241Y32140060D01*
X90112837Y32129629D01*
X90113527Y32126852D01*
X90112529Y32122585D01*
X90106664Y32119710D01*
X90093834Y32118026D01*
X90071940Y32117331D01*
X90038885Y32117426D01*
X89992572Y32118108D01*
X89867947Y32120222D01*
X89857602Y32150944D01*
X89855913Y32155921D01*
X89845582Y32185424D01*
X89835080Y32214310D01*
X89822903Y32246953D01*
X88452291Y32246953D01*
X88339886Y32246956D01*
X88176618Y32246966D01*
X88027623Y32246966D01*
X87892237Y32246938D01*
X87769799Y32246863D01*
X87659644Y32246723D01*
X87561109Y32246499D01*
X87473531Y32246173D01*
X87396246Y32245728D01*
X87328592Y32245143D01*
X87269905Y32244402D01*
X87219522Y32243486D01*
X87176780Y32242376D01*
X87141015Y32241054D01*
X87111565Y32239501D01*
X87087765Y32237700D01*
X87068953Y32235632D01*
X87054465Y32233278D01*
X87043638Y32230621D01*
X87035809Y32227642D01*
X87030315Y32224322D01*
X87026492Y32220643D01*
X87023678Y32216587D01*
X87021208Y32212136D01*
X87018420Y32207271D01*
X87012287Y32195750D01*
X87002685Y32161131D01*
X87002550Y32124644D01*
X87011507Y32091212D01*
X87029181Y32065756D01*
X87031322Y32064078D01*
X87034365Y32062493D01*
X87038894Y32061039D01*
X87045539Y32059707D01*
X87054931Y32058489D01*
X87067700Y32057379D01*
X87084478Y32056369D01*
X87105895Y32055451D01*
X87132581Y32054618D01*
X87165168Y32053863D01*
X87204287Y32053178D01*
X87250567Y32052556D01*
X87304640Y32051988D01*
X87367137Y32051469D01*
X87438687Y32050989D01*
X87519922Y32050542D01*
X87611473Y32050121D01*
X87713970Y32049718D01*
X87828045Y32049325D01*
X87954326Y32048935D01*
X88093447Y32048540D01*
X88246036Y32048134D01*
X88412725Y32047708D01*
X88594145Y32047255D01*
X90142910Y32043415D01*
X90182829Y31932045D01*
X90190425Y31910764D01*
X90203272Y31874339D01*
X90213615Y31844443D01*
X90220546Y31823714D01*
X90223158Y31814791D01*
X90218717Y31814356D01*
X90199886Y31813819D01*
X90166954Y31813318D01*
X90120631Y31812853D01*
X90061631Y31812427D01*
X89990666Y31812041D01*
X89908448Y31811698D01*
X89815689Y31811398D01*
X89713103Y31811143D01*
X89601400Y31810936D01*
X89481293Y31810778D01*
X89353495Y31810670D01*
X89218719Y31810615D01*
X89077675Y31810613D01*
X88931077Y31810668D01*
X88779638Y31810780D01*
X88624068Y31810951D01*
X87024567Y31812995D01*
X86975958Y31830561D01*
X86938374Y31845761D01*
X86887418Y31874052D01*
X86845358Y31908898D01*
X86825011Y31932105D01*
X86793473Y31984281D01*
X86772254Y32043935D01*
X86761706Y32108197D01*
X86762179Y32174199D01*
X86774023Y32239069D01*
X86797589Y32299937D01*
X86814624Y32328150D01*
X86852391Y32373136D01*
X86898874Y32413266D01*
X86949986Y32444660D01*
X87008405Y32473533D01*
X88374046Y32475557D01*
X88445317Y32475666D01*
X88586956Y32475903D01*
X88724029Y32476160D01*
X88855766Y32476434D01*
X88981396Y32476723D01*
X89100147Y32477023D01*
X89211249Y32477333D01*
X89313930Y32477650D01*
X89407419Y32477970D01*
X89490944Y32478292D01*
X89563736Y32478614D01*
X89625021Y32478931D01*
X89674031Y32479243D01*
X89709992Y32479546D01*
X89732134Y32479837D01*
X89739686Y32480115D01*
X89738954Y32483023D01*
X89734423Y32497023D01*
X89727142Y32518295D01*
X89718733Y32542198D01*
X89710817Y32564092D01*
X89705016Y32579337D01*
X89704042Y32582284D01*
X89704747Y32586494D01*
X89710434Y32589325D01*
X89723180Y32590977D01*
X89745059Y32591650D01*
X89778146Y32591543D01*
G37*
G36*
X84023342Y31907649D02*
G01*
X84046926Y31907256D01*
X84098872Y31906205D01*
X84138611Y31904954D01*
X84168423Y31903293D01*
X84190588Y31901015D01*
X84207388Y31897911D01*
X84221104Y31893772D01*
X84234016Y31888391D01*
X84244727Y31882814D01*
X84274347Y31857723D01*
X84292822Y31825434D01*
X84298810Y31789157D01*
X84290970Y31752099D01*
X84281474Y31734482D01*
X84265486Y31718254D01*
X84242544Y31706771D01*
X84210579Y31699364D01*
X84167527Y31695367D01*
X84111321Y31694113D01*
X84109571Y31694110D01*
X84068524Y31693892D01*
X84039826Y31693104D01*
X84020567Y31691286D01*
X84007840Y31687983D01*
X83998738Y31682738D01*
X83990350Y31675091D01*
X83983641Y31668022D01*
X83973830Y31652591D01*
X83972936Y31635348D01*
X83980011Y31610369D01*
X83981345Y31606674D01*
X83987584Y31593379D01*
X83996322Y31583106D01*
X84009395Y31575471D01*
X84028640Y31570088D01*
X84055895Y31566572D01*
X84092997Y31564538D01*
X84141782Y31563600D01*
X84204088Y31563373D01*
X84375996Y31563373D01*
X84384424Y31535913D01*
X84392851Y31508454D01*
X84199456Y31510951D01*
X84146135Y31511701D01*
X84097759Y31512630D01*
X84060971Y31513790D01*
X84033757Y31515346D01*
X84014103Y31517462D01*
X83999996Y31520302D01*
X83989422Y31524029D01*
X83980368Y31528810D01*
X83957294Y31548725D01*
X83937528Y31581085D01*
X83926696Y31618952D01*
X83925988Y31657846D01*
X83936596Y31693290D01*
X83945000Y31706490D01*
X83960903Y31721058D01*
X83983583Y31731678D01*
X84015171Y31738988D01*
X84057797Y31743626D01*
X84113590Y31746228D01*
X84145483Y31747303D01*
X84182855Y31749362D01*
X84208640Y31752178D01*
X84225116Y31756034D01*
X84234561Y31761211D01*
X84238705Y31765498D01*
X84247357Y31786513D01*
X84243722Y31810434D01*
X84228198Y31832778D01*
X84227417Y31833510D01*
X84220665Y31839362D01*
X84213179Y31843808D01*
X84202869Y31847078D01*
X84187646Y31849397D01*
X84165420Y31850994D01*
X84134103Y31852097D01*
X84091604Y31852933D01*
X84035835Y31853729D01*
X83863276Y31856060D01*
X83855941Y31875351D01*
X83851151Y31889884D01*
X83848607Y31902552D01*
X83853261Y31904851D01*
X83872829Y31906959D01*
X83907689Y31908128D01*
X83957856Y31908358D01*
X84023342Y31907649D01*
G37*
G36*
X85618399Y31908967D02*
G01*
X85648418Y31907548D01*
X85667001Y31903623D01*
X85677340Y31896600D01*
X85679574Y31893565D01*
X85689728Y31878339D01*
X85706026Y31853031D01*
X85727157Y31819702D01*
X85751811Y31780413D01*
X85778676Y31737226D01*
X85869719Y31590255D01*
X85867441Y31747709D01*
X85865163Y31905163D01*
X85921977Y31905163D01*
X85978791Y31905163D01*
X86038918Y31713328D01*
X86053876Y31665403D01*
X86068518Y31618054D01*
X86080963Y31577343D01*
X86090604Y31545273D01*
X86096834Y31523846D01*
X86099045Y31515064D01*
X86098980Y31514601D01*
X86091198Y31511136D01*
X86074404Y31511041D01*
X86049764Y31513448D01*
X85996161Y31684343D01*
X85991187Y31700176D01*
X85974861Y31751525D01*
X85962060Y31790306D01*
X85952091Y31818221D01*
X85944264Y31836972D01*
X85937886Y31848260D01*
X85932267Y31853788D01*
X85926714Y31855256D01*
X85923636Y31855175D01*
X85916738Y31852897D01*
X85913160Y31845039D01*
X85912083Y31828347D01*
X85912687Y31799571D01*
X85912905Y31792527D01*
X85913756Y31760532D01*
X85914710Y31719124D01*
X85915668Y31672881D01*
X85916527Y31626384D01*
X85918549Y31508900D01*
X85888793Y31511174D01*
X85859036Y31513448D01*
X85754381Y31684297D01*
X85751294Y31689333D01*
X85719085Y31741520D01*
X85693578Y31781933D01*
X85673798Y31811936D01*
X85658769Y31832898D01*
X85647517Y31846183D01*
X85639067Y31853159D01*
X85632444Y31855192D01*
X85621688Y31854133D01*
X85615163Y31850265D01*
X85615728Y31847823D01*
X85620133Y31833027D01*
X85628338Y31806838D01*
X85639661Y31771399D01*
X85653418Y31728856D01*
X85668927Y31681351D01*
X85676756Y31657439D01*
X85691477Y31612230D01*
X85704112Y31573107D01*
X85713980Y31542195D01*
X85720401Y31521620D01*
X85722692Y31513508D01*
X85722608Y31513189D01*
X85714590Y31510649D01*
X85697489Y31509608D01*
X85672285Y31509608D01*
X85609696Y31703224D01*
X85593696Y31753317D01*
X85578997Y31800560D01*
X85566783Y31841118D01*
X85557634Y31873015D01*
X85552135Y31894274D01*
X85550865Y31902921D01*
X85551214Y31903305D01*
X85561757Y31906190D01*
X85583012Y31908230D01*
X85610835Y31909003D01*
X85618399Y31908967D01*
G37*
G36*
X83177174Y31712630D02*
G01*
X83191387Y31666523D01*
X83204736Y31622646D01*
X83216455Y31583478D01*
X83225775Y31551497D01*
X83231930Y31529183D01*
X83234153Y31519014D01*
X83227755Y31512389D01*
X83211452Y31509608D01*
X83211162Y31509608D01*
X83201680Y31510180D01*
X83194370Y31513475D01*
X83187902Y31521889D01*
X83180944Y31537814D01*
X83172168Y31563645D01*
X83160244Y31601776D01*
X83131737Y31693944D01*
X83076541Y31693944D01*
X83021345Y31693944D01*
X83012494Y31640348D01*
X83007629Y31612128D01*
X83001111Y31576834D01*
X82995370Y31548180D01*
X82991297Y31530540D01*
X82985657Y31516345D01*
X82977026Y31510651D01*
X82962085Y31509608D01*
X82937071Y31509608D01*
X82951170Y31584494D01*
X82954877Y31604063D01*
X82961033Y31636024D01*
X82966030Y31661305D01*
X82969043Y31675696D01*
X82969707Y31685479D01*
X82962793Y31692301D01*
X82944111Y31696724D01*
X82913950Y31705159D01*
X82879879Y31725073D01*
X82854375Y31752499D01*
X82839067Y31784838D01*
X82836161Y31813772D01*
X82888522Y31813772D01*
X82893393Y31786571D01*
X82910918Y31762749D01*
X82940593Y31748050D01*
X82948226Y31746387D01*
X82973897Y31743164D01*
X83007315Y31740922D01*
X83043231Y31740071D01*
X83117293Y31740028D01*
X83099655Y31795713D01*
X83082018Y31851398D01*
X83006778Y31853615D01*
X82995688Y31853895D01*
X82952152Y31853547D01*
X82921526Y31849987D01*
X82901951Y31842589D01*
X82891570Y31830726D01*
X82888522Y31813772D01*
X82836161Y31813772D01*
X82835587Y31819491D01*
X82845565Y31853858D01*
X82854385Y31868216D01*
X82869046Y31882801D01*
X82889399Y31893224D01*
X82917853Y31900277D01*
X82956817Y31904752D01*
X83008701Y31907440D01*
X83040726Y31908472D01*
X83072348Y31909020D01*
X83093195Y31908363D01*
X83105885Y31906240D01*
X83113041Y31902385D01*
X83117282Y31896537D01*
X83120023Y31889845D01*
X83127041Y31869774D01*
X83137032Y31839539D01*
X83149229Y31801617D01*
X83162866Y31758487D01*
X83168625Y31740028D01*
X83177174Y31712630D01*
G37*
G36*
X84685474Y31705465D02*
G01*
X84695959Y31671783D01*
X84710589Y31624821D01*
X84723340Y31583934D01*
X84733540Y31551271D01*
X84740519Y31528980D01*
X84743608Y31519209D01*
X84739631Y31512040D01*
X84721156Y31509608D01*
X84695547Y31509608D01*
X84666185Y31602083D01*
X84636823Y31694559D01*
X84582624Y31692331D01*
X84528425Y31690104D01*
X84511767Y31605616D01*
X84505908Y31575744D01*
X84500151Y31546038D01*
X84496120Y31524815D01*
X84494447Y31515368D01*
X84494442Y31515332D01*
X84487161Y31511288D01*
X84470742Y31509608D01*
X84467681Y31509626D01*
X84457259Y31510715D01*
X84450928Y31515173D01*
X84448515Y31525330D01*
X84449848Y31543517D01*
X84454754Y31572063D01*
X84463061Y31613297D01*
X84467397Y31634450D01*
X84473080Y31662478D01*
X84476976Y31682088D01*
X84478422Y31689968D01*
X84477915Y31690427D01*
X84468068Y31693210D01*
X84449620Y31696708D01*
X84419530Y31705073D01*
X84385273Y31724989D01*
X84359726Y31752473D01*
X84344490Y31784951D01*
X84341884Y31812313D01*
X84393935Y31812313D01*
X84397795Y31787725D01*
X84412369Y31767767D01*
X84439950Y31752473D01*
X84459202Y31746738D01*
X84496407Y31741670D01*
X84546813Y31740028D01*
X84622573Y31740028D01*
X84605586Y31795713D01*
X84588598Y31851398D01*
X84509546Y31853597D01*
X84508596Y31853623D01*
X84462601Y31853542D01*
X84429906Y31850003D01*
X84408743Y31842372D01*
X84397342Y31830019D01*
X84393935Y31812313D01*
X84341884Y31812313D01*
X84341166Y31819849D01*
X84351358Y31854593D01*
X84357522Y31864859D01*
X84372455Y31880355D01*
X84393731Y31891645D01*
X84423587Y31899440D01*
X84464264Y31904449D01*
X84518002Y31907381D01*
X84543807Y31908226D01*
X84576394Y31908865D01*
X84597914Y31908285D01*
X84611044Y31906209D01*
X84618461Y31902356D01*
X84622842Y31896447D01*
X84625203Y31890757D01*
X84632104Y31871278D01*
X84642312Y31840783D01*
X84655096Y31801498D01*
X84669727Y31755650D01*
X84674629Y31740028D01*
X84685474Y31705465D01*
G37*
G36*
X83523321Y31588799D02*
G01*
X83516700Y31555388D01*
X83499068Y31528638D01*
X83472254Y31511961D01*
X83443845Y31505046D01*
X83400484Y31503520D01*
X83359129Y31511596D01*
X83323696Y31528355D01*
X83298099Y31552877D01*
X83296896Y31554634D01*
X83288471Y31568016D01*
X83280830Y31582999D01*
X83272981Y31602221D01*
X83263928Y31628317D01*
X83252680Y31663922D01*
X83238242Y31711672D01*
X83237276Y31714906D01*
X83223689Y31762715D01*
X83215354Y31798883D01*
X83213090Y31818286D01*
X83263152Y31818286D01*
X83264259Y31809299D01*
X83269502Y31785248D01*
X83278038Y31752702D01*
X83288752Y31715373D01*
X83300528Y31676968D01*
X83312250Y31641199D01*
X83322804Y31611774D01*
X83331073Y31592403D01*
X83342025Y31576293D01*
X83355203Y31564611D01*
X83362023Y31561672D01*
X83387310Y31555240D01*
X83415378Y31552166D01*
X83437691Y31553591D01*
X83446211Y31555984D01*
X83460393Y31562993D01*
X83468663Y31574145D01*
X83471117Y31591484D01*
X83467849Y31617054D01*
X83458954Y31652902D01*
X83444526Y31701072D01*
X83444071Y31702532D01*
X83426729Y31755820D01*
X83411548Y31796001D01*
X83397146Y31824863D01*
X83382145Y31844197D01*
X83365164Y31855791D01*
X83344825Y31861435D01*
X83319747Y31862919D01*
X83315599Y31862860D01*
X83285874Y31857231D01*
X83268413Y31842390D01*
X83263152Y31818286D01*
X83213090Y31818286D01*
X83212188Y31826021D01*
X83214106Y31846737D01*
X83221026Y31863640D01*
X83232862Y31879340D01*
X83236421Y31883224D01*
X83251995Y31896497D01*
X83270360Y31903611D01*
X83297792Y31907266D01*
X83300274Y31907467D01*
X83341558Y31908821D01*
X83374778Y31904554D01*
X83401719Y31893081D01*
X83424169Y31872816D01*
X83443913Y31842175D01*
X83462737Y31799574D01*
X83482427Y31743426D01*
X83486880Y31729659D01*
X83499505Y31689191D01*
X83510286Y31652577D01*
X83518195Y31623383D01*
X83522208Y31605174D01*
X83523139Y31591484D01*
X83523321Y31588799D01*
G37*
G36*
X84520504Y32529218D02*
G01*
X84528301Y32503917D01*
X84543751Y32454863D01*
X84558159Y32410471D01*
X84570686Y32373254D01*
X84580495Y32345728D01*
X84586747Y32330408D01*
X84607829Y32297439D01*
X84643811Y32264083D01*
X84687612Y32243286D01*
X84733311Y32233725D01*
X84777638Y32232978D01*
X84815333Y32241362D01*
X84844547Y32258160D01*
X84863431Y32282655D01*
X84870137Y32314129D01*
X84869347Y32321265D01*
X84864691Y32343578D01*
X84856420Y32376668D01*
X84845179Y32418106D01*
X84831615Y32465464D01*
X84816372Y32516313D01*
X84806198Y32549597D01*
X84792160Y32595787D01*
X84780162Y32635591D01*
X84770823Y32666937D01*
X84764765Y32687749D01*
X84762608Y32695955D01*
X84764137Y32696832D01*
X84777074Y32698513D01*
X84800341Y32699678D01*
X84830480Y32700113D01*
X84898352Y32700113D01*
X84950989Y32529218D01*
X84958353Y32505203D01*
X84974442Y32451513D01*
X84986364Y32409223D01*
X84994661Y32376049D01*
X84999871Y32349709D01*
X85002535Y32327920D01*
X85003191Y32308398D01*
X85002487Y32291284D01*
X84991565Y32236427D01*
X84968082Y32189932D01*
X84932818Y32152693D01*
X84886553Y32125608D01*
X84830067Y32109572D01*
X84800082Y32105086D01*
X84766155Y32102418D01*
X84733270Y32103746D01*
X84693481Y32109037D01*
X84675902Y32112317D01*
X84613360Y32132526D01*
X84557452Y32164082D01*
X84510609Y32205362D01*
X84475265Y32254742D01*
X84473410Y32258620D01*
X84465986Y32277415D01*
X84455284Y32307164D01*
X84442051Y32345547D01*
X84427035Y32390248D01*
X84410984Y32438948D01*
X84394647Y32489331D01*
X84378771Y32539077D01*
X84364104Y32585870D01*
X84351395Y32627391D01*
X84341391Y32661324D01*
X84334840Y32685349D01*
X84332490Y32697150D01*
X84334019Y32697775D01*
X84346955Y32698973D01*
X84370222Y32699803D01*
X84400362Y32700113D01*
X84468234Y32700113D01*
X84520504Y32529218D01*
G37*
G36*
X85812445Y32436600D02*
G01*
X85831008Y32377488D01*
X85849088Y32319919D01*
X85862001Y32278659D01*
X85876542Y32231817D01*
X85888934Y32191476D01*
X85898555Y32159673D01*
X85904785Y32138443D01*
X85907005Y32129823D01*
X85905922Y32128774D01*
X85893910Y32126365D01*
X85871418Y32124690D01*
X85841977Y32124062D01*
X85776926Y32124062D01*
X85745320Y32223394D01*
X85713714Y32322726D01*
X85439779Y32325163D01*
X85165843Y32327600D01*
X85117748Y32349811D01*
X85103064Y32357068D01*
X85057497Y32388225D01*
X85024752Y32427042D01*
X85003938Y32474498D01*
X84997042Y32509666D01*
X85125679Y32509666D01*
X85134716Y32486998D01*
X85156418Y32467948D01*
X85161800Y32465947D01*
X85177173Y32463283D01*
X85202160Y32461076D01*
X85237909Y32459275D01*
X85285570Y32457825D01*
X85346292Y32456674D01*
X85421226Y32455770D01*
X85457628Y32455475D01*
X85514648Y32455266D01*
X85565361Y32455390D01*
X85607956Y32455825D01*
X85640622Y32456551D01*
X85661549Y32457544D01*
X85668927Y32458782D01*
X85668915Y32459042D01*
X85666573Y32469531D01*
X85660971Y32490205D01*
X85653241Y32516869D01*
X85637554Y32569541D01*
X85411053Y32569541D01*
X85408411Y32569541D01*
X85339843Y32569379D01*
X85284941Y32568866D01*
X85242070Y32567929D01*
X85209595Y32566498D01*
X85185880Y32564501D01*
X85169290Y32561868D01*
X85158189Y32558526D01*
X85145318Y32551408D01*
X85129237Y32532340D01*
X85125679Y32509666D01*
X84997042Y32509666D01*
X84995598Y32517032D01*
X84997373Y32566962D01*
X85012556Y32611058D01*
X85040661Y32648045D01*
X85081201Y32676651D01*
X85119310Y32696272D01*
X85424407Y32698522D01*
X85729505Y32700772D01*
X85760350Y32602514D01*
X85765228Y32586975D01*
X85778417Y32544967D01*
X85794535Y32493634D01*
X85805479Y32458782D01*
X85812445Y32436600D01*
G37*
G36*
X85036309Y31579052D02*
G01*
X85025918Y31547582D01*
X85004235Y31522530D01*
X84973506Y31507530D01*
X84931030Y31501888D01*
X84886717Y31506350D01*
X84847510Y31520761D01*
X84817388Y31544188D01*
X84811309Y31552777D01*
X84798397Y31577724D01*
X84783732Y31612205D01*
X84768512Y31652778D01*
X84753932Y31695997D01*
X84741191Y31738421D01*
X84731484Y31776605D01*
X84726008Y31807107D01*
X84725572Y31824962D01*
X84770288Y31824962D01*
X84770353Y31823973D01*
X84773344Y31810321D01*
X84780037Y31786018D01*
X84789384Y31754419D01*
X84800337Y31718877D01*
X84811848Y31682746D01*
X84822868Y31649379D01*
X84832349Y31622130D01*
X84839244Y31604353D01*
X84843309Y31595947D01*
X84855810Y31576324D01*
X84867494Y31565040D01*
X84891266Y31556410D01*
X84923309Y31552354D01*
X84953432Y31555265D01*
X84975746Y31565140D01*
X84979894Y31569465D01*
X84983895Y31579645D01*
X84983960Y31595433D01*
X84979787Y31619045D01*
X84971073Y31652697D01*
X84957514Y31698607D01*
X84955132Y31706397D01*
X84938369Y31758635D01*
X84923585Y31797939D01*
X84909409Y31826092D01*
X84894470Y31844882D01*
X84877398Y31856093D01*
X84856823Y31861510D01*
X84831372Y31862919D01*
X84818095Y31861637D01*
X84794679Y31853474D01*
X84777172Y31840272D01*
X84770288Y31824962D01*
X84725572Y31824962D01*
X84725351Y31834023D01*
X84734535Y31866781D01*
X84755913Y31890217D01*
X84789452Y31904302D01*
X84835121Y31909003D01*
X84845495Y31908739D01*
X84890463Y31900603D01*
X84927081Y31881862D01*
X84953135Y31853557D01*
X84957485Y31844852D01*
X84966951Y31821465D01*
X84978814Y31788902D01*
X84991956Y31750544D01*
X85005255Y31709771D01*
X85017593Y31669963D01*
X85027849Y31634500D01*
X85034903Y31606763D01*
X85035478Y31595433D01*
X85036309Y31579052D01*
G37*
G36*
X85582061Y31564427D02*
G01*
X85572815Y31541115D01*
X85555746Y31523723D01*
X85530671Y31510556D01*
X85527334Y31509326D01*
X85495833Y31503441D01*
X85458289Y31503595D01*
X85421857Y31509837D01*
X85402539Y31517167D01*
X85382576Y31531074D01*
X85364781Y31552418D01*
X85347918Y31583117D01*
X85330751Y31625088D01*
X85312044Y31680250D01*
X85295079Y31736876D01*
X85283441Y31784999D01*
X85278421Y31820302D01*
X85325468Y31820302D01*
X85328238Y31800456D01*
X85335327Y31772319D01*
X85347004Y31733825D01*
X85363533Y31682912D01*
X85370640Y31661670D01*
X85384367Y31623502D01*
X85395735Y31597026D01*
X85405762Y31580037D01*
X85415465Y31570326D01*
X85439009Y31558370D01*
X85468942Y31551968D01*
X85497374Y31553600D01*
X85520259Y31562946D01*
X85533552Y31579684D01*
X85534512Y31589741D01*
X85531489Y31613866D01*
X85524250Y31646558D01*
X85513841Y31684541D01*
X85501304Y31724539D01*
X85487687Y31763276D01*
X85474033Y31797475D01*
X85461387Y31823860D01*
X85450795Y31839157D01*
X85430741Y31852156D01*
X85399953Y31860853D01*
X85368208Y31860920D01*
X85341786Y31851637D01*
X85340423Y31850728D01*
X85331827Y31843374D01*
X85326753Y31833920D01*
X85325468Y31820302D01*
X85278421Y31820302D01*
X85278116Y31822447D01*
X85278880Y31850829D01*
X85285512Y31871755D01*
X85298645Y31886266D01*
X85324796Y31899470D01*
X85358222Y31907203D01*
X85394860Y31908982D01*
X85430647Y31904321D01*
X85461518Y31892736D01*
X85476558Y31882740D01*
X85492193Y31867229D01*
X85506528Y31845670D01*
X85520769Y31815838D01*
X85536123Y31775507D01*
X85553794Y31722450D01*
X85564717Y31686827D01*
X85577827Y31635588D01*
X85583670Y31595353D01*
X85583378Y31589741D01*
X85582061Y31564427D01*
G37*
G36*
X83848804Y31709305D02*
G01*
X83860281Y31672255D01*
X83874943Y31625035D01*
X83887727Y31583996D01*
X83897970Y31551263D01*
X83905007Y31528959D01*
X83908176Y31519209D01*
X83908361Y31518644D01*
X83904018Y31511834D01*
X83885417Y31509608D01*
X83859139Y31509608D01*
X83830662Y31601776D01*
X83802185Y31693944D01*
X83704425Y31694113D01*
X83673403Y31694352D01*
X83637613Y31695566D01*
X83611435Y31698154D01*
X83591436Y31702510D01*
X83574181Y31709028D01*
X83552869Y31721495D01*
X83527451Y31747217D01*
X83511812Y31777935D01*
X83506369Y31810167D01*
X83556741Y31810167D01*
X83556753Y31809104D01*
X83564528Y31783425D01*
X83585121Y31762293D01*
X83616216Y31748126D01*
X83622853Y31746633D01*
X83648207Y31743290D01*
X83681375Y31740958D01*
X83716937Y31740071D01*
X83743598Y31740192D01*
X83767217Y31741043D01*
X83780051Y31743148D01*
X83784701Y31747016D01*
X83783767Y31753156D01*
X83780402Y31762910D01*
X83773561Y31784520D01*
X83765664Y31810750D01*
X83752598Y31855217D01*
X83671740Y31855228D01*
X83661477Y31855188D01*
X83618602Y31853565D01*
X83588630Y31849011D01*
X83569621Y31840766D01*
X83559638Y31828072D01*
X83556741Y31810167D01*
X83506369Y31810167D01*
X83506294Y31810611D01*
X83511238Y31842204D01*
X83526985Y31869674D01*
X83553876Y31889984D01*
X83554917Y31890469D01*
X83576078Y31896893D01*
X83606334Y31902141D01*
X83642217Y31906057D01*
X83680255Y31908488D01*
X83716979Y31909277D01*
X83748918Y31908272D01*
X83772604Y31905318D01*
X83784565Y31900259D01*
X83787418Y31894405D01*
X83794707Y31875132D01*
X83805211Y31844843D01*
X83818209Y31805681D01*
X83832980Y31759788D01*
X83836983Y31747016D01*
X83848804Y31709305D01*
G37*
G36*
X82788864Y31889301D02*
G01*
X82790740Y31884267D01*
X82794986Y31868294D01*
X82791304Y31859586D01*
X82777223Y31855961D01*
X82750270Y31855238D01*
X82729306Y31854738D01*
X82711165Y31853092D01*
X82704186Y31850695D01*
X82704491Y31849234D01*
X82708257Y31836107D01*
X82715782Y31811347D01*
X82726385Y31777150D01*
X82739387Y31735714D01*
X82754110Y31689236D01*
X82759296Y31672874D01*
X82773567Y31627180D01*
X82785864Y31586822D01*
X82795500Y31554120D01*
X82801786Y31531394D01*
X82804035Y31520964D01*
X82799369Y31513082D01*
X82781610Y31509608D01*
X82775377Y31509798D01*
X82763673Y31513284D01*
X82755568Y31524113D01*
X82747507Y31546091D01*
X82742481Y31561859D01*
X82733188Y31591127D01*
X82721132Y31629163D01*
X82707313Y31672809D01*
X82692734Y31718906D01*
X82649641Y31855238D01*
X82604843Y31855238D01*
X82586015Y31855503D01*
X82568577Y31857517D01*
X82559718Y31862720D01*
X82555413Y31872520D01*
X82552146Y31885554D01*
X82551608Y31895553D01*
X82556126Y31902209D01*
X82567760Y31906202D01*
X82588571Y31908211D01*
X82620622Y31908918D01*
X82665973Y31909003D01*
X82781373Y31909003D01*
X82788864Y31889301D01*
G37*
G36*
X85223638Y31889301D02*
G01*
X85225776Y31883546D01*
X85229763Y31867960D01*
X85225813Y31859470D01*
X85211456Y31855940D01*
X85184223Y31855238D01*
X85157266Y31854323D01*
X85143381Y31851264D01*
X85140960Y31845637D01*
X85141459Y31844221D01*
X85145920Y31830571D01*
X85154015Y31805240D01*
X85165006Y31770553D01*
X85178155Y31728839D01*
X85192725Y31682423D01*
X85196927Y31669020D01*
X85211172Y31623691D01*
X85223789Y31583720D01*
X85234039Y31551431D01*
X85241186Y31529152D01*
X85244491Y31519209D01*
X85244733Y31518473D01*
X85240330Y31511783D01*
X85221756Y31509608D01*
X85195378Y31509608D01*
X85141638Y31680503D01*
X85087899Y31851398D01*
X85041209Y31853665D01*
X85018131Y31855184D01*
X85001969Y31858285D01*
X84993815Y31864386D01*
X84989698Y31875140D01*
X84987664Y31889265D01*
X84989406Y31901676D01*
X84990912Y31902638D01*
X85004575Y31905165D01*
X85029954Y31907183D01*
X85064345Y31908519D01*
X85105041Y31909003D01*
X85216148Y31909003D01*
X85223638Y31889301D01*
G37*
G36*
X84307909Y32642670D02*
G01*
X84309630Y32636781D01*
X84317341Y32609307D01*
X84322761Y32588194D01*
X84324809Y32577613D01*
X84318908Y32574615D01*
X84299676Y32571659D01*
X84269198Y32569330D01*
X84229645Y32567851D01*
X84134481Y32565701D01*
X84202763Y32347503D01*
X84208602Y32328832D01*
X84225328Y32275246D01*
X84240279Y32227182D01*
X84252891Y32186466D01*
X84262600Y32154927D01*
X84268839Y32134390D01*
X84271044Y32126683D01*
X84269528Y32126132D01*
X84256616Y32125071D01*
X84233370Y32124337D01*
X84203248Y32124062D01*
X84135452Y32124062D01*
X84066525Y32344881D01*
X83997598Y32565701D01*
X83897372Y32567836D01*
X83797145Y32569971D01*
X83788360Y32598559D01*
X83785923Y32606488D01*
X83777224Y32634809D01*
X83768374Y32663630D01*
X83757174Y32700113D01*
X84024091Y32700113D01*
X84291009Y32700113D01*
X84307909Y32642670D01*
G37*
D12*
X90952500Y36300000D02*
X69547500Y36300000D01*
X69547500Y30750000D01*
X90952500Y30750000D01*
X90952500Y36300000D01*
%TD*%
M02*
