%TF.GenerationSoftware,KiCad,Pcbnew,9.0.5*%
%TF.CreationDate,2026-03-19T14:31:07+01:00*%
%TF.ProjectId,UMB,554d422e-6b69-4636-9164-5f7063625858,rev?*%
%TF.SameCoordinates,PX3197500PY8b3c880*%
%TF.FileFunction,Paste,Top*%
%TF.FilePolarity,Positive*%
%FSLAX46Y46*%
G04 Gerber Fmt 4.6, Leading zero omitted, Abs format (unit mm)*
G04 Created by KiCad (PCBNEW 9.0.5) date 2026-03-19 14:31:07*
%MOMM*%
%LPD*%
G01*
G04 APERTURE LIST*
G04 Aperture macros list*
%AMRoundRect*
0 Rectangle with rounded corners*
0 $1 Rounding radius*
0 $2 $3 $4 $5 $6 $7 $8 $9 X,Y pos of 4 corners*
0 Add a 4 corners polygon primitive as box body*
4,1,4,$2,$3,$4,$5,$6,$7,$8,$9,$2,$3,0*
0 Add four circle primitives for the rounded corners*
1,1,$1+$1,$2,$3*
1,1,$1+$1,$4,$5*
1,1,$1+$1,$6,$7*
1,1,$1+$1,$8,$9*
0 Add four rect primitives between the rounded corners*
20,1,$1+$1,$2,$3,$4,$5,0*
20,1,$1+$1,$4,$5,$6,$7,0*
20,1,$1+$1,$6,$7,$8,$9,0*
20,1,$1+$1,$8,$9,$2,$3,0*%
%AMFreePoly0*
4,1,9,5.362500,-0.866500,1.237500,-0.866500,1.237500,-0.450000,-1.237500,-0.450000,-1.237500,0.450000,1.237500,0.450000,1.237500,0.866500,5.362500,0.866500,5.362500,-0.866500,5.362500,-0.866500,$1*%
%AMFreePoly1*
4,1,29,-1.514645,5.436184,-1.500000,5.400829,-1.500000,4.220829,3.540000,4.220829,3.575355,4.206184,3.590000,4.170829,3.590000,-4.169171,3.575355,-4.204526,3.540000,-4.219171,-1.500000,-4.219171,-1.500000,-5.399171,-1.514645,-5.434526,-1.550000,-5.449171,-3.460000,-5.449171,-3.460266,-5.449060,-3.460828,-5.449172,-3.660828,-5.449172,-3.679962,-5.445366,-3.707022,-5.418306,-3.710828,-5.399172,
-3.710828,5.400828,-3.707022,5.419962,-3.679962,5.447022,-3.660828,5.450828,-3.460828,5.450828,-3.460270,5.450717,-3.460000,5.450829,-1.550000,5.450829,-1.514645,5.436184,-1.514645,5.436184,$1*%
G04 Aperture macros list end*
%ADD10R,0.450000X1.200000*%
%ADD11RoundRect,0.237500X-0.237500X0.250000X-0.237500X-0.250000X0.237500X-0.250000X0.237500X0.250000X0*%
%ADD12RoundRect,0.237500X0.250000X0.237500X-0.250000X0.237500X-0.250000X-0.237500X0.250000X-0.237500X0*%
%ADD13RoundRect,0.237500X0.237500X-0.300000X0.237500X0.300000X-0.237500X0.300000X-0.237500X-0.300000X0*%
%ADD14RoundRect,0.125000X-0.125000X0.625000X-0.125000X-0.625000X0.125000X-0.625000X0.125000X0.625000X0*%
%ADD15RoundRect,0.125000X-0.625000X0.125000X-0.625000X-0.125000X0.625000X-0.125000X0.625000X0.125000X0*%
%ADD16RoundRect,0.200000X-0.750000X-0.200000X0.750000X-0.200000X0.750000X0.200000X-0.750000X0.200000X0*%
%ADD17RoundRect,0.237500X-0.300000X-0.237500X0.300000X-0.237500X0.300000X0.237500X-0.300000X0.237500X0*%
%ADD18RoundRect,0.062500X0.117500X0.062500X-0.117500X0.062500X-0.117500X-0.062500X0.117500X-0.062500X0*%
%ADD19R,0.670000X0.300000*%
%ADD20RoundRect,0.237500X-0.237500X0.300000X-0.237500X-0.300000X0.237500X-0.300000X0.237500X0.300000X0*%
%ADD21RoundRect,0.250000X-0.337500X-0.475000X0.337500X-0.475000X0.337500X0.475000X-0.337500X0.475000X0*%
%ADD22RoundRect,0.237500X0.237500X-0.250000X0.237500X0.250000X-0.237500X0.250000X-0.237500X-0.250000X0*%
%ADD23R,0.650000X1.950000*%
%ADD24RoundRect,0.250000X0.275000X0.350000X-0.275000X0.350000X-0.275000X-0.350000X0.275000X-0.350000X0*%
%ADD25RoundRect,0.200000X-0.200000X0.750000X-0.200000X-0.750000X0.200000X-0.750000X0.200000X0.750000X0*%
%ADD26RoundRect,0.375000X-0.625000X-0.375000X0.625000X-0.375000X0.625000X0.375000X-0.625000X0.375000X0*%
%ADD27RoundRect,0.500000X-0.500000X-1.400000X0.500000X-1.400000X0.500000X1.400000X-0.500000X1.400000X0*%
%ADD28R,1.100000X1.670000*%
%ADD29RoundRect,0.237500X-0.250000X-0.237500X0.250000X-0.237500X0.250000X0.237500X-0.250000X0.237500X0*%
%ADD30RoundRect,0.250000X0.337500X0.475000X-0.337500X0.475000X-0.337500X-0.475000X0.337500X-0.475000X0*%
%ADD31RoundRect,0.237500X0.300000X0.237500X-0.300000X0.237500X-0.300000X-0.237500X0.300000X-0.237500X0*%
%ADD32R,1.670000X1.100000*%
%ADD33RoundRect,0.225000X0.225000X-0.925000X0.225000X0.925000X-0.225000X0.925000X-0.225000X-0.925000X0*%
%ADD34FreePoly0,90.000000*%
%ADD35RoundRect,0.250000X-0.475000X0.337500X-0.475000X-0.337500X0.475000X-0.337500X0.475000X0.337500X0*%
%ADD36R,1.900000X3.550000*%
%ADD37RoundRect,0.175000X-0.175000X0.825000X-0.175000X-0.825000X0.175000X-0.825000X0.175000X0.825000X0*%
%ADD38R,1.525000X0.650000*%
%ADD39RoundRect,0.250002X1.799998X-1.799998X1.799998X1.799998X-1.799998X1.799998X-1.799998X-1.799998X0*%
%ADD40RoundRect,0.150000X0.512500X0.150000X-0.512500X0.150000X-0.512500X-0.150000X0.512500X-0.150000X0*%
%ADD41R,0.870000X0.930000*%
%ADD42RoundRect,0.162500X-0.162500X0.837500X-0.162500X-0.837500X0.162500X-0.837500X0.162500X0.837500X0*%
%ADD43RoundRect,0.200000X0.200000X-0.750000X0.200000X0.750000X-0.200000X0.750000X-0.200000X-0.750000X0*%
%ADD44RoundRect,0.150000X0.150000X-0.512500X0.150000X0.512500X-0.150000X0.512500X-0.150000X-0.512500X0*%
%ADD45R,2.400000X1.070000*%
%ADD46FreePoly1,180.000000*%
%ADD47RoundRect,0.150000X-0.875000X-0.150000X0.875000X-0.150000X0.875000X0.150000X-0.875000X0.150000X0*%
%ADD48RoundRect,0.250000X0.475000X-0.337500X0.475000X0.337500X-0.475000X0.337500X-0.475000X-0.337500X0*%
%ADD49R,3.550000X1.900000*%
%ADD50R,2.000000X4.000000*%
%ADD51RoundRect,0.250000X1.310000X-0.400000X1.310000X0.400000X-1.310000X0.400000X-1.310000X-0.400000X0*%
%ADD52R,0.300000X1.450000*%
%ADD53R,1.450000X0.300000*%
G04 APERTURE END LIST*
D10*
%TO.C,U5*%
X114775000Y6000000D03*
X115425000Y6000000D03*
X116075000Y6000000D03*
X116725000Y6000000D03*
X116725000Y8500000D03*
X116075000Y8500000D03*
X115425000Y8500000D03*
X114775000Y8500000D03*
%TD*%
D11*
%TO.C,R53*%
X18500000Y46662500D03*
X18500000Y44837500D03*
%TD*%
%TO.C,R57*%
X47500000Y37662500D03*
X47500000Y35837500D03*
%TD*%
D12*
%TO.C,R19*%
X47662500Y47250000D03*
X45837500Y47250000D03*
%TD*%
%TO.C,R20*%
X47662500Y44500000D03*
X45837500Y44500000D03*
%TD*%
D13*
%TO.C,C37*%
X63500000Y36887500D03*
X63500000Y38612500D03*
%TD*%
D14*
%TO.C,U1*%
X93300000Y36675000D03*
X92500000Y36675000D03*
X91700000Y36675000D03*
X90900000Y36675000D03*
X90100000Y36675000D03*
X89300000Y36675000D03*
X88500000Y36675000D03*
X87700000Y36675000D03*
D15*
X86325000Y35300000D03*
X86325000Y34500000D03*
X86325000Y33700000D03*
X86325000Y32900000D03*
X86325000Y32100000D03*
X86325000Y31300000D03*
X86325000Y30500000D03*
X86325000Y29700000D03*
D14*
X87700000Y28325000D03*
X88500000Y28325000D03*
X89300000Y28325000D03*
X90100000Y28325000D03*
X90900000Y28325000D03*
X91700000Y28325000D03*
X92500000Y28325000D03*
X93300000Y28325000D03*
D15*
X94675000Y29700000D03*
X94675000Y30500000D03*
X94675000Y31300000D03*
X94675000Y32100000D03*
X94675000Y32900000D03*
X94675000Y33700000D03*
X94675000Y34500000D03*
X94675000Y35300000D03*
%TD*%
D16*
%TO.C,D13*%
X123800000Y49150000D03*
X123800000Y47250000D03*
X126800000Y48200000D03*
%TD*%
D17*
%TO.C,C12*%
X124237500Y51300000D03*
X125962500Y51300000D03*
%TD*%
D11*
%TO.C,R8*%
X123300000Y45612500D03*
X123300000Y43787500D03*
%TD*%
D18*
%TO.C,D7*%
X83580000Y15750000D03*
X84420000Y15750000D03*
%TD*%
D19*
%TO.C,U4*%
X116230000Y17750000D03*
X116230000Y18250000D03*
X116230000Y18750000D03*
X116230000Y19250000D03*
X114750000Y19250000D03*
X114750000Y18750000D03*
X114750000Y18250000D03*
X114750000Y17750000D03*
%TD*%
D12*
%TO.C,R15*%
X47662500Y22500000D03*
X45837500Y22500000D03*
%TD*%
%TO.C,R58*%
X47412500Y34250000D03*
X45587500Y34250000D03*
%TD*%
D20*
%TO.C,C22*%
X113250000Y10112500D03*
X113250000Y8387500D03*
%TD*%
D12*
%TO.C,R24*%
X26912500Y19750000D03*
X25087500Y19750000D03*
%TD*%
%TO.C,R25*%
X26912500Y17000000D03*
X25087500Y17000000D03*
%TD*%
D20*
%TO.C,C42*%
X31500000Y32362500D03*
X31500000Y30637500D03*
%TD*%
D17*
%TO.C,C3*%
X68137500Y38750000D03*
X69862500Y38750000D03*
%TD*%
D21*
%TO.C,C36*%
X78212500Y41750000D03*
X80287500Y41750000D03*
%TD*%
D22*
%TO.C,R44*%
X39250000Y20337500D03*
X39250000Y22162500D03*
%TD*%
D12*
%TO.C,R37*%
X6162500Y41750000D03*
X4337500Y41750000D03*
%TD*%
D23*
%TO.C,U13*%
X11305000Y28775000D03*
X12575000Y28775000D03*
X13845000Y28775000D03*
X15115000Y28775000D03*
X16385000Y28775000D03*
X17655000Y28775000D03*
X18925000Y28775000D03*
X20195000Y28775000D03*
X20195000Y38225000D03*
X18925000Y38225000D03*
X17655000Y38225000D03*
X16385000Y38225000D03*
X15115000Y38225000D03*
X13845000Y38225000D03*
X12575000Y38225000D03*
X11305000Y38225000D03*
%TD*%
D24*
%TO.C,FB1*%
X108847394Y51751939D03*
X106547394Y51751939D03*
%TD*%
D25*
%TO.C,D5*%
X16450000Y19750000D03*
X14550000Y19750000D03*
X15500000Y16750000D03*
%TD*%
D26*
%TO.C,U7*%
X93350000Y24800000D03*
X93350000Y22500000D03*
D27*
X99650000Y22500000D03*
D26*
X93350000Y20200000D03*
%TD*%
D28*
%TO.C,F6*%
X105960000Y16500000D03*
X103040000Y16500000D03*
%TD*%
D11*
%TO.C,R43*%
X61488771Y46672256D03*
X61488771Y44847256D03*
%TD*%
%TO.C,R47*%
X39238771Y46672256D03*
X39238771Y44847256D03*
%TD*%
D29*
%TO.C,R56*%
X49087500Y39000000D03*
X50912500Y39000000D03*
%TD*%
D30*
%TO.C,C27*%
X95287500Y17750000D03*
X93212500Y17750000D03*
%TD*%
D31*
%TO.C,C25*%
X88112500Y49500000D03*
X86387500Y49500000D03*
%TD*%
D32*
%TO.C,F1*%
X126750000Y23960000D03*
X126750000Y21040000D03*
%TD*%
D22*
%TO.C,R54*%
X21500000Y44837500D03*
X21500000Y46662500D03*
%TD*%
D33*
%TO.C,U10*%
X78250000Y44300000D03*
D34*
X79750000Y44387500D03*
D33*
X81250000Y44300000D03*
%TD*%
D35*
%TO.C,C6*%
X108697394Y55539439D03*
X108697394Y53464439D03*
%TD*%
D23*
%TO.C,U12*%
X33805000Y28775000D03*
X35075000Y28775000D03*
X36345000Y28775000D03*
X37615000Y28775000D03*
X38885000Y28775000D03*
X40155000Y28775000D03*
X41425000Y28775000D03*
X42695000Y28775000D03*
X42695000Y38225000D03*
X41425000Y38225000D03*
X40155000Y38225000D03*
X38885000Y38225000D03*
X37615000Y38225000D03*
X36345000Y38225000D03*
X35075000Y38225000D03*
X33805000Y38225000D03*
%TD*%
D36*
%TO.C,C14*%
X123500000Y17950000D03*
X123500000Y12550000D03*
%TD*%
D11*
%TO.C,R11*%
X115500000Y12162500D03*
X115500000Y10337500D03*
%TD*%
D12*
%TO.C,R18*%
X47662500Y50000000D03*
X45837500Y50000000D03*
%TD*%
D13*
%TO.C,C38*%
X44500000Y36887500D03*
X44500000Y38612500D03*
%TD*%
D37*
%TO.C,U17*%
X50950000Y36950000D03*
X49050000Y36950000D03*
X50000000Y33550000D03*
%TD*%
D38*
%TO.C,U15*%
X72212000Y41440000D03*
X72212000Y42710000D03*
X72212000Y43980000D03*
X72212000Y45250000D03*
X72212000Y46520000D03*
X72212000Y47790000D03*
X72212000Y49060000D03*
X66788000Y49060000D03*
X66788000Y47790000D03*
X66788000Y46520000D03*
X66788000Y45250000D03*
X66788000Y43980000D03*
X66788000Y42710000D03*
X66788000Y41440000D03*
%TD*%
D18*
%TO.C,D8*%
X80580000Y15800000D03*
X81420000Y15800000D03*
%TD*%
D12*
%TO.C,R32*%
X6162500Y19750000D03*
X4337500Y19750000D03*
%TD*%
D25*
%TO.C,D3*%
X37200000Y19750000D03*
X35300000Y19750000D03*
X36250000Y16750000D03*
%TD*%
D39*
%TO.C,L1*%
X114250000Y22750000D03*
X114250000Y32250000D03*
%TD*%
D40*
%TO.C,D15*%
X119337500Y63750000D03*
X119337500Y64700000D03*
X119337500Y65650000D03*
X117062500Y65650000D03*
X117062500Y64700000D03*
X117062500Y63750000D03*
%TD*%
D12*
%TO.C,R36*%
X6162500Y44500000D03*
X4337500Y44500000D03*
%TD*%
D11*
%TO.C,R41*%
X59988771Y46672256D03*
X59988771Y44847256D03*
%TD*%
D13*
%TO.C,C23*%
X104700000Y3237500D03*
X104700000Y4962500D03*
%TD*%
D12*
%TO.C,R22*%
X26912500Y25250000D03*
X25087500Y25250000D03*
%TD*%
%TO.C,R23*%
X26912500Y22500000D03*
X25087500Y22500000D03*
%TD*%
D17*
%TO.C,C15*%
X119137500Y21000000D03*
X120862500Y21000000D03*
%TD*%
D13*
%TO.C,C40*%
X74750000Y21137500D03*
X74750000Y22862500D03*
%TD*%
D24*
%TO.C,FB2*%
X108847394Y50001939D03*
X106547394Y50001939D03*
%TD*%
D32*
%TO.C,F3*%
X100250000Y35000000D03*
X100250000Y37920000D03*
%TD*%
D16*
%TO.C,D14*%
X117300000Y61850000D03*
X117300000Y59950000D03*
X120300000Y60900000D03*
%TD*%
D41*
%TO.C,F4*%
X104530000Y20750000D03*
X102970000Y20750000D03*
%TD*%
D12*
%TO.C,R27*%
X26912500Y47250000D03*
X25087500Y47250000D03*
%TD*%
D38*
%TO.C,U14*%
X29712000Y28690000D03*
X29712000Y29960000D03*
X29712000Y31230000D03*
X29712000Y32500000D03*
X29712000Y33770000D03*
X29712000Y35040000D03*
X29712000Y36310000D03*
X24288000Y36310000D03*
X24288000Y35040000D03*
X24288000Y33770000D03*
X24288000Y32500000D03*
X24288000Y31230000D03*
X24288000Y29960000D03*
X24288000Y28690000D03*
%TD*%
D12*
%TO.C,R29*%
X26912500Y41750000D03*
X25087500Y41750000D03*
%TD*%
D13*
%TO.C,C19*%
X105500000Y32637500D03*
X105500000Y34362500D03*
%TD*%
D22*
%TO.C,R13*%
X120300000Y5687500D03*
X120300000Y7512500D03*
%TD*%
D31*
%TO.C,C43*%
X92162500Y38500000D03*
X90437500Y38500000D03*
%TD*%
D17*
%TO.C,C30*%
X85437500Y22112500D03*
X87162500Y22112500D03*
%TD*%
D12*
%TO.C,R35*%
X6162500Y47250000D03*
X4337500Y47250000D03*
%TD*%
D17*
%TO.C,C21*%
X118537500Y9000000D03*
X120262500Y9000000D03*
%TD*%
D30*
%TO.C,C9*%
X126137500Y54550000D03*
X124062500Y54550000D03*
%TD*%
D11*
%TO.C,R55*%
X20000000Y46662500D03*
X20000000Y44837500D03*
%TD*%
D12*
%TO.C,R16*%
X47662500Y19750000D03*
X45837500Y19750000D03*
%TD*%
D21*
%TO.C,C34*%
X77212500Y25250000D03*
X79287500Y25250000D03*
%TD*%
D12*
%TO.C,R26*%
X26912500Y50000000D03*
X25087500Y50000000D03*
%TD*%
D42*
%TO.C,U9*%
X79200000Y20960000D03*
X77300000Y20960000D03*
X78250000Y17540000D03*
%TD*%
D20*
%TO.C,C8*%
X108000000Y48362500D03*
X108000000Y46637500D03*
%TD*%
D17*
%TO.C,C26*%
X86637500Y41000000D03*
X88362500Y41000000D03*
%TD*%
D18*
%TO.C,D12*%
X71080000Y51250000D03*
X71920000Y51250000D03*
%TD*%
D12*
%TO.C,R5*%
X81162500Y36250000D03*
X79337500Y36250000D03*
%TD*%
D17*
%TO.C,C31*%
X85437500Y23612500D03*
X87162500Y23612500D03*
%TD*%
D23*
%TO.C,U11*%
X52805000Y28775000D03*
X54075000Y28775000D03*
X55345000Y28775000D03*
X56615000Y28775000D03*
X57885000Y28775000D03*
X59155000Y28775000D03*
X60425000Y28775000D03*
X61695000Y28775000D03*
X61695000Y38225000D03*
X60425000Y38225000D03*
X59155000Y38225000D03*
X57885000Y38225000D03*
X56615000Y38225000D03*
X55345000Y38225000D03*
X54075000Y38225000D03*
X52805000Y38225000D03*
%TD*%
D12*
%TO.C,R4*%
X81162500Y31750000D03*
X79337500Y31750000D03*
%TD*%
D43*
%TO.C,D6*%
X14550000Y47250000D03*
X16450000Y47250000D03*
X15500000Y50250000D03*
%TD*%
D13*
%TO.C,C29*%
X89050000Y18000000D03*
X89050000Y19725000D03*
%TD*%
D20*
%TO.C,C41*%
X74500000Y46112500D03*
X74500000Y44387500D03*
%TD*%
D31*
%TO.C,C39*%
X23862500Y38500000D03*
X22137500Y38500000D03*
%TD*%
D22*
%TO.C,R12*%
X120300000Y2387500D03*
X120300000Y4212500D03*
%TD*%
D38*
%TO.C,U16*%
X72212000Y17940000D03*
X72212000Y19210000D03*
X72212000Y20480000D03*
X72212000Y21750000D03*
X72212000Y23020000D03*
X72212000Y24290000D03*
X72212000Y25560000D03*
X66788000Y25560000D03*
X66788000Y24290000D03*
X66788000Y23020000D03*
X66788000Y21750000D03*
X66788000Y20480000D03*
X66788000Y19210000D03*
X66788000Y17940000D03*
%TD*%
D12*
%TO.C,R31*%
X6162500Y22500000D03*
X4337500Y22500000D03*
%TD*%
D25*
%TO.C,D1*%
X57950000Y19750000D03*
X56050000Y19750000D03*
X57000000Y16750000D03*
%TD*%
D12*
%TO.C,R17*%
X47662500Y17000000D03*
X45837500Y17000000D03*
%TD*%
D35*
%TO.C,C5*%
X106697394Y55539439D03*
X106697394Y53464439D03*
%TD*%
D12*
%TO.C,R34*%
X6162500Y50000000D03*
X4337500Y50000000D03*
%TD*%
D31*
%TO.C,C17*%
X111112500Y34000000D03*
X109387500Y34000000D03*
%TD*%
D12*
%TO.C,R6*%
X81162500Y37750000D03*
X79337500Y37750000D03*
%TD*%
D11*
%TO.C,R45*%
X42250000Y22162500D03*
X42250000Y20337500D03*
%TD*%
D12*
%TO.C,R33*%
X6162500Y17000000D03*
X4337500Y17000000D03*
%TD*%
D32*
%TO.C,F7*%
X98000000Y35000000D03*
X98000000Y37920000D03*
%TD*%
%TO.C,F2*%
X103500000Y35460000D03*
X103500000Y32540000D03*
%TD*%
D18*
%TO.C,D10*%
X89330000Y51250000D03*
X90170000Y51250000D03*
%TD*%
D12*
%TO.C,R21*%
X47662500Y41750000D03*
X45837500Y41750000D03*
%TD*%
D43*
%TO.C,D4*%
X35300000Y47250000D03*
X37200000Y47250000D03*
X36250000Y50250000D03*
%TD*%
D12*
%TO.C,R2*%
X81162500Y33250000D03*
X79337500Y33250000D03*
%TD*%
D44*
%TO.C,U8*%
X85350000Y17975000D03*
X86300000Y17975000D03*
X87250000Y17975000D03*
X87250000Y20250000D03*
X85350000Y20250000D03*
%TD*%
D21*
%TO.C,C10*%
X119812500Y58050000D03*
X121887500Y58050000D03*
%TD*%
D45*
%TO.C,U6*%
X87380000Y47790000D03*
D46*
X98149172Y45250828D03*
D45*
X87380000Y45250000D03*
X87380000Y42710000D03*
%TD*%
D22*
%TO.C,R50*%
X18500000Y20337500D03*
X18500000Y22162500D03*
%TD*%
D24*
%TO.C,FB3*%
X126250000Y56550000D03*
X123950000Y56550000D03*
%TD*%
D12*
%TO.C,R1*%
X81162500Y30250000D03*
X79337500Y30250000D03*
%TD*%
D20*
%TO.C,C2*%
X66750000Y35362500D03*
X66750000Y33637500D03*
%TD*%
D47*
%TO.C,U3*%
X111950000Y56015000D03*
X111950000Y54745000D03*
X111950000Y53475000D03*
X111950000Y52205000D03*
X111950000Y50935000D03*
X111950000Y49665000D03*
X111950000Y48395000D03*
X111950000Y47125000D03*
X111950000Y45855000D03*
X111950000Y44585000D03*
X121250000Y44585000D03*
X121250000Y45855000D03*
X121250000Y47125000D03*
X121250000Y48395000D03*
X121250000Y49665000D03*
X121250000Y50935000D03*
X121250000Y52205000D03*
X121250000Y53475000D03*
X121250000Y54745000D03*
X121250000Y56015000D03*
%TD*%
D22*
%TO.C,R46*%
X40750000Y20337500D03*
X40750000Y22162500D03*
%TD*%
D48*
%TO.C,C35*%
X83250000Y43712500D03*
X83250000Y45787500D03*
%TD*%
D22*
%TO.C,R48*%
X42238771Y44847256D03*
X42238771Y46672256D03*
%TD*%
D28*
%TO.C,F5*%
X105960000Y18750000D03*
X103040000Y18750000D03*
%TD*%
D11*
%TO.C,R39*%
X63000000Y22162500D03*
X63000000Y20337500D03*
%TD*%
D49*
%TO.C,C18*%
X107050000Y39150000D03*
X112450000Y39150000D03*
%TD*%
D20*
%TO.C,C4*%
X76750000Y37112500D03*
X76750000Y35387500D03*
%TD*%
D18*
%TO.C,D9*%
X71080000Y15750000D03*
X71920000Y15750000D03*
%TD*%
D22*
%TO.C,R42*%
X62988771Y44847256D03*
X62988771Y46672256D03*
%TD*%
D35*
%TO.C,C32*%
X81000000Y19287500D03*
X81000000Y17212500D03*
%TD*%
D12*
%TO.C,R14*%
X47662500Y25250000D03*
X45837500Y25250000D03*
%TD*%
D11*
%TO.C,R49*%
X40738771Y46672256D03*
X40738771Y44847256D03*
%TD*%
D24*
%TO.C,FB4*%
X126250000Y58300000D03*
X123950000Y58300000D03*
%TD*%
D12*
%TO.C,R30*%
X6162500Y25250000D03*
X4337500Y25250000D03*
%TD*%
%TO.C,R9*%
X114912500Y14250000D03*
X113087500Y14250000D03*
%TD*%
%TO.C,R3*%
X81162500Y34750000D03*
X79337500Y34750000D03*
%TD*%
D31*
%TO.C,C1*%
X89862500Y26500000D03*
X88137500Y26500000D03*
%TD*%
D20*
%TO.C,C16*%
X112740000Y19612500D03*
X112740000Y17887500D03*
%TD*%
D11*
%TO.C,R51*%
X21500000Y22162500D03*
X21500000Y20337500D03*
%TD*%
D50*
%TO.C,L2*%
X112450000Y4000000D03*
X108350000Y4000000D03*
%TD*%
D20*
%TO.C,C28*%
X98500000Y18062500D03*
X98500000Y16337500D03*
%TD*%
%TO.C,C7*%
X106500000Y48362500D03*
X106500000Y46637500D03*
%TD*%
D12*
%TO.C,R28*%
X26912500Y44500000D03*
X25087500Y44500000D03*
%TD*%
D22*
%TO.C,R52*%
X20000000Y20337500D03*
X20000000Y22162500D03*
%TD*%
%TO.C,R40*%
X61500000Y20337500D03*
X61500000Y22162500D03*
%TD*%
D18*
%TO.C,D11*%
X84080000Y51250000D03*
X84920000Y51250000D03*
%TD*%
D22*
%TO.C,R38*%
X60000000Y20337500D03*
X60000000Y22162500D03*
%TD*%
D51*
%TO.C,C13*%
X117250000Y37140000D03*
X117250000Y42360000D03*
%TD*%
D29*
%TO.C,R10*%
X116837500Y14250000D03*
X118662500Y14250000D03*
%TD*%
D31*
%TO.C,C11*%
X125962500Y52800000D03*
X124237500Y52800000D03*
%TD*%
D12*
%TO.C,R7*%
X81162500Y28750000D03*
X79337500Y28750000D03*
%TD*%
D43*
%TO.C,D2*%
X56050000Y47250000D03*
X57950000Y47250000D03*
X57000000Y50250000D03*
%TD*%
D21*
%TO.C,C33*%
X77212500Y23250000D03*
X79287500Y23250000D03*
%TD*%
D36*
%TO.C,C20*%
X105000000Y24050000D03*
X105000000Y29450000D03*
%TD*%
D52*
%TO.C,U2*%
X70000000Y30525000D03*
X70500000Y30525000D03*
X71000000Y30525000D03*
X71500000Y30525000D03*
X72000000Y30525000D03*
X72500000Y30525000D03*
X73000000Y30525000D03*
X73500000Y30525000D03*
D53*
X74975000Y32000000D03*
X74975000Y32500000D03*
X74975000Y33000000D03*
X74975000Y33500000D03*
X74975000Y34000000D03*
X74975000Y34500000D03*
X74975000Y35000000D03*
X74975000Y35500000D03*
D52*
X73500000Y36975000D03*
X73000000Y36975000D03*
X72500000Y36975000D03*
X72000000Y36975000D03*
X71500000Y36975000D03*
X71000000Y36975000D03*
X70500000Y36975000D03*
X70000000Y36975000D03*
D53*
X68525000Y35500000D03*
X68525000Y35000000D03*
X68525000Y34500000D03*
X68525000Y34000000D03*
X68525000Y33500000D03*
X68525000Y33000000D03*
X68525000Y32500000D03*
X68525000Y32000000D03*
%TD*%
D49*
%TO.C,C24*%
X104550000Y11500000D03*
X109950000Y11500000D03*
%TD*%
M02*
