%TF.GenerationSoftware,KiCad,Pcbnew,9.0.5*%
%TF.CreationDate,2026-03-23T11:06:28+01:00*%
%TF.ProjectId,UMB,554d422e-6b69-4636-9164-5f7063625858,rev?*%
%TF.SameCoordinates,PX3197500PY8b3c880*%
%TF.FileFunction,Soldermask,Bot*%
%TF.FilePolarity,Negative*%
%FSLAX46Y46*%
G04 Gerber Fmt 4.6, Leading zero omitted, Abs format (unit mm)*
G04 Created by KiCad (PCBNEW 9.0.5) date 2026-03-23 11:06:28*
%MOMM*%
%LPD*%
G01*
G04 APERTURE LIST*
G04 Aperture macros list*
%AMRoundRect*
0 Rectangle with rounded corners*
0 $1 Rounding radius*
0 $2 $3 $4 $5 $6 $7 $8 $9 X,Y pos of 4 corners*
0 Add a 4 corners polygon primitive as box body*
4,1,4,$2,$3,$4,$5,$6,$7,$8,$9,$2,$3,0*
0 Add four circle primitives for the rounded corners*
1,1,$1+$1,$2,$3*
1,1,$1+$1,$4,$5*
1,1,$1+$1,$6,$7*
1,1,$1+$1,$8,$9*
0 Add four rect primitives between the rounded corners*
20,1,$1+$1,$2,$3,$4,$5,0*
20,1,$1+$1,$4,$5,$6,$7,0*
20,1,$1+$1,$6,$7,$8,$9,0*
20,1,$1+$1,$8,$9,$2,$3,0*%
G04 Aperture macros list end*
%ADD10C,1.000000*%
%ADD11R,1.700000X1.700000*%
%ADD12C,1.700000*%
%ADD13C,1.500000*%
%ADD14RoundRect,0.250000X-0.550000X0.550000X-0.550000X-0.550000X0.550000X-0.550000X0.550000X0.550000X0*%
%ADD15C,1.600000*%
%ADD16C,3.600000*%
%ADD17C,6.400000*%
%ADD18R,1.800000X1.800000*%
%ADD19C,1.800000*%
%ADD20C,1.100000*%
G04 APERTURE END LIST*
D10*
%TO.C,TP28*%
X14750000Y22000000D03*
%TD*%
%TO.C,TP11*%
X31750000Y36250000D03*
%TD*%
D11*
%TO.C,J7*%
X58460000Y25000000D03*
D12*
X61000000Y25000000D03*
X63540000Y25000000D03*
%TD*%
D10*
%TO.C,TP19*%
X64750000Y50500000D03*
%TD*%
%TO.C,TP9*%
X64750000Y44800000D03*
%TD*%
%TO.C,TP5*%
X85400000Y25500000D03*
%TD*%
D13*
%TO.C,J26*%
X120900000Y30300000D03*
X120900000Y26700000D03*
D14*
X126900000Y30300000D03*
D15*
X126900000Y26700000D03*
%TD*%
D16*
%TO.C,H1*%
X3750000Y63250000D03*
D17*
X3750000Y63250000D03*
%TD*%
D11*
%TO.C,J4*%
X29975000Y49810000D03*
D12*
X32515000Y49810000D03*
X29975000Y47270000D03*
X32515000Y47270000D03*
X29975000Y44730000D03*
X32515000Y44730000D03*
X29975000Y42190000D03*
X32515000Y42190000D03*
%TD*%
D11*
%TO.C,J9*%
X37710000Y25000000D03*
D12*
X40250000Y25000000D03*
X42790000Y25000000D03*
%TD*%
D18*
%TO.C,J13*%
X48815000Y10615000D03*
D19*
X48815000Y5615000D03*
X52315000Y10615000D03*
X52315000Y5615000D03*
X55815000Y10615000D03*
X55815000Y5615000D03*
X59315000Y10615000D03*
X59315000Y5615000D03*
X62815000Y10615000D03*
X62815000Y5615000D03*
%TD*%
D10*
%TO.C,TP34*%
X64750000Y19250000D03*
%TD*%
D11*
%TO.C,J6*%
X9225000Y49810000D03*
D12*
X11765000Y49810000D03*
X9225000Y47270000D03*
X11765000Y47270000D03*
X9225000Y44730000D03*
X11765000Y44730000D03*
X9225000Y42190000D03*
X11765000Y42190000D03*
%TD*%
D13*
%TO.C,J25*%
X120900000Y40300000D03*
X120900000Y36700000D03*
D14*
X126900000Y40300000D03*
D15*
X126900000Y36700000D03*
%TD*%
D16*
%TO.C,H4*%
X3750000Y3750000D03*
D17*
X3750000Y3750000D03*
%TD*%
D11*
%TO.C,J1*%
X50725000Y24810000D03*
D12*
X53265000Y24810000D03*
X50725000Y22270000D03*
X53265000Y22270000D03*
X50725000Y19730000D03*
X53265000Y19730000D03*
X50725000Y17190000D03*
X53265000Y17190000D03*
%TD*%
D20*
%TO.C,J27*%
X106790000Y59965000D03*
X106790000Y61235000D03*
X108060000Y59965000D03*
X108060000Y61235000D03*
X109330000Y59965000D03*
X109330000Y61235000D03*
X110600000Y59965000D03*
X110600000Y61235000D03*
X111870000Y59965000D03*
X111870000Y61235000D03*
X113140000Y59965000D03*
X113140000Y61235000D03*
X114410000Y59965000D03*
X114410000Y61235000D03*
%TD*%
D10*
%TO.C,TP30*%
X14750000Y45000000D03*
%TD*%
%TO.C,TP21*%
X56250000Y22000000D03*
%TD*%
%TO.C,TP22*%
X56250000Y45000000D03*
%TD*%
%TO.C,TP25*%
X35500000Y22000000D03*
%TD*%
%TO.C,TP4*%
X100000000Y27200000D03*
%TD*%
%TO.C,TP3*%
X84000000Y41750000D03*
%TD*%
D18*
%TO.C,J21*%
X68075000Y10650000D03*
D19*
X68075000Y5650000D03*
X71575000Y10650000D03*
X71575000Y5650000D03*
X75075000Y10650000D03*
X75075000Y5650000D03*
%TD*%
D10*
%TO.C,TP31*%
X16750000Y45000000D03*
%TD*%
D11*
%TO.C,J3*%
X29975000Y24810000D03*
D12*
X32515000Y24810000D03*
X29975000Y22270000D03*
X32515000Y22270000D03*
X29975000Y19730000D03*
X32515000Y19730000D03*
X29975000Y17190000D03*
X32515000Y17190000D03*
%TD*%
D11*
%TO.C,J10*%
X37710000Y42000000D03*
D12*
X40250000Y42000000D03*
X42790000Y42000000D03*
%TD*%
D10*
%TO.C,TP33*%
X74600000Y19300000D03*
%TD*%
%TO.C,TP17*%
X74250000Y40500000D03*
%TD*%
D18*
%TO.C,J15*%
X29565000Y10615000D03*
D19*
X29565000Y5615000D03*
X33065000Y10615000D03*
X33065000Y5615000D03*
X36565000Y10615000D03*
X36565000Y5615000D03*
X40065000Y10615000D03*
X40065000Y5615000D03*
X43565000Y10615000D03*
X43565000Y5615000D03*
%TD*%
D10*
%TO.C,TP20*%
X58250000Y22000000D03*
%TD*%
D18*
%TO.C,J24*%
X74925000Y56350000D03*
D19*
X74925000Y61350000D03*
X71425000Y56350000D03*
X71425000Y61350000D03*
X67925000Y56350000D03*
X67925000Y61350000D03*
%TD*%
D18*
%TO.C,J16*%
X43435000Y56385000D03*
D19*
X43435000Y61385000D03*
X39935000Y56385000D03*
X39935000Y61385000D03*
X36435000Y56385000D03*
X36435000Y61385000D03*
X32935000Y56385000D03*
X32935000Y61385000D03*
X29435000Y56385000D03*
X29435000Y61385000D03*
%TD*%
D11*
%TO.C,J8*%
X58460000Y42000000D03*
D12*
X61000000Y42000000D03*
X63540000Y42000000D03*
%TD*%
D11*
%TO.C,J2*%
X50725000Y49810000D03*
D12*
X53265000Y49810000D03*
X50725000Y47270000D03*
X53265000Y47270000D03*
X50725000Y44730000D03*
X53265000Y44730000D03*
X50725000Y42190000D03*
X53265000Y42190000D03*
%TD*%
D18*
%TO.C,J22*%
X99425000Y56350000D03*
D19*
X99425000Y61350000D03*
X95925000Y56350000D03*
X95925000Y61350000D03*
X92425000Y56350000D03*
X92425000Y61350000D03*
%TD*%
D10*
%TO.C,TP35*%
X74500000Y42500000D03*
%TD*%
%TO.C,TP23*%
X58250000Y45000000D03*
%TD*%
%TO.C,TP1*%
X99000000Y33000000D03*
%TD*%
%TO.C,TP14*%
X75000000Y26750000D03*
%TD*%
%TO.C,TP27*%
X37500000Y45000000D03*
%TD*%
%TO.C,TP7*%
X78250000Y39500000D03*
%TD*%
%TO.C,TP2*%
X109500000Y16500000D03*
%TD*%
D18*
%TO.C,J18*%
X24185000Y56385000D03*
D19*
X24185000Y61385000D03*
X20685000Y56385000D03*
X20685000Y61385000D03*
X17185000Y56385000D03*
X17185000Y61385000D03*
X13685000Y56385000D03*
X13685000Y61385000D03*
X10185000Y56385000D03*
X10185000Y61385000D03*
%TD*%
D10*
%TO.C,TP36*%
X74500000Y48000000D03*
%TD*%
%TO.C,TP8*%
X66600000Y27400000D03*
%TD*%
D11*
%TO.C,J11*%
X16960000Y25000000D03*
D12*
X19500000Y25000000D03*
X22040000Y25000000D03*
%TD*%
D10*
%TO.C,TP13*%
X22250000Y36250000D03*
%TD*%
D18*
%TO.C,J14*%
X62685000Y56385000D03*
D19*
X62685000Y61385000D03*
X59185000Y56385000D03*
X59185000Y61385000D03*
X55685000Y56385000D03*
X55685000Y61385000D03*
X52185000Y56385000D03*
X52185000Y61385000D03*
X48685000Y56385000D03*
X48685000Y61385000D03*
%TD*%
D11*
%TO.C,J12*%
X16960000Y42000000D03*
D12*
X19500000Y42000000D03*
X22040000Y42000000D03*
%TD*%
D16*
%TO.C,H2*%
X125000000Y63250000D03*
D17*
X125000000Y63250000D03*
%TD*%
D10*
%TO.C,TP26*%
X35500000Y45000000D03*
%TD*%
D18*
%TO.C,J20*%
X80325000Y10650000D03*
D19*
X80325000Y5650000D03*
X83825000Y10650000D03*
X83825000Y5650000D03*
X87325000Y10650000D03*
X87325000Y5650000D03*
%TD*%
D18*
%TO.C,J19*%
X92575000Y10650000D03*
D19*
X92575000Y5650000D03*
X96075000Y10650000D03*
X96075000Y5650000D03*
X99575000Y10650000D03*
X99575000Y5650000D03*
%TD*%
D10*
%TO.C,TP32*%
X75000000Y24750000D03*
%TD*%
%TO.C,TP12*%
X22250000Y28500000D03*
%TD*%
%TO.C,TP6*%
X77000000Y27500000D03*
%TD*%
%TO.C,TP15*%
X74500000Y16750000D03*
%TD*%
D16*
%TO.C,H3*%
X125000000Y3750000D03*
D17*
X125000000Y3750000D03*
%TD*%
D10*
%TO.C,TP37*%
X64750000Y47750000D03*
%TD*%
%TO.C,TP16*%
X64700000Y17200000D03*
%TD*%
D18*
%TO.C,J17*%
X10315000Y10615000D03*
D19*
X10315000Y5615000D03*
X13815000Y10615000D03*
X13815000Y5615000D03*
X17315000Y10615000D03*
X17315000Y5615000D03*
X20815000Y10615000D03*
X20815000Y5615000D03*
X24315000Y10615000D03*
X24315000Y5615000D03*
%TD*%
D10*
%TO.C,TP29*%
X16750000Y22000000D03*
%TD*%
D18*
%TO.C,J23*%
X87175000Y56350000D03*
D19*
X87175000Y61350000D03*
X83675000Y56350000D03*
X83675000Y61350000D03*
X80175000Y56350000D03*
X80175000Y61350000D03*
%TD*%
D10*
%TO.C,TP10*%
X31750000Y28500000D03*
%TD*%
%TO.C,TP24*%
X37500000Y22000000D03*
%TD*%
D11*
%TO.C,J5*%
X9225000Y24810000D03*
D12*
X11765000Y24810000D03*
X9225000Y22270000D03*
X11765000Y22270000D03*
X9225000Y19730000D03*
X11765000Y19730000D03*
X9225000Y17190000D03*
X11765000Y17190000D03*
%TD*%
D10*
%TO.C,TP18*%
X74500000Y50500000D03*
%TD*%
M02*
