%TF.GenerationSoftware,KiCad,Pcbnew,10.0.0-rc1.1*%
%TF.CreationDate,2026-03-27T10:32:42+01:00*%
%TF.ProjectId,UNIVERSAL_MEASURMENT_BOARD,554e4956-4552-4534-914c-5f4d45415355,1.8.16*%
%TF.SameCoordinates,Original*%
%TF.FileFunction,Legend,Bot*%
%TF.FilePolarity,Positive*%
%FSLAX46Y46*%
G04 Gerber Fmt 4.6, Leading zero omitted, Abs format (unit mm)*
G04 Created by KiCad (PCBNEW 10.0.0-rc1.1) date 2026-03-27 10:32:42*
%MOMM*%
%LPD*%
G01*
G04 APERTURE LIST*
%ADD10C,0.150000*%
%ADD11C,0.200000*%
%ADD12C,0.120000*%
G04 APERTURE END LIST*
D10*
X77930626Y-36746591D02*
X77930626Y-35096591D01*
X77930626Y-34496591D02*
X77930626Y-34466591D01*
X77930626Y-33866591D02*
X77930626Y-32216591D01*
X77930626Y-36746591D02*
X79580626Y-36746591D01*
X80180626Y-36746591D02*
X80210626Y-36746591D01*
X80810626Y-36746591D02*
X82460626Y-36746591D01*
X83060626Y-36746591D02*
X83090626Y-36746591D01*
X83690626Y-36746591D02*
X85340626Y-36746591D01*
X85940626Y-36746591D02*
X85970626Y-36746591D01*
X86570626Y-36746591D02*
X88220626Y-36746591D01*
X88820626Y-36746591D02*
X88850626Y-36746591D01*
X89450626Y-36746591D02*
X91100626Y-36746591D01*
X91700626Y-36746591D02*
X91730626Y-36746591D01*
X92330626Y-36746591D02*
X93980626Y-36746591D01*
X94580626Y-36746591D02*
X94610626Y-36746591D01*
X95210626Y-36746591D02*
X96860626Y-36746591D01*
X97460626Y-36746591D02*
X97490626Y-36746591D01*
X80545270Y-21003583D02*
X80545270Y-22653583D01*
X80545270Y-23253583D02*
X80545270Y-23283583D01*
X80545270Y-23883583D02*
X80545270Y-25533583D01*
X80545270Y-26133583D02*
X80545270Y-26163583D01*
X80545270Y-26763583D02*
X80545270Y-28413583D01*
X80545270Y-29013583D02*
X80545270Y-29043583D01*
X80545270Y-29643583D02*
X80545270Y-31293583D01*
X80545270Y-31778583D02*
X78895270Y-31778583D01*
X78295270Y-31778583D02*
X78265270Y-31778583D01*
X97920270Y-36746591D02*
X97920270Y-35096591D01*
X97920270Y-34496591D02*
X97920270Y-34466591D01*
X97920270Y-33866591D02*
X97920270Y-32216591D01*
X97920270Y-31616591D02*
X97920270Y-31586591D01*
X97920270Y-30986591D02*
X97920270Y-29336591D01*
X97920270Y-28736591D02*
X97920270Y-28706591D01*
X97920270Y-28106591D02*
X97920270Y-26456591D01*
X97920270Y-25856591D02*
X97920270Y-25826591D01*
X97920270Y-25226591D02*
X97920270Y-23576591D01*
X97920270Y-22976591D02*
X97920270Y-22946591D01*
X97920270Y-22346591D02*
X97920270Y-21003583D01*
D11*
X97331936Y-36098810D02*
X97331936Y-35098810D01*
X96903365Y-36051191D02*
X96760508Y-36098810D01*
X96760508Y-36098810D02*
X96522413Y-36098810D01*
X96522413Y-36098810D02*
X96427175Y-36051191D01*
X96427175Y-36051191D02*
X96379556Y-36003571D01*
X96379556Y-36003571D02*
X96331937Y-35908333D01*
X96331937Y-35908333D02*
X96331937Y-35813095D01*
X96331937Y-35813095D02*
X96379556Y-35717857D01*
X96379556Y-35717857D02*
X96427175Y-35670238D01*
X96427175Y-35670238D02*
X96522413Y-35622619D01*
X96522413Y-35622619D02*
X96712889Y-35575000D01*
X96712889Y-35575000D02*
X96808127Y-35527381D01*
X96808127Y-35527381D02*
X96855746Y-35479762D01*
X96855746Y-35479762D02*
X96903365Y-35384524D01*
X96903365Y-35384524D02*
X96903365Y-35289286D01*
X96903365Y-35289286D02*
X96855746Y-35194048D01*
X96855746Y-35194048D02*
X96808127Y-35146429D01*
X96808127Y-35146429D02*
X96712889Y-35098810D01*
X96712889Y-35098810D02*
X96474794Y-35098810D01*
X96474794Y-35098810D02*
X96331937Y-35146429D01*
X95712889Y-35098810D02*
X95522413Y-35098810D01*
X95522413Y-35098810D02*
X95427175Y-35146429D01*
X95427175Y-35146429D02*
X95331937Y-35241667D01*
X95331937Y-35241667D02*
X95284318Y-35432143D01*
X95284318Y-35432143D02*
X95284318Y-35765476D01*
X95284318Y-35765476D02*
X95331937Y-35955952D01*
X95331937Y-35955952D02*
X95427175Y-36051191D01*
X95427175Y-36051191D02*
X95522413Y-36098810D01*
X95522413Y-36098810D02*
X95712889Y-36098810D01*
X95712889Y-36098810D02*
X95808127Y-36051191D01*
X95808127Y-36051191D02*
X95903365Y-35955952D01*
X95903365Y-35955952D02*
X95950984Y-35765476D01*
X95950984Y-35765476D02*
X95950984Y-35432143D01*
X95950984Y-35432143D02*
X95903365Y-35241667D01*
X95903365Y-35241667D02*
X95808127Y-35146429D01*
X95808127Y-35146429D02*
X95712889Y-35098810D01*
X94379556Y-36098810D02*
X94855746Y-36098810D01*
X94855746Y-36098810D02*
X94855746Y-35098810D01*
X94093841Y-35813095D02*
X93617651Y-35813095D01*
X94189079Y-36098810D02*
X93855746Y-35098810D01*
X93855746Y-35098810D02*
X93522413Y-36098810D01*
X93331936Y-35098810D02*
X92760508Y-35098810D01*
X93046222Y-36098810D02*
X93046222Y-35098810D01*
X92427174Y-35575000D02*
X92093841Y-35575000D01*
X91950984Y-36098810D02*
X92427174Y-36098810D01*
X92427174Y-36098810D02*
X92427174Y-35098810D01*
X92427174Y-35098810D02*
X91950984Y-35098810D01*
X91522412Y-36098810D02*
X91522412Y-35098810D01*
X91522412Y-35098810D02*
X91284317Y-35098810D01*
X91284317Y-35098810D02*
X91141460Y-35146429D01*
X91141460Y-35146429D02*
X91046222Y-35241667D01*
X91046222Y-35241667D02*
X90998603Y-35336905D01*
X90998603Y-35336905D02*
X90950984Y-35527381D01*
X90950984Y-35527381D02*
X90950984Y-35670238D01*
X90950984Y-35670238D02*
X90998603Y-35860714D01*
X90998603Y-35860714D02*
X91046222Y-35955952D01*
X91046222Y-35955952D02*
X91141460Y-36051191D01*
X91141460Y-36051191D02*
X91284317Y-36098810D01*
X91284317Y-36098810D02*
X91522412Y-36098810D01*
D12*
X114037412Y-45714914D02*
X113694555Y-45714914D01*
X113865983Y-46314914D02*
X113865983Y-45714914D01*
X113494554Y-46314914D02*
X113494554Y-45714914D01*
X113494554Y-45714914D02*
X113265983Y-45714914D01*
X113265983Y-45714914D02*
X113208840Y-45743485D01*
X113208840Y-45743485D02*
X113180269Y-45772057D01*
X113180269Y-45772057D02*
X113151697Y-45829200D01*
X113151697Y-45829200D02*
X113151697Y-45914914D01*
X113151697Y-45914914D02*
X113180269Y-45972057D01*
X113180269Y-45972057D02*
X113208840Y-46000628D01*
X113208840Y-46000628D02*
X113265983Y-46029200D01*
X113265983Y-46029200D02*
X113494554Y-46029200D01*
X112923126Y-45772057D02*
X112894554Y-45743485D01*
X112894554Y-45743485D02*
X112837412Y-45714914D01*
X112837412Y-45714914D02*
X112694554Y-45714914D01*
X112694554Y-45714914D02*
X112637412Y-45743485D01*
X112637412Y-45743485D02*
X112608840Y-45772057D01*
X112608840Y-45772057D02*
X112580269Y-45829200D01*
X112580269Y-45829200D02*
X112580269Y-45886343D01*
X112580269Y-45886343D02*
X112608840Y-45972057D01*
X112608840Y-45972057D02*
X112951697Y-46314914D01*
X112951697Y-46314914D02*
X112580269Y-46314914D01*
X65302360Y-47198937D02*
X64959503Y-47198937D01*
X65130931Y-47798937D02*
X65130931Y-47198937D01*
X64759502Y-47798937D02*
X64759502Y-47198937D01*
X64759502Y-47198937D02*
X64530931Y-47198937D01*
X64530931Y-47198937D02*
X64473788Y-47227508D01*
X64473788Y-47227508D02*
X64445217Y-47256080D01*
X64445217Y-47256080D02*
X64416645Y-47313223D01*
X64416645Y-47313223D02*
X64416645Y-47398937D01*
X64416645Y-47398937D02*
X64445217Y-47456080D01*
X64445217Y-47456080D02*
X64473788Y-47484651D01*
X64473788Y-47484651D02*
X64530931Y-47513223D01*
X64530931Y-47513223D02*
X64759502Y-47513223D01*
X64216645Y-47198937D02*
X63816645Y-47198937D01*
X63816645Y-47198937D02*
X64073788Y-47798937D01*
X102501127Y-56174914D02*
X102158270Y-56174914D01*
X102329698Y-56774914D02*
X102329698Y-56174914D01*
X101958269Y-56774914D02*
X101958269Y-56174914D01*
X101958269Y-56174914D02*
X101729698Y-56174914D01*
X101729698Y-56174914D02*
X101672555Y-56203485D01*
X101672555Y-56203485D02*
X101643984Y-56232057D01*
X101643984Y-56232057D02*
X101615412Y-56289200D01*
X101615412Y-56289200D02*
X101615412Y-56374914D01*
X101615412Y-56374914D02*
X101643984Y-56432057D01*
X101643984Y-56432057D02*
X101672555Y-56460628D01*
X101672555Y-56460628D02*
X101729698Y-56489200D01*
X101729698Y-56489200D02*
X101958269Y-56489200D01*
X101043984Y-56774914D02*
X101386841Y-56774914D01*
X101215412Y-56774914D02*
X101215412Y-56174914D01*
X101215412Y-56174914D02*
X101272555Y-56260628D01*
X101272555Y-56260628D02*
X101329698Y-56317771D01*
X101329698Y-56317771D02*
X101386841Y-56346343D01*
X100672555Y-56174914D02*
X100615412Y-56174914D01*
X100615412Y-56174914D02*
X100558269Y-56203485D01*
X100558269Y-56203485D02*
X100529698Y-56232057D01*
X100529698Y-56232057D02*
X100501126Y-56289200D01*
X100501126Y-56289200D02*
X100472555Y-56403485D01*
X100472555Y-56403485D02*
X100472555Y-56546343D01*
X100472555Y-56546343D02*
X100501126Y-56660628D01*
X100501126Y-56660628D02*
X100529698Y-56717771D01*
X100529698Y-56717771D02*
X100558269Y-56746343D01*
X100558269Y-56746343D02*
X100615412Y-56774914D01*
X100615412Y-56774914D02*
X100672555Y-56774914D01*
X100672555Y-56774914D02*
X100729698Y-56746343D01*
X100729698Y-56746343D02*
X100758269Y-56717771D01*
X100758269Y-56717771D02*
X100786840Y-56660628D01*
X100786840Y-56660628D02*
X100815412Y-56546343D01*
X100815412Y-56546343D02*
X100815412Y-56403485D01*
X100815412Y-56403485D02*
X100786840Y-56289200D01*
X100786840Y-56289200D02*
X100758269Y-56232057D01*
X100758269Y-56232057D02*
X100729698Y-56203485D01*
X100729698Y-56203485D02*
X100672555Y-56174914D01*
X62752133Y-61818802D02*
X62409276Y-61818802D01*
X62580704Y-62418802D02*
X62580704Y-61818802D01*
X62209275Y-62418802D02*
X62209275Y-61818802D01*
X62209275Y-61818802D02*
X61980704Y-61818802D01*
X61980704Y-61818802D02*
X61923561Y-61847373D01*
X61923561Y-61847373D02*
X61894990Y-61875945D01*
X61894990Y-61875945D02*
X61866418Y-61933088D01*
X61866418Y-61933088D02*
X61866418Y-62018802D01*
X61866418Y-62018802D02*
X61894990Y-62075945D01*
X61894990Y-62075945D02*
X61923561Y-62104516D01*
X61923561Y-62104516D02*
X61980704Y-62133088D01*
X61980704Y-62133088D02*
X62209275Y-62133088D01*
X61294990Y-62418802D02*
X61637847Y-62418802D01*
X61466418Y-62418802D02*
X61466418Y-61818802D01*
X61466418Y-61818802D02*
X61523561Y-61904516D01*
X61523561Y-61904516D02*
X61580704Y-61961659D01*
X61580704Y-61961659D02*
X61637847Y-61990231D01*
X61066418Y-61875945D02*
X61037846Y-61847373D01*
X61037846Y-61847373D02*
X60980704Y-61818802D01*
X60980704Y-61818802D02*
X60837846Y-61818802D01*
X60837846Y-61818802D02*
X60780704Y-61847373D01*
X60780704Y-61847373D02*
X60752132Y-61875945D01*
X60752132Y-61875945D02*
X60723561Y-61933088D01*
X60723561Y-61933088D02*
X60723561Y-61990231D01*
X60723561Y-61990231D02*
X60752132Y-62075945D01*
X60752132Y-62075945D02*
X61094989Y-62418802D01*
X61094989Y-62418802D02*
X60723561Y-62418802D01*
X90580627Y-28409914D02*
X90237770Y-28409914D01*
X90409198Y-29009914D02*
X90409198Y-28409914D01*
X90037769Y-29009914D02*
X90037769Y-28409914D01*
X90037769Y-28409914D02*
X89809198Y-28409914D01*
X89809198Y-28409914D02*
X89752055Y-28438485D01*
X89752055Y-28438485D02*
X89723484Y-28467057D01*
X89723484Y-28467057D02*
X89694912Y-28524200D01*
X89694912Y-28524200D02*
X89694912Y-28609914D01*
X89694912Y-28609914D02*
X89723484Y-28667057D01*
X89723484Y-28667057D02*
X89752055Y-28695628D01*
X89752055Y-28695628D02*
X89809198Y-28724200D01*
X89809198Y-28724200D02*
X90037769Y-28724200D01*
X89123484Y-29009914D02*
X89466341Y-29009914D01*
X89294912Y-29009914D02*
X89294912Y-28409914D01*
X89294912Y-28409914D02*
X89352055Y-28495628D01*
X89352055Y-28495628D02*
X89409198Y-28552771D01*
X89409198Y-28552771D02*
X89466341Y-28581343D01*
X88580626Y-28409914D02*
X88866340Y-28409914D01*
X88866340Y-28409914D02*
X88894912Y-28695628D01*
X88894912Y-28695628D02*
X88866340Y-28667057D01*
X88866340Y-28667057D02*
X88809198Y-28638485D01*
X88809198Y-28638485D02*
X88666340Y-28638485D01*
X88666340Y-28638485D02*
X88609198Y-28667057D01*
X88609198Y-28667057D02*
X88580626Y-28695628D01*
X88580626Y-28695628D02*
X88552055Y-28752771D01*
X88552055Y-28752771D02*
X88552055Y-28895628D01*
X88552055Y-28895628D02*
X88580626Y-28952771D01*
X88580626Y-28952771D02*
X88609198Y-28981343D01*
X88609198Y-28981343D02*
X88666340Y-29009914D01*
X88666340Y-29009914D02*
X88809198Y-29009914D01*
X88809198Y-29009914D02*
X88866340Y-28981343D01*
X88866340Y-28981343D02*
X88894912Y-28952771D01*
X61887413Y-30754914D02*
X61544556Y-30754914D01*
X61715984Y-31354914D02*
X61715984Y-30754914D01*
X61344555Y-31354914D02*
X61344555Y-30754914D01*
X61344555Y-30754914D02*
X61115984Y-30754914D01*
X61115984Y-30754914D02*
X61058841Y-30783485D01*
X61058841Y-30783485D02*
X61030270Y-30812057D01*
X61030270Y-30812057D02*
X61001698Y-30869200D01*
X61001698Y-30869200D02*
X61001698Y-30954914D01*
X61001698Y-30954914D02*
X61030270Y-31012057D01*
X61030270Y-31012057D02*
X61058841Y-31040628D01*
X61058841Y-31040628D02*
X61115984Y-31069200D01*
X61115984Y-31069200D02*
X61344555Y-31069200D01*
X60430270Y-31354914D02*
X60773127Y-31354914D01*
X60601698Y-31354914D02*
X60601698Y-30754914D01*
X60601698Y-30754914D02*
X60658841Y-30840628D01*
X60658841Y-30840628D02*
X60715984Y-30897771D01*
X60715984Y-30897771D02*
X60773127Y-30926343D01*
X104167413Y-52764914D02*
X103824556Y-52764914D01*
X103995984Y-53364914D02*
X103995984Y-52764914D01*
X103624555Y-53364914D02*
X103624555Y-52764914D01*
X103624555Y-52764914D02*
X103395984Y-52764914D01*
X103395984Y-52764914D02*
X103338841Y-52793485D01*
X103338841Y-52793485D02*
X103310270Y-52822057D01*
X103310270Y-52822057D02*
X103281698Y-52879200D01*
X103281698Y-52879200D02*
X103281698Y-52964914D01*
X103281698Y-52964914D02*
X103310270Y-53022057D01*
X103310270Y-53022057D02*
X103338841Y-53050628D01*
X103338841Y-53050628D02*
X103395984Y-53079200D01*
X103395984Y-53079200D02*
X103624555Y-53079200D01*
X102767413Y-52964914D02*
X102767413Y-53364914D01*
X102910270Y-52736343D02*
X103053127Y-53164914D01*
X103053127Y-53164914D02*
X102681698Y-53164914D01*
X57543330Y-64140140D02*
X57200473Y-64140140D01*
X57371901Y-64740140D02*
X57371901Y-64140140D01*
X57000472Y-64740140D02*
X57000472Y-64140140D01*
X57000472Y-64140140D02*
X56771901Y-64140140D01*
X56771901Y-64140140D02*
X56714758Y-64168711D01*
X56714758Y-64168711D02*
X56686187Y-64197283D01*
X56686187Y-64197283D02*
X56657615Y-64254426D01*
X56657615Y-64254426D02*
X56657615Y-64340140D01*
X56657615Y-64340140D02*
X56686187Y-64397283D01*
X56686187Y-64397283D02*
X56714758Y-64425854D01*
X56714758Y-64425854D02*
X56771901Y-64454426D01*
X56771901Y-64454426D02*
X57000472Y-64454426D01*
X56086187Y-64740140D02*
X56429044Y-64740140D01*
X56257615Y-64740140D02*
X56257615Y-64140140D01*
X56257615Y-64140140D02*
X56314758Y-64225854D01*
X56314758Y-64225854D02*
X56371901Y-64282997D01*
X56371901Y-64282997D02*
X56429044Y-64311569D01*
X55514758Y-64740140D02*
X55857615Y-64740140D01*
X55686186Y-64740140D02*
X55686186Y-64140140D01*
X55686186Y-64140140D02*
X55743329Y-64225854D01*
X55743329Y-64225854D02*
X55800472Y-64282997D01*
X55800472Y-64282997D02*
X55857615Y-64311569D01*
X54073006Y-47523903D02*
X53730149Y-47523903D01*
X53901577Y-48123903D02*
X53901577Y-47523903D01*
X53530148Y-48123903D02*
X53530148Y-47523903D01*
X53530148Y-47523903D02*
X53301577Y-47523903D01*
X53301577Y-47523903D02*
X53244434Y-47552474D01*
X53244434Y-47552474D02*
X53215863Y-47581046D01*
X53215863Y-47581046D02*
X53187291Y-47638189D01*
X53187291Y-47638189D02*
X53187291Y-47723903D01*
X53187291Y-47723903D02*
X53215863Y-47781046D01*
X53215863Y-47781046D02*
X53244434Y-47809617D01*
X53244434Y-47809617D02*
X53301577Y-47838189D01*
X53301577Y-47838189D02*
X53530148Y-47838189D01*
X52673006Y-47523903D02*
X52787291Y-47523903D01*
X52787291Y-47523903D02*
X52844434Y-47552474D01*
X52844434Y-47552474D02*
X52873006Y-47581046D01*
X52873006Y-47581046D02*
X52930148Y-47666760D01*
X52930148Y-47666760D02*
X52958720Y-47781046D01*
X52958720Y-47781046D02*
X52958720Y-48009617D01*
X52958720Y-48009617D02*
X52930148Y-48066760D01*
X52930148Y-48066760D02*
X52901577Y-48095332D01*
X52901577Y-48095332D02*
X52844434Y-48123903D01*
X52844434Y-48123903D02*
X52730148Y-48123903D01*
X52730148Y-48123903D02*
X52673006Y-48095332D01*
X52673006Y-48095332D02*
X52644434Y-48066760D01*
X52644434Y-48066760D02*
X52615863Y-48009617D01*
X52615863Y-48009617D02*
X52615863Y-47866760D01*
X52615863Y-47866760D02*
X52644434Y-47809617D01*
X52644434Y-47809617D02*
X52673006Y-47781046D01*
X52673006Y-47781046D02*
X52730148Y-47752474D01*
X52730148Y-47752474D02*
X52844434Y-47752474D01*
X52844434Y-47752474D02*
X52901577Y-47781046D01*
X52901577Y-47781046D02*
X52930148Y-47809617D01*
X52930148Y-47809617D02*
X52958720Y-47866760D01*
X64267413Y-42634914D02*
X63924556Y-42634914D01*
X64095984Y-43234914D02*
X64095984Y-42634914D01*
X63724555Y-43234914D02*
X63724555Y-42634914D01*
X63724555Y-42634914D02*
X63495984Y-42634914D01*
X63495984Y-42634914D02*
X63438841Y-42663485D01*
X63438841Y-42663485D02*
X63410270Y-42692057D01*
X63410270Y-42692057D02*
X63381698Y-42749200D01*
X63381698Y-42749200D02*
X63381698Y-42834914D01*
X63381698Y-42834914D02*
X63410270Y-42892057D01*
X63410270Y-42892057D02*
X63438841Y-42920628D01*
X63438841Y-42920628D02*
X63495984Y-42949200D01*
X63495984Y-42949200D02*
X63724555Y-42949200D01*
X63181698Y-42634914D02*
X62810270Y-42634914D01*
X62810270Y-42634914D02*
X63010270Y-42863485D01*
X63010270Y-42863485D02*
X62924555Y-42863485D01*
X62924555Y-42863485D02*
X62867413Y-42892057D01*
X62867413Y-42892057D02*
X62838841Y-42920628D01*
X62838841Y-42920628D02*
X62810270Y-42977771D01*
X62810270Y-42977771D02*
X62810270Y-43120628D01*
X62810270Y-43120628D02*
X62838841Y-43177771D01*
X62838841Y-43177771D02*
X62867413Y-43206343D01*
X62867413Y-43206343D02*
X62924555Y-43234914D01*
X62924555Y-43234914D02*
X63095984Y-43234914D01*
X63095984Y-43234914D02*
X63153127Y-43206343D01*
X63153127Y-43206343D02*
X63181698Y-43177771D01*
X54068891Y-64123048D02*
X53726034Y-64123048D01*
X53897462Y-64723048D02*
X53897462Y-64123048D01*
X53526033Y-64723048D02*
X53526033Y-64123048D01*
X53526033Y-64123048D02*
X53297462Y-64123048D01*
X53297462Y-64123048D02*
X53240319Y-64151619D01*
X53240319Y-64151619D02*
X53211748Y-64180191D01*
X53211748Y-64180191D02*
X53183176Y-64237334D01*
X53183176Y-64237334D02*
X53183176Y-64323048D01*
X53183176Y-64323048D02*
X53211748Y-64380191D01*
X53211748Y-64380191D02*
X53240319Y-64408762D01*
X53240319Y-64408762D02*
X53297462Y-64437334D01*
X53297462Y-64437334D02*
X53526033Y-64437334D01*
X52640319Y-64123048D02*
X52926033Y-64123048D01*
X52926033Y-64123048D02*
X52954605Y-64408762D01*
X52954605Y-64408762D02*
X52926033Y-64380191D01*
X52926033Y-64380191D02*
X52868891Y-64351619D01*
X52868891Y-64351619D02*
X52726033Y-64351619D01*
X52726033Y-64351619D02*
X52668891Y-64380191D01*
X52668891Y-64380191D02*
X52640319Y-64408762D01*
X52640319Y-64408762D02*
X52611748Y-64465905D01*
X52611748Y-64465905D02*
X52611748Y-64608762D01*
X52611748Y-64608762D02*
X52640319Y-64665905D01*
X52640319Y-64665905D02*
X52668891Y-64694477D01*
X52668891Y-64694477D02*
X52726033Y-64723048D01*
X52726033Y-64723048D02*
X52868891Y-64723048D01*
X52868891Y-64723048D02*
X52926033Y-64694477D01*
X52926033Y-64694477D02*
X52954605Y-64665905D01*
X81302213Y-47213235D02*
X80959356Y-47213235D01*
X81130784Y-47813235D02*
X81130784Y-47213235D01*
X80759355Y-47813235D02*
X80759355Y-47213235D01*
X80759355Y-47213235D02*
X80530784Y-47213235D01*
X80530784Y-47213235D02*
X80473641Y-47241806D01*
X80473641Y-47241806D02*
X80445070Y-47270378D01*
X80445070Y-47270378D02*
X80416498Y-47327521D01*
X80416498Y-47327521D02*
X80416498Y-47413235D01*
X80416498Y-47413235D02*
X80445070Y-47470378D01*
X80445070Y-47470378D02*
X80473641Y-47498949D01*
X80473641Y-47498949D02*
X80530784Y-47527521D01*
X80530784Y-47527521D02*
X80759355Y-47527521D01*
X80073641Y-47470378D02*
X80130784Y-47441806D01*
X80130784Y-47441806D02*
X80159355Y-47413235D01*
X80159355Y-47413235D02*
X80187927Y-47356092D01*
X80187927Y-47356092D02*
X80187927Y-47327521D01*
X80187927Y-47327521D02*
X80159355Y-47270378D01*
X80159355Y-47270378D02*
X80130784Y-47241806D01*
X80130784Y-47241806D02*
X80073641Y-47213235D01*
X80073641Y-47213235D02*
X79959355Y-47213235D01*
X79959355Y-47213235D02*
X79902213Y-47241806D01*
X79902213Y-47241806D02*
X79873641Y-47270378D01*
X79873641Y-47270378D02*
X79845070Y-47327521D01*
X79845070Y-47327521D02*
X79845070Y-47356092D01*
X79845070Y-47356092D02*
X79873641Y-47413235D01*
X79873641Y-47413235D02*
X79902213Y-47441806D01*
X79902213Y-47441806D02*
X79959355Y-47470378D01*
X79959355Y-47470378D02*
X80073641Y-47470378D01*
X80073641Y-47470378D02*
X80130784Y-47498949D01*
X80130784Y-47498949D02*
X80159355Y-47527521D01*
X80159355Y-47527521D02*
X80187927Y-47584664D01*
X80187927Y-47584664D02*
X80187927Y-47698949D01*
X80187927Y-47698949D02*
X80159355Y-47756092D01*
X80159355Y-47756092D02*
X80130784Y-47784664D01*
X80130784Y-47784664D02*
X80073641Y-47813235D01*
X80073641Y-47813235D02*
X79959355Y-47813235D01*
X79959355Y-47813235D02*
X79902213Y-47784664D01*
X79902213Y-47784664D02*
X79873641Y-47756092D01*
X79873641Y-47756092D02*
X79845070Y-47698949D01*
X79845070Y-47698949D02*
X79845070Y-47584664D01*
X79845070Y-47584664D02*
X79873641Y-47527521D01*
X79873641Y-47527521D02*
X79902213Y-47498949D01*
X79902213Y-47498949D02*
X79959355Y-47470378D01*
X98599413Y-62674914D02*
X98256556Y-62674914D01*
X98427984Y-63274914D02*
X98427984Y-62674914D01*
X98056555Y-63274914D02*
X98056555Y-62674914D01*
X98056555Y-62674914D02*
X97827984Y-62674914D01*
X97827984Y-62674914D02*
X97770841Y-62703485D01*
X97770841Y-62703485D02*
X97742270Y-62732057D01*
X97742270Y-62732057D02*
X97713698Y-62789200D01*
X97713698Y-62789200D02*
X97713698Y-62874914D01*
X97713698Y-62874914D02*
X97742270Y-62932057D01*
X97742270Y-62932057D02*
X97770841Y-62960628D01*
X97770841Y-62960628D02*
X97827984Y-62989200D01*
X97827984Y-62989200D02*
X98056555Y-62989200D01*
X97427984Y-63274914D02*
X97313698Y-63274914D01*
X97313698Y-63274914D02*
X97256555Y-63246343D01*
X97256555Y-63246343D02*
X97227984Y-63217771D01*
X97227984Y-63217771D02*
X97170841Y-63132057D01*
X97170841Y-63132057D02*
X97142270Y-63017771D01*
X97142270Y-63017771D02*
X97142270Y-62789200D01*
X97142270Y-62789200D02*
X97170841Y-62732057D01*
X97170841Y-62732057D02*
X97199413Y-62703485D01*
X97199413Y-62703485D02*
X97256555Y-62674914D01*
X97256555Y-62674914D02*
X97370841Y-62674914D01*
X97370841Y-62674914D02*
X97427984Y-62703485D01*
X97427984Y-62703485D02*
X97456555Y-62732057D01*
X97456555Y-62732057D02*
X97485127Y-62789200D01*
X97485127Y-62789200D02*
X97485127Y-62932057D01*
X97485127Y-62932057D02*
X97456555Y-62989200D01*
X97456555Y-62989200D02*
X97427984Y-63017771D01*
X97427984Y-63017771D02*
X97370841Y-63046343D01*
X97370841Y-63046343D02*
X97256555Y-63046343D01*
X97256555Y-63046343D02*
X97199413Y-63017771D01*
X97199413Y-63017771D02*
X97170841Y-62989200D01*
X97170841Y-62989200D02*
X97142270Y-62932057D01*
%TO.C,TP2*%
X114230269Y-47543583D02*
G75*
G02*
X112330269Y-47543583I-950000J0D01*
G01*
X112330269Y-47543583D02*
G75*
G02*
X114230269Y-47543583I950000J0D01*
G01*
%TO.C,TP7*%
X65495217Y-49027606D02*
G75*
G02*
X63595217Y-49027606I-950000J0D01*
G01*
X63595217Y-49027606D02*
G75*
G02*
X65495217Y-49027606I950000J0D01*
G01*
%TO.C,TP10*%
X102408270Y-58003583D02*
G75*
G02*
X100508270Y-58003583I-950000J0D01*
G01*
X100508270Y-58003583D02*
G75*
G02*
X102408270Y-58003583I950000J0D01*
G01*
%TO.C,TP12*%
X62659276Y-63647471D02*
G75*
G02*
X60759276Y-63647471I-950000J0D01*
G01*
X60759276Y-63647471D02*
G75*
G02*
X62659276Y-63647471I950000J0D01*
G01*
%TO.C,TP15*%
X90487770Y-30238583D02*
G75*
G02*
X88587770Y-30238583I-950000J0D01*
G01*
X88587770Y-30238583D02*
G75*
G02*
X90487770Y-30238583I950000J0D01*
G01*
%TO.C,TP1*%
X62080270Y-32583583D02*
G75*
G02*
X60180270Y-32583583I-950000J0D01*
G01*
X60180270Y-32583583D02*
G75*
G02*
X62080270Y-32583583I950000J0D01*
G01*
%TO.C,TP4*%
X104360270Y-54593583D02*
G75*
G02*
X102460270Y-54593583I-950000J0D01*
G01*
X102460270Y-54593583D02*
G75*
G02*
X104360270Y-54593583I950000J0D01*
G01*
%TO.C,TP11*%
X57465032Y-65952527D02*
G75*
G02*
X55565032Y-65952527I-950000J0D01*
G01*
X55565032Y-65952527D02*
G75*
G02*
X57465032Y-65952527I950000J0D01*
G01*
%TO.C,TP6*%
X54265863Y-49352572D02*
G75*
G02*
X52365863Y-49352572I-950000J0D01*
G01*
X52365863Y-49352572D02*
G75*
G02*
X54265863Y-49352572I950000J0D01*
G01*
%TO.C,TP3*%
X64460270Y-44463583D02*
G75*
G02*
X62560270Y-44463583I-950000J0D01*
G01*
X62560270Y-44463583D02*
G75*
G02*
X64460270Y-44463583I950000J0D01*
G01*
%TO.C,TP5*%
X54261748Y-65951717D02*
G75*
G02*
X52361748Y-65951717I-950000J0D01*
G01*
X52361748Y-65951717D02*
G75*
G02*
X54261748Y-65951717I950000J0D01*
G01*
%TO.C,TP8*%
X81495070Y-49041904D02*
G75*
G02*
X79595070Y-49041904I-950000J0D01*
G01*
X79595070Y-49041904D02*
G75*
G02*
X81495070Y-49041904I950000J0D01*
G01*
%TO.C,TP9*%
X98792270Y-64503583D02*
G75*
G02*
X96892270Y-64503583I-950000J0D01*
G01*
X96892270Y-64503583D02*
G75*
G02*
X98792270Y-64503583I950000J0D01*
G01*
%TD*%
M02*
