%TF.GenerationSoftware,KiCad,Pcbnew,10.0.0-rc1.1*%
%TF.CreationDate,2026-03-27T10:32:42+01:00*%
%TF.ProjectId,UNIVERSAL_MEASURMENT_BOARD,554e4956-4552-4534-914c-5f4d45415355,1.8.16*%
%TF.SameCoordinates,Original*%
%TF.FileFunction,Soldermask,Bot*%
%TF.FilePolarity,Negative*%
%FSLAX46Y46*%
G04 Gerber Fmt 4.6, Leading zero omitted, Abs format (unit mm)*
G04 Created by KiCad (PCBNEW 10.0.0-rc1.1) date 2026-03-27 10:32:42*
%MOMM*%
%LPD*%
G01*
G04 APERTURE LIST*
G04 Aperture macros list*
%AMRoundRect*
0 Rectangle with rounded corners*
0 $1 Rounding radius*
0 $2 $3 $4 $5 $6 $7 $8 $9 X,Y pos of 4 corners*
0 Add a 4 corners polygon primitive as box body*
4,1,4,$2,$3,$4,$5,$6,$7,$8,$9,$2,$3,0*
0 Add four circle primitives for the rounded corners*
1,1,$1+$1,$2,$3*
1,1,$1+$1,$4,$5*
1,1,$1+$1,$6,$7*
1,1,$1+$1,$8,$9*
0 Add four rect primitives between the rounded corners*
20,1,$1+$1,$2,$3,$4,$5,0*
20,1,$1+$1,$4,$5,$6,$7,0*
20,1,$1+$1,$6,$7,$8,$9,0*
20,1,$1+$1,$8,$9,$2,$3,0*%
G04 Aperture macros list end*
%ADD10C,0.000000*%
%ADD11C,0.800000*%
%ADD12C,6.400000*%
%ADD13R,1.800000X1.800000*%
%ADD14C,1.800000*%
%ADD15C,1.500000*%
%ADD16RoundRect,0.250000X-0.550000X-0.550000X0.550000X-0.550000X0.550000X0.550000X-0.550000X0.550000X0*%
%ADD17C,1.150000*%
G04 APERTURE END LIST*
D10*
G36*
X73312705Y-149517527D02*
G01*
X72695346Y-149517527D01*
X73139844Y-150949802D01*
X72695346Y-150949802D01*
X72390862Y-149962026D01*
X72327738Y-149756723D01*
X72308158Y-149697359D01*
X72288871Y-149644105D01*
X72279620Y-149621225D01*
X72270782Y-149601621D01*
X72262470Y-149585875D01*
X72254797Y-149574571D01*
X72249420Y-149568433D01*
X72243852Y-149562742D01*
X72238100Y-149557480D01*
X72232174Y-149552632D01*
X72226081Y-149548181D01*
X72219829Y-149544110D01*
X72213427Y-149540403D01*
X72206882Y-149537043D01*
X72193401Y-149531298D01*
X72179449Y-149526744D01*
X72165094Y-149523247D01*
X72150401Y-149520675D01*
X72135436Y-149518896D01*
X72120265Y-149517778D01*
X72104954Y-149517188D01*
X72089568Y-149516994D01*
X72028596Y-149517527D01*
X71608793Y-149517527D01*
X71485321Y-149097722D01*
X73213928Y-149097722D01*
X73312705Y-149517527D01*
G37*
G36*
X76164661Y-151666432D02*
G01*
X76226643Y-151814105D01*
X75930312Y-151814105D01*
X76276033Y-152925353D01*
X76239926Y-152924628D01*
X76208835Y-152923070D01*
X76182203Y-152920217D01*
X76159472Y-152915606D01*
X76149395Y-152912498D01*
X76140084Y-152908777D01*
X76131471Y-152904385D01*
X76123484Y-152899265D01*
X76116054Y-152893359D01*
X76109112Y-152886609D01*
X76102588Y-152878957D01*
X76096412Y-152870346D01*
X76084826Y-152850015D01*
X76073797Y-152825153D01*
X76062767Y-152795297D01*
X76051179Y-152759986D01*
X75988097Y-152554937D01*
X75834991Y-152061049D01*
X75818704Y-152002195D01*
X75814080Y-151986448D01*
X75809106Y-151970591D01*
X75803720Y-151954775D01*
X75797856Y-151939151D01*
X75791451Y-151923872D01*
X75784441Y-151909089D01*
X75776762Y-151894954D01*
X75768350Y-151881617D01*
X75763849Y-151875296D01*
X75759141Y-151869231D01*
X75754217Y-151863442D01*
X75749070Y-151857948D01*
X75743691Y-151852767D01*
X75738074Y-151847918D01*
X75732209Y-151843420D01*
X75726088Y-151839293D01*
X75720655Y-151836179D01*
X75714746Y-151833313D01*
X75701617Y-151828285D01*
X75686935Y-151824131D01*
X75670935Y-151820773D01*
X75653850Y-151818132D01*
X75635913Y-151816131D01*
X75617358Y-151814691D01*
X75598419Y-151813735D01*
X75560323Y-151812959D01*
X75523494Y-151813179D01*
X75461117Y-151814105D01*
X75436424Y-151641244D01*
X76029089Y-151641244D01*
X76164661Y-151666432D01*
G37*
G36*
X68336536Y-151666432D02*
G01*
X68398521Y-151814105D01*
X68102187Y-151814105D01*
X68447908Y-152925353D01*
X68414540Y-152924779D01*
X68385362Y-152923630D01*
X68359945Y-152921516D01*
X68337861Y-152918049D01*
X68327934Y-152915686D01*
X68318680Y-152912838D01*
X68310045Y-152909457D01*
X68301975Y-152905494D01*
X68294417Y-152900900D01*
X68287317Y-152895627D01*
X68280621Y-152889626D01*
X68274276Y-152882848D01*
X68268229Y-152875244D01*
X68262425Y-152866767D01*
X68256812Y-152857366D01*
X68251335Y-152846994D01*
X68240577Y-152823141D01*
X68229722Y-152794816D01*
X68218342Y-152761632D01*
X68206009Y-152723197D01*
X68176765Y-152629020D01*
X68019710Y-152110438D01*
X68002187Y-152055721D01*
X67990854Y-152021334D01*
X67978437Y-151985330D01*
X67965407Y-151950009D01*
X67952235Y-151917671D01*
X67945743Y-151903340D01*
X67939393Y-151890618D01*
X67933242Y-151879792D01*
X67927352Y-151871149D01*
X67919021Y-151861295D01*
X67910303Y-151852654D01*
X67901229Y-151845145D01*
X67891831Y-151838688D01*
X67882141Y-151833202D01*
X67872190Y-151828607D01*
X67862011Y-151824821D01*
X67851636Y-151821764D01*
X67841096Y-151819356D01*
X67830424Y-151817516D01*
X67808808Y-151815218D01*
X67787044Y-151814224D01*
X67765386Y-151813889D01*
X67744091Y-151813569D01*
X67723412Y-151812618D01*
X67703605Y-151810392D01*
X67694108Y-151808599D01*
X67684925Y-151806245D01*
X67676087Y-151803250D01*
X67667626Y-151799533D01*
X67659575Y-151795014D01*
X67651965Y-151789611D01*
X67644828Y-151783244D01*
X67638195Y-151775833D01*
X67632100Y-151767297D01*
X67626573Y-151757555D01*
X67623462Y-151750926D01*
X67620774Y-151744110D01*
X67618474Y-151737129D01*
X67616529Y-151730005D01*
X67614903Y-151722760D01*
X67613563Y-151715414D01*
X67612474Y-151707991D01*
X67611602Y-151700511D01*
X67610369Y-151685469D01*
X67609592Y-151670461D01*
X67608299Y-151641244D01*
X68200964Y-151641244D01*
X68336536Y-151666432D01*
G37*
G36*
X74036992Y-149937332D02*
G01*
X74083074Y-150083777D01*
X74094125Y-150117500D01*
X74105546Y-150150301D01*
X74117616Y-150182295D01*
X74130614Y-150213600D01*
X74144819Y-150244332D01*
X74160509Y-150274608D01*
X74177964Y-150304543D01*
X74197462Y-150334255D01*
X74219283Y-150363860D01*
X74243705Y-150393475D01*
X74271007Y-150423215D01*
X74301468Y-150453198D01*
X74318946Y-150468567D01*
X74337964Y-150483341D01*
X74358406Y-150497472D01*
X74380156Y-150510910D01*
X74403098Y-150523606D01*
X74427114Y-150535511D01*
X74452089Y-150546576D01*
X74477906Y-150556752D01*
X74531603Y-150574239D01*
X74559249Y-150581452D01*
X74587272Y-150587580D01*
X74615556Y-150592573D01*
X74643984Y-150596382D01*
X74672440Y-150598958D01*
X74700808Y-150600252D01*
X74728971Y-150600215D01*
X74756813Y-150598798D01*
X74784217Y-150595951D01*
X74811068Y-150591626D01*
X74837248Y-150585773D01*
X74862642Y-150578343D01*
X74887134Y-150569288D01*
X74910606Y-150558558D01*
X74932943Y-150546103D01*
X74954027Y-150531876D01*
X74973744Y-150515826D01*
X74991976Y-150497905D01*
X75008607Y-150478063D01*
X75023521Y-150456252D01*
X75036602Y-150432423D01*
X75047733Y-150406525D01*
X75051318Y-150395905D01*
X75054267Y-150384942D01*
X75056607Y-150373659D01*
X75058367Y-150362079D01*
X75060257Y-150338123D01*
X75060158Y-150313257D01*
X75058294Y-150287669D01*
X75054887Y-150261542D01*
X75050161Y-150235062D01*
X75044338Y-150208414D01*
X75037641Y-150181784D01*
X75030293Y-150155356D01*
X75014535Y-150103849D01*
X74985009Y-150011415D01*
X74720285Y-149097722D01*
X75164785Y-149097722D01*
X75502604Y-150307747D01*
X75505223Y-150377244D01*
X75501928Y-150442919D01*
X75493006Y-150504817D01*
X75478745Y-150562980D01*
X75459431Y-150617450D01*
X75435352Y-150668271D01*
X75406796Y-150715484D01*
X75374050Y-150759134D01*
X75337401Y-150799262D01*
X75297137Y-150835911D01*
X75253545Y-150869124D01*
X75206912Y-150898944D01*
X75157525Y-150925414D01*
X75105673Y-150948575D01*
X75051642Y-150968472D01*
X74995720Y-150985146D01*
X74938194Y-150998640D01*
X74879351Y-151008997D01*
X74819479Y-151016261D01*
X74758866Y-151020473D01*
X74636562Y-151019913D01*
X74514739Y-151007660D01*
X74395696Y-150984056D01*
X74337935Y-150968104D01*
X74281731Y-150949442D01*
X74227371Y-150928114D01*
X74175144Y-150904161D01*
X74125335Y-150877627D01*
X74078232Y-150848555D01*
X74044599Y-150824815D01*
X74012515Y-150799440D01*
X73981924Y-150772508D01*
X73952774Y-150744098D01*
X73898575Y-150683154D01*
X73849480Y-150617234D01*
X73805055Y-150546962D01*
X73764864Y-150472966D01*
X73728470Y-150395869D01*
X73695437Y-150316298D01*
X73665331Y-150234877D01*
X73637714Y-150152233D01*
X73588206Y-149985775D01*
X73499888Y-149665693D01*
X73337400Y-149097722D01*
X73781899Y-149097722D01*
X74036992Y-149937332D01*
G37*
G36*
X78477352Y-151638720D02*
G01*
X78501170Y-151639814D01*
X78523678Y-151641688D01*
X78544377Y-151644296D01*
X78562769Y-151647591D01*
X78578355Y-151651529D01*
X78590638Y-151656061D01*
X78596432Y-151658877D01*
X78601798Y-151661775D01*
X78606771Y-151664772D01*
X78611386Y-151667880D01*
X78615678Y-151671114D01*
X78619683Y-151674488D01*
X78623436Y-151678016D01*
X78626971Y-151681713D01*
X78630323Y-151685591D01*
X78633529Y-151689667D01*
X78636622Y-151693952D01*
X78639638Y-151698462D01*
X78642612Y-151703211D01*
X78645579Y-151708213D01*
X78651634Y-151719032D01*
X78778316Y-152110438D01*
X79017111Y-152925353D01*
X78987476Y-152924041D01*
X78961398Y-152922118D01*
X78938522Y-152919267D01*
X78918491Y-152915170D01*
X78909432Y-152912557D01*
X78900951Y-152909513D01*
X78893004Y-152906000D01*
X78885545Y-152901978D01*
X78878532Y-152897407D01*
X78871918Y-152892248D01*
X78865661Y-152886462D01*
X78859715Y-152880008D01*
X78854036Y-152872847D01*
X78848580Y-152864940D01*
X78838156Y-152846729D01*
X78828090Y-152825057D01*
X78818024Y-152799609D01*
X78807604Y-152770066D01*
X78796474Y-152736114D01*
X78770661Y-152653715D01*
X78523223Y-151814105D01*
X78399751Y-151814105D01*
X78449139Y-152925353D01*
X78402039Y-152925619D01*
X78376956Y-152925348D01*
X78364286Y-152924896D01*
X78351628Y-152924149D01*
X78339053Y-152923046D01*
X78326635Y-152921526D01*
X78314446Y-152919526D01*
X78302559Y-152916984D01*
X78291047Y-152913839D01*
X78279983Y-152910029D01*
X78269438Y-152905491D01*
X78259487Y-152900165D01*
X78253455Y-152896258D01*
X78247359Y-152891781D01*
X78235007Y-152881250D01*
X78222504Y-152868830D01*
X78209920Y-152854782D01*
X78197328Y-152839364D01*
X78184799Y-152822838D01*
X78172404Y-152805462D01*
X78160215Y-152787497D01*
X78136743Y-152750836D01*
X78114955Y-152714934D01*
X78078723Y-152653715D01*
X77743373Y-152110438D01*
X77728573Y-152085726D01*
X77714564Y-152061060D01*
X77687919Y-152012533D01*
X77674783Y-151989006D01*
X77661437Y-151966193D01*
X77647630Y-151944261D01*
X77633113Y-151923378D01*
X77625510Y-151913382D01*
X77617636Y-151903710D01*
X77609458Y-151894384D01*
X77600947Y-151885425D01*
X77592070Y-151876853D01*
X77582797Y-151868689D01*
X77573095Y-151860955D01*
X77562935Y-151853670D01*
X77552284Y-151846857D01*
X77541111Y-151840535D01*
X77529385Y-151834727D01*
X77517074Y-151829451D01*
X77504148Y-151824731D01*
X77490575Y-151820586D01*
X77476324Y-151817037D01*
X77461363Y-151814105D01*
X77807084Y-152925353D01*
X77634225Y-152925353D01*
X77239114Y-151641244D01*
X77646077Y-151665692D01*
X77851783Y-151962272D01*
X78251585Y-152629020D01*
X78258946Y-152599035D01*
X78264994Y-152566020D01*
X78269844Y-152530380D01*
X78273613Y-152492518D01*
X78278372Y-152411741D01*
X78280199Y-152326915D01*
X78276773Y-152011660D01*
X78275436Y-151979555D01*
X78272467Y-151936829D01*
X78268873Y-151887470D01*
X78265660Y-151835466D01*
X78263837Y-151784805D01*
X78263761Y-151761224D01*
X78264410Y-151739474D01*
X78265910Y-151720054D01*
X78268386Y-151703462D01*
X78271966Y-151690196D01*
X78274208Y-151684967D01*
X78276773Y-151680756D01*
X78281035Y-151675984D01*
X78286278Y-151671528D01*
X78292439Y-151667382D01*
X78299456Y-151663539D01*
X78307268Y-151659995D01*
X78315811Y-151656744D01*
X78334844Y-151651095D01*
X78356055Y-151646548D01*
X78378947Y-151643056D01*
X78403021Y-151640573D01*
X78427779Y-151639053D01*
X78452722Y-151638451D01*
X78477352Y-151638720D01*
G37*
G36*
X69806100Y-152925353D02*
G01*
X69675220Y-152900906D01*
X69600398Y-152752492D01*
X69485074Y-152332688D01*
X69114658Y-152332688D01*
X69015881Y-152925353D01*
X68843019Y-152925353D01*
X68966491Y-152332688D01*
X68944213Y-152331389D01*
X68922286Y-152329671D01*
X68900704Y-152327466D01*
X68879459Y-152324708D01*
X68858544Y-152321332D01*
X68837952Y-152317269D01*
X68817675Y-152312454D01*
X68797706Y-152306820D01*
X68778038Y-152300301D01*
X68758664Y-152292829D01*
X68739576Y-152284339D01*
X68720767Y-152274764D01*
X68702231Y-152264037D01*
X68683959Y-152252091D01*
X68665944Y-152238861D01*
X68648180Y-152224279D01*
X68635500Y-152212678D01*
X68623402Y-152200363D01*
X68611904Y-152187380D01*
X68601025Y-152173778D01*
X68590784Y-152159601D01*
X68581200Y-152144898D01*
X68572291Y-152129715D01*
X68564077Y-152114100D01*
X68556575Y-152098098D01*
X68549805Y-152081757D01*
X68543786Y-152065125D01*
X68538536Y-152048246D01*
X68534074Y-152031170D01*
X68530419Y-152013942D01*
X68527589Y-151996609D01*
X68525604Y-151979218D01*
X68524975Y-151969459D01*
X68700211Y-151969459D01*
X68700604Y-151978323D01*
X68701490Y-151987182D01*
X68702858Y-151996015D01*
X68704699Y-152004799D01*
X68707003Y-152013512D01*
X68709760Y-152022133D01*
X68712960Y-152030640D01*
X68716594Y-152039011D01*
X68720651Y-152047224D01*
X68725122Y-152055258D01*
X68729998Y-152063090D01*
X68735267Y-152070699D01*
X68740921Y-152078062D01*
X68746950Y-152085159D01*
X68753344Y-152091966D01*
X68760092Y-152098463D01*
X68767186Y-152104628D01*
X68774615Y-152110438D01*
X68790577Y-152121268D01*
X68807632Y-152131012D01*
X68825655Y-152139727D01*
X68844516Y-152147468D01*
X68864089Y-152154290D01*
X68884247Y-152160249D01*
X68904862Y-152165399D01*
X68925807Y-152169797D01*
X68946954Y-152173498D01*
X68968177Y-152176556D01*
X68989347Y-152179027D01*
X69010339Y-152180968D01*
X69051274Y-152183475D01*
X69089963Y-152184521D01*
X69435684Y-152184521D01*
X69409732Y-152099811D01*
X69392772Y-152045641D01*
X69373455Y-151989312D01*
X69362984Y-151961678D01*
X69352009Y-151935112D01*
X69340557Y-151910152D01*
X69328658Y-151887332D01*
X69316339Y-151867189D01*
X69310031Y-151858288D01*
X69303628Y-151850258D01*
X69297135Y-151843166D01*
X69290555Y-151837077D01*
X69283891Y-151832060D01*
X69277146Y-151828181D01*
X69271313Y-151825671D01*
X69265055Y-151823494D01*
X69258428Y-151821627D01*
X69251487Y-151820043D01*
X69244289Y-151818719D01*
X69236889Y-151817628D01*
X69229343Y-151816747D01*
X69221707Y-151816050D01*
X69206386Y-151815108D01*
X69191371Y-151814603D01*
X69164045Y-151814105D01*
X69068255Y-151811686D01*
X69009505Y-151811097D01*
X68948341Y-151812346D01*
X68917985Y-151813993D01*
X68888381Y-151816500D01*
X68859983Y-151820000D01*
X68833243Y-151824627D01*
X68808612Y-151830515D01*
X68786543Y-151837796D01*
X68776610Y-151842001D01*
X68767487Y-151846604D01*
X68759231Y-151851623D01*
X68751898Y-151857073D01*
X68744368Y-151863713D01*
X68737468Y-151870654D01*
X68731187Y-151877874D01*
X68725517Y-151885351D01*
X68720447Y-151893063D01*
X68715967Y-151900989D01*
X68712068Y-151909106D01*
X68708740Y-151917393D01*
X68705973Y-151925829D01*
X68703758Y-151934390D01*
X68702083Y-151943055D01*
X68700941Y-151951803D01*
X68700320Y-151960612D01*
X68700211Y-151969459D01*
X68524975Y-151969459D01*
X68524482Y-151961817D01*
X68524242Y-151944452D01*
X68524902Y-151927169D01*
X68526482Y-151910017D01*
X68529000Y-151893041D01*
X68532475Y-151876288D01*
X68536925Y-151859806D01*
X68542370Y-151843642D01*
X68548828Y-151827842D01*
X68556318Y-151812453D01*
X68564859Y-151797522D01*
X68574469Y-151783096D01*
X68585168Y-151769222D01*
X68596973Y-151755946D01*
X68609905Y-151743316D01*
X68623981Y-151731379D01*
X68639148Y-151720518D01*
X68656011Y-151710507D01*
X68674466Y-151701315D01*
X68694410Y-151692907D01*
X68738348Y-151678311D01*
X68786995Y-151666456D01*
X68839519Y-151657074D01*
X68895091Y-151649902D01*
X68952879Y-151644672D01*
X69012053Y-151641121D01*
X69131238Y-151637989D01*
X69246001Y-151638381D01*
X69435684Y-151641244D01*
X69592399Y-152184521D01*
X69806100Y-152925353D01*
G37*
G36*
X71979208Y-152925353D02*
G01*
X71806347Y-152925353D01*
X71689790Y-152530243D01*
X71683028Y-152508008D01*
X71675513Y-152484280D01*
X71671383Y-152472120D01*
X71666957Y-152459904D01*
X71662198Y-152447737D01*
X71657069Y-152435725D01*
X71651536Y-152423973D01*
X71645562Y-152412587D01*
X71639109Y-152401673D01*
X71632144Y-152391337D01*
X71624628Y-152381683D01*
X71620653Y-152377145D01*
X71616527Y-152372818D01*
X71612245Y-152368714D01*
X71607803Y-152364847D01*
X71603197Y-152361230D01*
X71598421Y-152357876D01*
X71590104Y-152352915D01*
X71581219Y-152348650D01*
X71571836Y-152345027D01*
X71562023Y-152341994D01*
X71551850Y-152339500D01*
X71541386Y-152337491D01*
X71530700Y-152335917D01*
X71519861Y-152334725D01*
X71508938Y-152333862D01*
X71498000Y-152333278D01*
X71476357Y-152332734D01*
X71435931Y-152332688D01*
X71208005Y-152335034D01*
X71149092Y-152333754D01*
X71090745Y-152330257D01*
X71033637Y-152323808D01*
X71005756Y-152319247D01*
X70978436Y-152313673D01*
X70951761Y-152306993D01*
X70925814Y-152299116D01*
X70900680Y-152289949D01*
X70876441Y-152279402D01*
X70853182Y-152267381D01*
X70830987Y-152253796D01*
X70809939Y-152238553D01*
X70790122Y-152221563D01*
X70771620Y-152202731D01*
X70754517Y-152181968D01*
X70738896Y-152159180D01*
X70724842Y-152134276D01*
X70712437Y-152107164D01*
X70701767Y-152077752D01*
X70692914Y-152045948D01*
X70685962Y-152011660D01*
X70681190Y-151974639D01*
X70680723Y-151964200D01*
X70850331Y-151964200D01*
X70850618Y-151971776D01*
X70851308Y-151979369D01*
X70852402Y-151986966D01*
X70855620Y-152002389D01*
X70859914Y-152017001D01*
X70865234Y-152030824D01*
X70871530Y-152043879D01*
X70878750Y-152056188D01*
X70886844Y-152067772D01*
X70895762Y-152078652D01*
X70905453Y-152088850D01*
X70915867Y-152098387D01*
X70926952Y-152107284D01*
X70938658Y-152115563D01*
X70950935Y-152123246D01*
X70976998Y-152136906D01*
X71004737Y-152148436D01*
X71033746Y-152158007D01*
X71063620Y-152165790D01*
X71093955Y-152171956D01*
X71124347Y-152176677D01*
X71154389Y-152180122D01*
X71183678Y-152182464D01*
X71238377Y-152184521D01*
X71584098Y-152184521D01*
X71576278Y-152152192D01*
X71565109Y-152109898D01*
X71551250Y-152061329D01*
X71535356Y-152010179D01*
X71518085Y-151960140D01*
X71509138Y-151936691D01*
X71500094Y-151914905D01*
X71491033Y-151895242D01*
X71482038Y-151878166D01*
X71473192Y-151864137D01*
X71468850Y-151858409D01*
X71464576Y-151853616D01*
X71460707Y-151849856D01*
X71456742Y-151846347D01*
X71452684Y-151843080D01*
X71448539Y-151840048D01*
X71444310Y-151837241D01*
X71440000Y-151834649D01*
X71431154Y-151830080D01*
X71422034Y-151826268D01*
X71412669Y-151823144D01*
X71403092Y-151820636D01*
X71393333Y-151818674D01*
X71383424Y-151817186D01*
X71373396Y-151816102D01*
X71363279Y-151815351D01*
X71353105Y-151814861D01*
X71312459Y-151814105D01*
X71210177Y-151810910D01*
X71148289Y-151810216D01*
X71116314Y-151810733D01*
X71084282Y-151812068D01*
X71052667Y-151814405D01*
X71021942Y-151817925D01*
X70992580Y-151822811D01*
X70965055Y-151829246D01*
X70939838Y-151837411D01*
X70928244Y-151842199D01*
X70917404Y-151847489D01*
X70907378Y-151853302D01*
X70898225Y-151859662D01*
X70890005Y-151866591D01*
X70882775Y-151874112D01*
X70877923Y-151880103D01*
X70873459Y-151886305D01*
X70869385Y-151892703D01*
X70865702Y-151899282D01*
X70862411Y-151906027D01*
X70859513Y-151912924D01*
X70857010Y-151919957D01*
X70854902Y-151927113D01*
X70853191Y-151934376D01*
X70851877Y-151941730D01*
X70850961Y-151949163D01*
X70850446Y-151956657D01*
X70850331Y-151964200D01*
X70680723Y-151964200D01*
X70679646Y-151940145D01*
X70681179Y-151908090D01*
X70685639Y-151878385D01*
X70692874Y-151850941D01*
X70702734Y-151825671D01*
X70715067Y-151802486D01*
X70729725Y-151781297D01*
X70746555Y-151762015D01*
X70765406Y-151744552D01*
X70786129Y-151728819D01*
X70808572Y-151714727D01*
X70832585Y-151702189D01*
X70858016Y-151691116D01*
X70884716Y-151681418D01*
X70912533Y-151673008D01*
X70970915Y-151659695D01*
X71031958Y-151650469D01*
X71094455Y-151644621D01*
X71157200Y-151641441D01*
X71278611Y-151640256D01*
X71386541Y-151641244D01*
X71436617Y-151640392D01*
X71463486Y-151640554D01*
X71477007Y-151641141D01*
X71490443Y-151642201D01*
X71503688Y-151643837D01*
X71516636Y-151646152D01*
X71529180Y-151649247D01*
X71541213Y-151653225D01*
X71547006Y-151655577D01*
X71552631Y-151658189D01*
X71558075Y-151661072D01*
X71563326Y-151664240D01*
X71568369Y-151667705D01*
X71573191Y-151671481D01*
X71577780Y-151675580D01*
X71582122Y-151680015D01*
X71590725Y-151691326D01*
X71599545Y-151706407D01*
X71608515Y-151724764D01*
X71617565Y-151745903D01*
X71626631Y-151769327D01*
X71635643Y-151794543D01*
X71653241Y-151848369D01*
X71708063Y-152036355D01*
X71753254Y-152184521D01*
X71979208Y-152925353D01*
G37*
G36*
X91376656Y-149468632D02*
G01*
X91538404Y-149838554D01*
X91932280Y-150974496D01*
X91339615Y-150974496D01*
X91294601Y-150974901D01*
X91269458Y-150974665D01*
X91256635Y-150974221D01*
X91243800Y-150973477D01*
X91231069Y-150972372D01*
X91218559Y-150970842D01*
X91206386Y-150968828D01*
X91194666Y-150966266D01*
X91183516Y-150963095D01*
X91173054Y-150959252D01*
X91168116Y-150957060D01*
X91163394Y-150954677D01*
X91158901Y-150952096D01*
X91154653Y-150949308D01*
X91147281Y-150943452D01*
X91140240Y-150936534D01*
X91133507Y-150928624D01*
X91127056Y-150919791D01*
X91114900Y-150899633D01*
X91103571Y-150876618D01*
X91092868Y-150851300D01*
X91082592Y-150824236D01*
X91062513Y-150767094D01*
X91041727Y-150709640D01*
X91030568Y-150682185D01*
X91018630Y-150656320D01*
X91005712Y-150632602D01*
X90998823Y-150621721D01*
X90991614Y-150611584D01*
X90984060Y-150602263D01*
X90976135Y-150593825D01*
X90967814Y-150586341D01*
X90959074Y-150579880D01*
X90954585Y-150577113D01*
X90949880Y-150574551D01*
X90939868Y-150570006D01*
X90929143Y-150566184D01*
X90917807Y-150563026D01*
X90905963Y-150560469D01*
X90893714Y-150558453D01*
X90881164Y-150556918D01*
X90868414Y-150555803D01*
X90855570Y-150555046D01*
X90842733Y-150554587D01*
X90817494Y-150554321D01*
X90771643Y-150554691D01*
X82400243Y-150554691D01*
X82353586Y-150554897D01*
X82305498Y-150556015D01*
X82281185Y-150557236D01*
X82256836Y-150559071D01*
X82232559Y-150561648D01*
X82208460Y-150565094D01*
X82184649Y-150569539D01*
X82161231Y-150575110D01*
X82138315Y-150581937D01*
X82116007Y-150590147D01*
X82094416Y-150599869D01*
X82073648Y-150611232D01*
X82063607Y-150617569D01*
X82053812Y-150624364D01*
X82044276Y-150631633D01*
X82035014Y-150639393D01*
X82021217Y-150652254D01*
X82008306Y-150665846D01*
X81996286Y-150680115D01*
X81985160Y-150695011D01*
X81974934Y-150710480D01*
X81965612Y-150726470D01*
X81957198Y-150742930D01*
X81949698Y-150759805D01*
X81943115Y-150777045D01*
X81937455Y-150794597D01*
X81932721Y-150812409D01*
X81928919Y-150830428D01*
X81926053Y-150848602D01*
X81924128Y-150866879D01*
X81923147Y-150885206D01*
X81923117Y-150903531D01*
X81924040Y-150921801D01*
X81925922Y-150939966D01*
X81928768Y-150957971D01*
X81932582Y-150975765D01*
X81937368Y-150993296D01*
X81943131Y-151010511D01*
X81949876Y-151027357D01*
X81957607Y-151043783D01*
X81966329Y-151059737D01*
X81976047Y-151075165D01*
X81986764Y-151090016D01*
X81998486Y-151104237D01*
X82011216Y-151117776D01*
X82024961Y-151130580D01*
X82039723Y-151142599D01*
X82055508Y-151153778D01*
X82069742Y-151162437D01*
X82084187Y-151169865D01*
X82098833Y-151176153D01*
X82113664Y-151181397D01*
X82128670Y-151185688D01*
X82143836Y-151189120D01*
X82159150Y-151191788D01*
X82174598Y-151193782D01*
X82190168Y-151195199D01*
X82205846Y-151196129D01*
X82237476Y-151196908D01*
X82301466Y-151196746D01*
X92031058Y-151196746D01*
X92278001Y-151962272D01*
X82301466Y-151962272D01*
X82232215Y-151960900D01*
X82162805Y-151956874D01*
X82093497Y-151950052D01*
X82024553Y-151940294D01*
X81956235Y-151927456D01*
X81888806Y-151911397D01*
X81822528Y-151891976D01*
X81757664Y-151869050D01*
X81694475Y-151842478D01*
X81633224Y-151812118D01*
X81574172Y-151777828D01*
X81517584Y-151739466D01*
X81490295Y-151718714D01*
X81463719Y-151696891D01*
X81437891Y-151673979D01*
X81412842Y-151649961D01*
X81388605Y-151624818D01*
X81365214Y-151598533D01*
X81342700Y-151571089D01*
X81321097Y-151542467D01*
X81303121Y-151516620D01*
X81286468Y-151490642D01*
X81271073Y-151464505D01*
X81256869Y-151438183D01*
X81243791Y-151411648D01*
X81231773Y-151384874D01*
X81220748Y-151357832D01*
X81210652Y-151330497D01*
X81201419Y-151302840D01*
X81192981Y-151274834D01*
X81185275Y-151246454D01*
X81178233Y-151217670D01*
X81171791Y-151188457D01*
X81165882Y-151158787D01*
X81155399Y-151097968D01*
X81146774Y-151032932D01*
X81141464Y-150968637D01*
X81139408Y-150905172D01*
X81140548Y-150842621D01*
X81144823Y-150781071D01*
X81152174Y-150720610D01*
X81162541Y-150661323D01*
X81175864Y-150603297D01*
X81192085Y-150546618D01*
X81211142Y-150491374D01*
X81232977Y-150437649D01*
X81257529Y-150385532D01*
X81284740Y-150335109D01*
X81314549Y-150286465D01*
X81346896Y-150239687D01*
X81381723Y-150194863D01*
X81418969Y-150152078D01*
X81458574Y-150111419D01*
X81500479Y-150072973D01*
X81544625Y-150036825D01*
X81590951Y-150003063D01*
X81639398Y-149971773D01*
X81689906Y-149943041D01*
X81742415Y-149916955D01*
X81796866Y-149893599D01*
X81853200Y-149873062D01*
X81911356Y-149855429D01*
X81971274Y-149840788D01*
X82032896Y-149829223D01*
X82096161Y-149820823D01*
X82161010Y-149815673D01*
X82227382Y-149813860D01*
X90722255Y-149813860D01*
X90598783Y-149443444D01*
X91191448Y-149443444D01*
X91376656Y-149468632D01*
G37*
G36*
X74670897Y-152925353D02*
G01*
X74515816Y-152900906D01*
X74440251Y-152727798D01*
X74325176Y-152332688D01*
X74286052Y-152331817D01*
X74240173Y-152330211D01*
X74190324Y-152329380D01*
X74164780Y-152329728D01*
X74139288Y-152330835D01*
X74114195Y-152332893D01*
X74089850Y-152336088D01*
X74066600Y-152340610D01*
X74044793Y-152346648D01*
X74034540Y-152350294D01*
X74024778Y-152354390D01*
X74015550Y-152358959D01*
X74006902Y-152364025D01*
X73998875Y-152369612D01*
X73991513Y-152375743D01*
X73984860Y-152382442D01*
X73978959Y-152389732D01*
X73972863Y-152399194D01*
X73967148Y-152410104D01*
X73956756Y-152435853D01*
X73947565Y-152466158D01*
X73939356Y-152500197D01*
X73931912Y-152537148D01*
X73925013Y-152576191D01*
X73911977Y-152657265D01*
X73898501Y-152736845D01*
X73891052Y-152774021D01*
X73882837Y-152808360D01*
X73873639Y-152839039D01*
X73863238Y-152865237D01*
X73857518Y-152876400D01*
X73851416Y-152886134D01*
X73844904Y-152894337D01*
X73837955Y-152900906D01*
X73834657Y-152903362D01*
X73831250Y-152905643D01*
X73824129Y-152909705D01*
X73816641Y-152913143D01*
X73808835Y-152916012D01*
X73800758Y-152918364D01*
X73792459Y-152920253D01*
X73783985Y-152921731D01*
X73775385Y-152922853D01*
X73766707Y-152923670D01*
X73757999Y-152924238D01*
X73740686Y-152924832D01*
X73707816Y-152925353D01*
X73806593Y-152332688D01*
X73784315Y-152331389D01*
X73762389Y-152329671D01*
X73740806Y-152327466D01*
X73719561Y-152324708D01*
X73698646Y-152321332D01*
X73678053Y-152317269D01*
X73657776Y-152312454D01*
X73637807Y-152306820D01*
X73618139Y-152300301D01*
X73598765Y-152292829D01*
X73579677Y-152284339D01*
X73560869Y-152274764D01*
X73542332Y-152264037D01*
X73524060Y-152252091D01*
X73506046Y-152238861D01*
X73488282Y-152224279D01*
X73475393Y-152212470D01*
X73463130Y-152199991D01*
X73451508Y-152186887D01*
X73440543Y-152173200D01*
X73430253Y-152158976D01*
X73420652Y-152144256D01*
X73411757Y-152129086D01*
X73403584Y-152113509D01*
X73396150Y-152097569D01*
X73389470Y-152081310D01*
X73383560Y-152064775D01*
X73378438Y-152048008D01*
X73374118Y-152031052D01*
X73370617Y-152013953D01*
X73367952Y-151996753D01*
X73366137Y-151979496D01*
X73365587Y-151969459D01*
X73540312Y-151969459D01*
X73540705Y-151978323D01*
X73541591Y-151987182D01*
X73542959Y-151996015D01*
X73544800Y-152004799D01*
X73547104Y-152013512D01*
X73549861Y-152022133D01*
X73553061Y-152030640D01*
X73556695Y-152039011D01*
X73560753Y-152047224D01*
X73565224Y-152055258D01*
X73570100Y-152063090D01*
X73575369Y-152070699D01*
X73581024Y-152078062D01*
X73587052Y-152085159D01*
X73593446Y-152091966D01*
X73600194Y-152098463D01*
X73607288Y-152104628D01*
X73614717Y-152110438D01*
X73630679Y-152121268D01*
X73647735Y-152131012D01*
X73665757Y-152139727D01*
X73684618Y-152147468D01*
X73704191Y-152154290D01*
X73724349Y-152160249D01*
X73744964Y-152165399D01*
X73765909Y-152169797D01*
X73787056Y-152173498D01*
X73808279Y-152176556D01*
X73829450Y-152179027D01*
X73850441Y-152180968D01*
X73891376Y-152183475D01*
X73930065Y-152184521D01*
X74275787Y-152184521D01*
X74257942Y-152129291D01*
X74242753Y-152079717D01*
X74218168Y-151996350D01*
X74207681Y-151961968D01*
X74197674Y-151932060D01*
X74192679Y-151918691D01*
X74187600Y-151906330D01*
X74182369Y-151894940D01*
X74176916Y-151884484D01*
X74171176Y-151874925D01*
X74165078Y-151866227D01*
X74158556Y-151858352D01*
X74151541Y-151851263D01*
X74143964Y-151844923D01*
X74135760Y-151839296D01*
X74126858Y-151834345D01*
X74117191Y-151830033D01*
X74106691Y-151826323D01*
X74095289Y-151823177D01*
X74082919Y-151820560D01*
X74069511Y-151818434D01*
X74054999Y-151816763D01*
X74039312Y-151815509D01*
X74004148Y-151814105D01*
X73908565Y-151811616D01*
X73849823Y-151811053D01*
X73788627Y-151812345D01*
X73758245Y-151814015D01*
X73728612Y-151816543D01*
X73700183Y-151820060D01*
X73673413Y-151824696D01*
X73648754Y-151830585D01*
X73626663Y-151837856D01*
X73616722Y-151842052D01*
X73607593Y-151846642D01*
X73599333Y-151851644D01*
X73591998Y-151857073D01*
X73584468Y-151863713D01*
X73577568Y-151870654D01*
X73571287Y-151877874D01*
X73565617Y-151885351D01*
X73560547Y-151893063D01*
X73556068Y-151900989D01*
X73552169Y-151909106D01*
X73548841Y-151917393D01*
X73546074Y-151925829D01*
X73543858Y-151934390D01*
X73542184Y-151943055D01*
X73541041Y-151951803D01*
X73540421Y-151960612D01*
X73540312Y-151969459D01*
X73365587Y-151969459D01*
X73365191Y-151962226D01*
X73365127Y-151944987D01*
X73365964Y-151927822D01*
X73367716Y-151910776D01*
X73370400Y-151893892D01*
X73374033Y-151877213D01*
X73378630Y-151860785D01*
X73384207Y-151844649D01*
X73390780Y-151828851D01*
X73398367Y-151813433D01*
X73406982Y-151798441D01*
X73416643Y-151783916D01*
X73427364Y-151769904D01*
X73439163Y-151756448D01*
X73452055Y-151743592D01*
X73466057Y-151731379D01*
X73480814Y-151720518D01*
X73497327Y-151710507D01*
X73515486Y-151701315D01*
X73535186Y-151692907D01*
X73578775Y-151678311D01*
X73627235Y-151666456D01*
X73679705Y-151657074D01*
X73735327Y-151649902D01*
X73793240Y-151644672D01*
X73852586Y-151641121D01*
X73972138Y-151637989D01*
X74087106Y-151638381D01*
X74275787Y-151641244D01*
X74398765Y-152036355D01*
X74444120Y-152184521D01*
X74670897Y-152925353D01*
G37*
G36*
X78399751Y-150949802D02*
G01*
X78304056Y-150952449D01*
X78242044Y-150953839D01*
X78176853Y-150953568D01*
X78144532Y-150952409D01*
X78113177Y-150950356D01*
X78083376Y-150947248D01*
X78055715Y-150942926D01*
X78030782Y-150937229D01*
X78019522Y-150933815D01*
X78009163Y-150929997D01*
X77999780Y-150925756D01*
X77991446Y-150921071D01*
X77984234Y-150915922D01*
X77978218Y-150910290D01*
X77971264Y-150901666D01*
X77964379Y-150891112D01*
X77950784Y-150864749D01*
X77937363Y-150832257D01*
X77924048Y-150794694D01*
X77897457Y-150708577D01*
X77870457Y-150614853D01*
X77842497Y-150521974D01*
X77827984Y-150478492D01*
X77813024Y-150438392D01*
X77797547Y-150402730D01*
X77781484Y-150372562D01*
X77773212Y-150359869D01*
X77764767Y-150348945D01*
X77756141Y-150339923D01*
X77747326Y-150332936D01*
X77742881Y-150330169D01*
X77738213Y-150327607D01*
X77728262Y-150323062D01*
X77717580Y-150319240D01*
X77706271Y-150316082D01*
X77694441Y-150313525D01*
X77682196Y-150311509D01*
X77669641Y-150309974D01*
X77656882Y-150308859D01*
X77644025Y-150308102D01*
X77631175Y-150307643D01*
X77605919Y-150307377D01*
X77560140Y-150307747D01*
X76597059Y-150307747D01*
X76442361Y-150309040D01*
X76364501Y-150309297D01*
X76286620Y-150308087D01*
X76208960Y-150304504D01*
X76170287Y-150301539D01*
X76131759Y-150297642D01*
X76093406Y-150292699D01*
X76055259Y-150286596D01*
X76017347Y-150279220D01*
X75979699Y-150270459D01*
X75924423Y-150254497D01*
X75871733Y-150235357D01*
X75821733Y-150213096D01*
X75774524Y-150187771D01*
X75730210Y-150159440D01*
X75688896Y-150128158D01*
X75669395Y-150111429D01*
X75650682Y-150093985D01*
X75632771Y-150075831D01*
X75615673Y-150056976D01*
X75599403Y-150037426D01*
X75583972Y-150017189D01*
X75569394Y-149996271D01*
X75555682Y-149974681D01*
X75542848Y-149952424D01*
X75530905Y-149929509D01*
X75519867Y-149905942D01*
X75509746Y-149881730D01*
X75500555Y-149856882D01*
X75492307Y-149831402D01*
X75485014Y-149805300D01*
X75478691Y-149778582D01*
X75473349Y-149751255D01*
X75469001Y-149723327D01*
X75465661Y-149694804D01*
X75465077Y-149687473D01*
X75897768Y-149687473D01*
X75897881Y-149696521D01*
X75898521Y-149705647D01*
X75899691Y-149714835D01*
X75902602Y-149729537D01*
X75906622Y-149743377D01*
X75911698Y-149756384D01*
X75917776Y-149768581D01*
X75924802Y-149779996D01*
X75932722Y-149790655D01*
X75941482Y-149800584D01*
X75951028Y-149809808D01*
X75961307Y-149818355D01*
X75972264Y-149826250D01*
X75983847Y-149833519D01*
X75996000Y-149840189D01*
X76021804Y-149851835D01*
X76049246Y-149861396D01*
X76077894Y-149869082D01*
X76107319Y-149875103D01*
X76137088Y-149879666D01*
X76166772Y-149882981D01*
X76195939Y-149885257D01*
X76224159Y-149886703D01*
X76276033Y-149887943D01*
X76942781Y-149887943D01*
X77634225Y-149887943D01*
X77628296Y-149853326D01*
X77619389Y-149808396D01*
X77607768Y-149757076D01*
X77593695Y-149703291D01*
X77585822Y-149676699D01*
X77577435Y-149650964D01*
X77568567Y-149626573D01*
X77559250Y-149604019D01*
X77549519Y-149583792D01*
X77539405Y-149566381D01*
X77534215Y-149558886D01*
X77528941Y-149552279D01*
X77523589Y-149546621D01*
X77518161Y-149541974D01*
X77514180Y-149539188D01*
X77509932Y-149536613D01*
X77500702Y-149532061D01*
X77490599Y-149528256D01*
X77479750Y-149525132D01*
X77468284Y-149522626D01*
X77456327Y-149520674D01*
X77444008Y-149519212D01*
X77431453Y-149518175D01*
X77418792Y-149517500D01*
X77406152Y-149517123D01*
X77381443Y-149517006D01*
X77337891Y-149517527D01*
X76226643Y-149517527D01*
X76191622Y-149517809D01*
X76154320Y-149518812D01*
X76135150Y-149519830D01*
X76115814Y-149521325D01*
X76096446Y-149523395D01*
X76077181Y-149526139D01*
X76058153Y-149529655D01*
X76039497Y-149534043D01*
X76021347Y-149539402D01*
X76003838Y-149545829D01*
X75987105Y-149553423D01*
X75979071Y-149557690D01*
X75971282Y-149562285D01*
X75963754Y-149567221D01*
X75956504Y-149572511D01*
X75949549Y-149578167D01*
X75942905Y-149584201D01*
X75936435Y-149590785D01*
X75930454Y-149597654D01*
X75924964Y-149604792D01*
X75919970Y-149612183D01*
X75915473Y-149619812D01*
X75911477Y-149627662D01*
X75907985Y-149635717D01*
X75904999Y-149643962D01*
X75902523Y-149652381D01*
X75900558Y-149660957D01*
X75899109Y-149669675D01*
X75898178Y-149678519D01*
X75897768Y-149687473D01*
X75465077Y-149687473D01*
X75463341Y-149665693D01*
X75461955Y-149627021D01*
X75462575Y-149589935D01*
X75465143Y-149554410D01*
X75469601Y-149520424D01*
X75475892Y-149487953D01*
X75483958Y-149456972D01*
X75493742Y-149427460D01*
X75505185Y-149399391D01*
X75518231Y-149372743D01*
X75532821Y-149347492D01*
X75548897Y-149323614D01*
X75566403Y-149301087D01*
X75585281Y-149279885D01*
X75605472Y-149259986D01*
X75626920Y-149241367D01*
X75649566Y-149224003D01*
X75673353Y-149207871D01*
X75698224Y-149192948D01*
X75724120Y-149179209D01*
X75750984Y-149166632D01*
X75807385Y-149144868D01*
X75866966Y-149127467D01*
X75929266Y-149114240D01*
X75993823Y-149105000D01*
X76060177Y-149099556D01*
X76127866Y-149097722D01*
X77634225Y-149097722D01*
X77677844Y-149097201D01*
X77702526Y-149097318D01*
X77715146Y-149097695D01*
X77727784Y-149098370D01*
X77740316Y-149099407D01*
X77752614Y-149100869D01*
X77764555Y-149102821D01*
X77776012Y-149105327D01*
X77786860Y-149108451D01*
X77796973Y-149112256D01*
X77801715Y-149114435D01*
X77806226Y-149116808D01*
X77810490Y-149119384D01*
X77814493Y-149122169D01*
X77820253Y-149127172D01*
X77826043Y-149133512D01*
X77837681Y-149149881D01*
X77849339Y-149170626D01*
X77860950Y-149195095D01*
X77872445Y-149222638D01*
X77883756Y-149252602D01*
X77905554Y-149317193D01*
X77971796Y-149542221D01*
X78076908Y-149887943D01*
X78399751Y-150949802D01*
G37*
G36*
X70735873Y-152634878D02*
G01*
X70736551Y-152662956D01*
X70735588Y-152690375D01*
X70732849Y-152717033D01*
X70728199Y-152742824D01*
X70721504Y-152767645D01*
X70712627Y-152791394D01*
X70701436Y-152813965D01*
X70687794Y-152835255D01*
X70671567Y-152855161D01*
X70652620Y-152873579D01*
X70630817Y-152890405D01*
X70606025Y-152905535D01*
X70578109Y-152918865D01*
X70546932Y-152930292D01*
X70539335Y-152932598D01*
X70531731Y-152934705D01*
X70524117Y-152936623D01*
X70516492Y-152938364D01*
X70501202Y-152941353D01*
X70485844Y-152943751D01*
X70470406Y-152945639D01*
X70454872Y-152947100D01*
X70439228Y-152948213D01*
X70423460Y-152949060D01*
X70380200Y-152949888D01*
X70339397Y-152948486D01*
X70300959Y-152944928D01*
X70264792Y-152939287D01*
X70230806Y-152931636D01*
X70198906Y-152922048D01*
X70169001Y-152910599D01*
X70140999Y-152897360D01*
X70114806Y-152882405D01*
X70090330Y-152865808D01*
X70067480Y-152847642D01*
X70046161Y-152827981D01*
X70026283Y-152806899D01*
X70007752Y-152784467D01*
X69990475Y-152760762D01*
X69974362Y-152735854D01*
X69945252Y-152682730D01*
X69919682Y-152625681D01*
X69896913Y-152565297D01*
X69876205Y-152502164D01*
X69799185Y-152233910D01*
X69782710Y-152179771D01*
X69765679Y-152121342D01*
X69757642Y-152090995D01*
X69750291Y-152060147D01*
X69743901Y-152028988D01*
X69738746Y-151997708D01*
X69735103Y-151966497D01*
X69734337Y-151953749D01*
X69901520Y-151953749D01*
X69901806Y-151973896D01*
X69903272Y-151994652D01*
X69909323Y-152037590D01*
X69918824Y-152081754D01*
X69930925Y-152126338D01*
X69944777Y-152170532D01*
X69959530Y-152213529D01*
X69988344Y-152292699D01*
X70010572Y-152357382D01*
X70032947Y-152435004D01*
X70045528Y-152478261D01*
X70059188Y-152522372D01*
X70074040Y-152565753D01*
X70081949Y-152586676D01*
X70090198Y-152606823D01*
X70098802Y-152625996D01*
X70107774Y-152643997D01*
X70117129Y-152660629D01*
X70126881Y-152675693D01*
X70135662Y-152687691D01*
X70144529Y-152698719D01*
X70153522Y-152708829D01*
X70162680Y-152718075D01*
X70172044Y-152726511D01*
X70181653Y-152734190D01*
X70191548Y-152741166D01*
X70201767Y-152747492D01*
X70212350Y-152753222D01*
X70223339Y-152758409D01*
X70234771Y-152763108D01*
X70246687Y-152767371D01*
X70259127Y-152771252D01*
X70272131Y-152774804D01*
X70285738Y-152778082D01*
X70299988Y-152781138D01*
X70318786Y-152784604D01*
X70338272Y-152787326D01*
X70358233Y-152789177D01*
X70378454Y-152790032D01*
X70398722Y-152789766D01*
X70408806Y-152789173D01*
X70418822Y-152788253D01*
X70428742Y-152786989D01*
X70438540Y-152785367D01*
X70448189Y-152783370D01*
X70457662Y-152780984D01*
X70466932Y-152778191D01*
X70475973Y-152774977D01*
X70484758Y-152771325D01*
X70493261Y-152767221D01*
X70501453Y-152762648D01*
X70509309Y-152757590D01*
X70516802Y-152752033D01*
X70523905Y-152745960D01*
X70530592Y-152739356D01*
X70536834Y-152732204D01*
X70542607Y-152724490D01*
X70547883Y-152716197D01*
X70552634Y-152707310D01*
X70556836Y-152697813D01*
X70560460Y-152687691D01*
X70563479Y-152676927D01*
X70565123Y-152669332D01*
X70566408Y-152661555D01*
X70567963Y-152645508D01*
X70568268Y-152628888D01*
X70567448Y-152611796D01*
X70565629Y-152594334D01*
X70562935Y-152576603D01*
X70559491Y-152558704D01*
X70555421Y-152540738D01*
X70550851Y-152522807D01*
X70545904Y-152505012D01*
X70535383Y-152470235D01*
X70515322Y-152406771D01*
X70477394Y-152275721D01*
X70453171Y-152195720D01*
X70425806Y-152112907D01*
X70411030Y-152072049D01*
X70395570Y-152032409D01*
X70379460Y-151994631D01*
X70362735Y-151959355D01*
X70345428Y-151927221D01*
X70327574Y-151898871D01*
X70309206Y-151874946D01*
X70299840Y-151864843D01*
X70290358Y-151856086D01*
X70282031Y-151849352D01*
X70273791Y-151843278D01*
X70265610Y-151837811D01*
X70257461Y-151832893D01*
X70249314Y-151828468D01*
X70241142Y-151824481D01*
X70232916Y-151820875D01*
X70224609Y-151817594D01*
X70216192Y-151814582D01*
X70207636Y-151811783D01*
X70189998Y-151806601D01*
X70151821Y-151796325D01*
X70120835Y-151793860D01*
X70105597Y-151792744D01*
X70090426Y-151791973D01*
X70075244Y-151791746D01*
X70067623Y-151791898D01*
X70059971Y-151792262D01*
X70052277Y-151792862D01*
X70044531Y-151793722D01*
X70036724Y-151794868D01*
X70028845Y-151796325D01*
X70006679Y-151801275D01*
X69986968Y-151808047D01*
X69969606Y-151816539D01*
X69954486Y-151826652D01*
X69941503Y-151838284D01*
X69930549Y-151851333D01*
X69921520Y-151865699D01*
X69914309Y-151881282D01*
X69908810Y-151897979D01*
X69904916Y-151915690D01*
X69902521Y-151934314D01*
X69901520Y-151953749D01*
X69734337Y-151953749D01*
X69733244Y-151935546D01*
X69733446Y-151905046D01*
X69735984Y-151875185D01*
X69738214Y-151860554D01*
X69741132Y-151846155D01*
X69744770Y-151832011D01*
X69749165Y-151818146D01*
X69754349Y-151804583D01*
X69760358Y-151791347D01*
X69767225Y-151778462D01*
X69774986Y-151765951D01*
X69784705Y-151752410D01*
X69795086Y-151739784D01*
X69806098Y-151728045D01*
X69817706Y-151717168D01*
X69829878Y-151707125D01*
X69842580Y-151697891D01*
X69855779Y-151689439D01*
X69869443Y-151681743D01*
X69883538Y-151674776D01*
X69898031Y-151668512D01*
X69928079Y-151657987D01*
X69959322Y-151649956D01*
X69991495Y-151644208D01*
X70024334Y-151640532D01*
X70057573Y-151638717D01*
X70090949Y-151638552D01*
X70124196Y-151639825D01*
X70157050Y-151642325D01*
X70189245Y-151645840D01*
X70220517Y-151650160D01*
X70250601Y-151655073D01*
X70267146Y-151660918D01*
X70282929Y-151666745D01*
X70298009Y-151672634D01*
X70312445Y-151678668D01*
X70326296Y-151684926D01*
X70339622Y-151691488D01*
X70352482Y-151698436D01*
X70364936Y-151705851D01*
X70377042Y-151713812D01*
X70388860Y-151722401D01*
X70400450Y-151731699D01*
X70411870Y-151741785D01*
X70423180Y-151752741D01*
X70434440Y-151764647D01*
X70445708Y-151777585D01*
X70457044Y-151791634D01*
X70470953Y-151810524D01*
X70483753Y-151830023D01*
X70495535Y-151850074D01*
X70506388Y-151870621D01*
X70516401Y-151891606D01*
X70525665Y-151912972D01*
X70534269Y-151934664D01*
X70542303Y-151956623D01*
X70557020Y-152001119D01*
X70570532Y-152046005D01*
X70596815Y-152135132D01*
X70668510Y-152340706D01*
X70687558Y-152398999D01*
X70704897Y-152458393D01*
X70719449Y-152518057D01*
X70730134Y-152577162D01*
X70733689Y-152606246D01*
X70735416Y-152628888D01*
X70735873Y-152634878D01*
G37*
G36*
X77365144Y-152646871D02*
G01*
X77365379Y-152674556D01*
X77364140Y-152701630D01*
X77361286Y-152727884D01*
X77356672Y-152753113D01*
X77350156Y-152777107D01*
X77346140Y-152788576D01*
X77341596Y-152799659D01*
X77334116Y-152814729D01*
X77325516Y-152828884D01*
X77315856Y-152842145D01*
X77305194Y-152854530D01*
X77293592Y-152866061D01*
X77281109Y-152876756D01*
X77267806Y-152886636D01*
X77253742Y-152895720D01*
X77238977Y-152904029D01*
X77223571Y-152911582D01*
X77207585Y-152918399D01*
X77191078Y-152924500D01*
X77156743Y-152934635D01*
X77121044Y-152942145D01*
X77084463Y-152947190D01*
X77047479Y-152949928D01*
X77010573Y-152950519D01*
X76974224Y-152949121D01*
X76938913Y-152945895D01*
X76905119Y-152940999D01*
X76873322Y-152934593D01*
X76844003Y-152926835D01*
X76822259Y-152919714D01*
X76801631Y-152911752D01*
X76782081Y-152902979D01*
X76763566Y-152893426D01*
X76746045Y-152883122D01*
X76729477Y-152872098D01*
X76713821Y-152860384D01*
X76699036Y-152848010D01*
X76685080Y-152835006D01*
X76671913Y-152821402D01*
X76659492Y-152807230D01*
X76647777Y-152792517D01*
X76626301Y-152761596D01*
X76607154Y-152728879D01*
X76590006Y-152694608D01*
X76574528Y-152659024D01*
X76560392Y-152622369D01*
X76547266Y-152584883D01*
X76498282Y-152431465D01*
X76431997Y-152235353D01*
X76415006Y-152178376D01*
X76399724Y-152120012D01*
X76387093Y-152061157D01*
X76378052Y-152002709D01*
X76375171Y-151973917D01*
X76373950Y-151952703D01*
X76534533Y-151952703D01*
X76534543Y-151972624D01*
X76535796Y-151993158D01*
X76541589Y-152035676D01*
X76551038Y-152079485D01*
X76563266Y-152123812D01*
X76577397Y-152167884D01*
X76592556Y-152210929D01*
X76622454Y-152290846D01*
X76645953Y-152357382D01*
X76656796Y-152394223D01*
X76668334Y-152435281D01*
X76680751Y-152478868D01*
X76694232Y-152523297D01*
X76708964Y-152566882D01*
X76716857Y-152587830D01*
X76725131Y-152607934D01*
X76733811Y-152626983D01*
X76742919Y-152644767D01*
X76752478Y-152661074D01*
X76762513Y-152675693D01*
X76771664Y-152687366D01*
X76780985Y-152698152D01*
X76790498Y-152708095D01*
X76800229Y-152717241D01*
X76810202Y-152725635D01*
X76820440Y-152733322D01*
X76830969Y-152740345D01*
X76841812Y-152746751D01*
X76852993Y-152752584D01*
X76864538Y-152757888D01*
X76876469Y-152762710D01*
X76888812Y-152767093D01*
X76901590Y-152771082D01*
X76914828Y-152774723D01*
X76928550Y-152778060D01*
X76942781Y-152781138D01*
X76963692Y-152784921D01*
X76985066Y-152787755D01*
X77006678Y-152789507D01*
X77017502Y-152789935D01*
X77028301Y-152790043D01*
X77039047Y-152789814D01*
X77049710Y-152789231D01*
X77060264Y-152788278D01*
X77070679Y-152786937D01*
X77080928Y-152785193D01*
X77090983Y-152783029D01*
X77100815Y-152780427D01*
X77110395Y-152777372D01*
X77119696Y-152773847D01*
X77128690Y-152769835D01*
X77137348Y-152765319D01*
X77145642Y-152760283D01*
X77153544Y-152754710D01*
X77161026Y-152748584D01*
X77168059Y-152741888D01*
X77174616Y-152734605D01*
X77180667Y-152726718D01*
X77186185Y-152718212D01*
X77191142Y-152709069D01*
X77195509Y-152699272D01*
X77199259Y-152688806D01*
X77202362Y-152677653D01*
X77204791Y-152665797D01*
X77206517Y-152653221D01*
X77207334Y-152638893D01*
X77206906Y-152623511D01*
X77205358Y-152607227D01*
X77202817Y-152590192D01*
X77199410Y-152572557D01*
X77195262Y-152554472D01*
X77190500Y-152536088D01*
X77185250Y-152517556D01*
X77173790Y-152480652D01*
X77161894Y-152444966D01*
X77140830Y-152382076D01*
X77128356Y-152339779D01*
X77116504Y-152296319D01*
X77093089Y-152207560D01*
X77080735Y-152163086D01*
X77067423Y-152119097D01*
X77052757Y-152076006D01*
X77036343Y-152034225D01*
X77027356Y-152013954D01*
X77017784Y-151994166D01*
X77007576Y-151974911D01*
X76996685Y-151956240D01*
X76985059Y-151938207D01*
X76972651Y-151920861D01*
X76959410Y-151904255D01*
X76945286Y-151888439D01*
X76930232Y-151873467D01*
X76914196Y-151859388D01*
X76897130Y-151846254D01*
X76878984Y-151834118D01*
X76859710Y-151823030D01*
X76839256Y-151813042D01*
X76817575Y-151804206D01*
X76794616Y-151796572D01*
X76763343Y-151793829D01*
X76748191Y-151792644D01*
X76733158Y-151791850D01*
X76725638Y-151791661D01*
X76718090Y-151791646D01*
X76710495Y-151791827D01*
X76702834Y-151792232D01*
X76695087Y-151792883D01*
X76687236Y-151793807D01*
X76679262Y-151795029D01*
X76671144Y-151796572D01*
X76647710Y-151801611D01*
X76626831Y-151808421D01*
X76608399Y-151816906D01*
X76592304Y-151826970D01*
X76578436Y-151838515D01*
X76566686Y-151851445D01*
X76556945Y-151865663D01*
X76549102Y-151881074D01*
X76543049Y-151897579D01*
X76538676Y-151915084D01*
X76535874Y-151933491D01*
X76534533Y-151952703D01*
X76373950Y-151952703D01*
X76373539Y-151945562D01*
X76373275Y-151917757D01*
X76374495Y-151890614D01*
X76377317Y-151864245D01*
X76381858Y-151838762D01*
X76388236Y-151814276D01*
X76396569Y-151790900D01*
X76406973Y-151768746D01*
X76419566Y-151747926D01*
X76434466Y-151728553D01*
X76451789Y-151710737D01*
X76471654Y-151694591D01*
X76494178Y-151680228D01*
X76519478Y-151667759D01*
X76547672Y-151657296D01*
X76556685Y-151654641D01*
X76565757Y-151652312D01*
X76574882Y-151650284D01*
X76584053Y-151648537D01*
X76593267Y-151647047D01*
X76602518Y-151645793D01*
X76621106Y-151643899D01*
X76639776Y-151642677D01*
X76658483Y-151641947D01*
X76695837Y-151641244D01*
X76724907Y-151640951D01*
X76750320Y-151640936D01*
X76773278Y-151641383D01*
X76794986Y-151642479D01*
X76816647Y-151644408D01*
X76839466Y-151647356D01*
X76864647Y-151651508D01*
X76893393Y-151657049D01*
X76917112Y-151666052D01*
X76939371Y-151674852D01*
X76950041Y-151679323D01*
X76960450Y-151683919D01*
X76970634Y-151688698D01*
X76980626Y-151693720D01*
X76990462Y-151699043D01*
X77000177Y-151704726D01*
X77009805Y-151710826D01*
X77019381Y-151717404D01*
X77028939Y-151724517D01*
X77038515Y-151732223D01*
X77048142Y-151740583D01*
X77057857Y-151749653D01*
X77078495Y-151772724D01*
X77098627Y-151801116D01*
X77118228Y-151834158D01*
X77137273Y-151871180D01*
X77155736Y-151911513D01*
X77173592Y-151954487D01*
X77190815Y-151999432D01*
X77207381Y-152045677D01*
X77238439Y-152139390D01*
X77266562Y-152230267D01*
X77313197Y-152382076D01*
X77327371Y-152428298D01*
X77340797Y-152479550D01*
X77346871Y-152506543D01*
X77352329Y-152534170D01*
X77357029Y-152562224D01*
X77360826Y-152590497D01*
X77363579Y-152618782D01*
X77364700Y-152638893D01*
X77365144Y-152646871D01*
G37*
G36*
X75598187Y-152648344D02*
G01*
X75598901Y-152670657D01*
X75598464Y-152692379D01*
X75596756Y-152713359D01*
X75593653Y-152733447D01*
X75589034Y-152752492D01*
X75582610Y-152771721D01*
X75574951Y-152789833D01*
X75566118Y-152806852D01*
X75556169Y-152822801D01*
X75545164Y-152837701D01*
X75533163Y-152851577D01*
X75520225Y-152864450D01*
X75506409Y-152876342D01*
X75491774Y-152887278D01*
X75476381Y-152897280D01*
X75460289Y-152906369D01*
X75443557Y-152914570D01*
X75426244Y-152921904D01*
X75408409Y-152928394D01*
X75371415Y-152938935D01*
X75333049Y-152946374D01*
X75293787Y-152950892D01*
X75254104Y-152952671D01*
X75214475Y-152951892D01*
X75175375Y-152948738D01*
X75137281Y-152943389D01*
X75100667Y-152936027D01*
X75066008Y-152926835D01*
X75044728Y-152919800D01*
X75024435Y-152911778D01*
X75005097Y-152902809D01*
X74986681Y-152892932D01*
X74969155Y-152882185D01*
X74952487Y-152870609D01*
X74936643Y-152858242D01*
X74921592Y-152845123D01*
X74907300Y-152831293D01*
X74893735Y-152816789D01*
X74868656Y-152785919D01*
X74846096Y-152752827D01*
X74825792Y-152717827D01*
X74807485Y-152681233D01*
X74790915Y-152643358D01*
X74775820Y-152604515D01*
X74761941Y-152565019D01*
X74736787Y-152485320D01*
X74713370Y-152406771D01*
X74652272Y-152215578D01*
X74636587Y-152160939D01*
X74622540Y-152105149D01*
X74611030Y-152049003D01*
X74602957Y-151993294D01*
X74600491Y-151965851D01*
X74599652Y-151947969D01*
X74758774Y-151947969D01*
X74759837Y-151965479D01*
X74761951Y-151983275D01*
X74764952Y-152001227D01*
X74768680Y-152019209D01*
X74772972Y-152037091D01*
X74782604Y-152072046D01*
X74801530Y-152135132D01*
X74839942Y-152269763D01*
X74865536Y-152354847D01*
X74894351Y-152443751D01*
X74909723Y-152487754D01*
X74925608Y-152530455D01*
X74941909Y-152571101D01*
X74958529Y-152608941D01*
X74975370Y-152643221D01*
X74992335Y-152673189D01*
X75009327Y-152698092D01*
X75017803Y-152708410D01*
X75026249Y-152717179D01*
X75033930Y-152724127D01*
X75041702Y-152730542D01*
X75049572Y-152736456D01*
X75057549Y-152741897D01*
X75065642Y-152746895D01*
X75073859Y-152751480D01*
X75082209Y-152755682D01*
X75090702Y-152759530D01*
X75099344Y-152763054D01*
X75108146Y-152766284D01*
X75117116Y-152769248D01*
X75126262Y-152771978D01*
X75135593Y-152774502D01*
X75145118Y-152776850D01*
X75164785Y-152781138D01*
X75183320Y-152784564D01*
X75202653Y-152787255D01*
X75222554Y-152789085D01*
X75242792Y-152789928D01*
X75263136Y-152789656D01*
X75283354Y-152788144D01*
X75293344Y-152786883D01*
X75303216Y-152785264D01*
X75312941Y-152783272D01*
X75322490Y-152780891D01*
X75331834Y-152778104D01*
X75340945Y-152774897D01*
X75349793Y-152771253D01*
X75358349Y-152767156D01*
X75366586Y-152762590D01*
X75374473Y-152757541D01*
X75381982Y-152751991D01*
X75389084Y-152745925D01*
X75395750Y-152739328D01*
X75401951Y-152732183D01*
X75407659Y-152724474D01*
X75412844Y-152716187D01*
X75417478Y-152707304D01*
X75421531Y-152697811D01*
X75424975Y-152687690D01*
X75427781Y-152676927D01*
X75430084Y-152662330D01*
X75430971Y-152646189D01*
X75430577Y-152628725D01*
X75429038Y-152610160D01*
X75426489Y-152590715D01*
X75423066Y-152570612D01*
X75418903Y-152550072D01*
X75414136Y-152529317D01*
X75403331Y-152488044D01*
X75391734Y-152448566D01*
X75370489Y-152382076D01*
X75332398Y-152259538D01*
X75307738Y-152182182D01*
X75280230Y-152101486D01*
X75265619Y-152061617D01*
X75250547Y-152022990D01*
X75235099Y-151986298D01*
X75219359Y-151952232D01*
X75203410Y-151921486D01*
X75187337Y-151894751D01*
X75171223Y-151872721D01*
X75163177Y-151863686D01*
X75155153Y-151856086D01*
X75146901Y-151849349D01*
X75138707Y-151843271D01*
X75130546Y-151837798D01*
X75122395Y-151832877D01*
X75114229Y-151828456D01*
X75106024Y-151824481D01*
X75097758Y-151820898D01*
X75089405Y-151817655D01*
X75080942Y-151814699D01*
X75072346Y-151811976D01*
X75054656Y-151807017D01*
X75016618Y-151797559D01*
X74983917Y-151794550D01*
X74967045Y-151793426D01*
X74949986Y-151792741D01*
X74932862Y-151792633D01*
X74915795Y-151793241D01*
X74898904Y-151794703D01*
X74882312Y-151797159D01*
X74874166Y-151798802D01*
X74866140Y-151800746D01*
X74858249Y-151803007D01*
X74850508Y-151805603D01*
X74842933Y-151808551D01*
X74835538Y-151811868D01*
X74828340Y-151815573D01*
X74821352Y-151819681D01*
X74814590Y-151824211D01*
X74808070Y-151829179D01*
X74801806Y-151834604D01*
X74795813Y-151840502D01*
X74790107Y-151846891D01*
X74784703Y-151853787D01*
X74779616Y-151861209D01*
X74774861Y-151869174D01*
X74771314Y-151876132D01*
X74768251Y-151883338D01*
X74765652Y-151890775D01*
X74763498Y-151898428D01*
X74761769Y-151906280D01*
X74760443Y-151914315D01*
X74758922Y-151930871D01*
X74758774Y-151947969D01*
X74599652Y-151947969D01*
X74599222Y-151938814D01*
X74599262Y-151912284D01*
X74600725Y-151886358D01*
X74603722Y-151861136D01*
X74608367Y-151836718D01*
X74614771Y-151813202D01*
X74623048Y-151790688D01*
X74633309Y-151769274D01*
X74645668Y-151749061D01*
X74660236Y-151730146D01*
X74677128Y-151712630D01*
X74696454Y-151696611D01*
X74718328Y-151682189D01*
X74742861Y-151669463D01*
X74770168Y-151658531D01*
X74779095Y-151655618D01*
X74788090Y-151653068D01*
X74797149Y-151650855D01*
X74806264Y-151648954D01*
X74815430Y-151647339D01*
X74824641Y-151645986D01*
X74833890Y-151644868D01*
X74843171Y-151643961D01*
X74861805Y-151642677D01*
X74880494Y-151641931D01*
X74917841Y-151641244D01*
X74946911Y-151640951D01*
X74972323Y-151640936D01*
X74995281Y-151641383D01*
X75016989Y-151642479D01*
X75038650Y-151644408D01*
X75061469Y-151647356D01*
X75086650Y-151651508D01*
X75115396Y-151657049D01*
X75142971Y-151667601D01*
X75168527Y-151677981D01*
X75180661Y-151683293D01*
X75192427Y-151688785D01*
X75203871Y-151694530D01*
X75215037Y-151700604D01*
X75225972Y-151707080D01*
X75236721Y-151714032D01*
X75247330Y-151721534D01*
X75257844Y-151729662D01*
X75268308Y-151738488D01*
X75278770Y-151748088D01*
X75289273Y-151758534D01*
X75299863Y-151769902D01*
X75317149Y-151792063D01*
X75334920Y-151820239D01*
X75353022Y-151853646D01*
X75371304Y-151891499D01*
X75389613Y-151933013D01*
X75407798Y-151977402D01*
X75443183Y-152071668D01*
X75476242Y-152168017D01*
X75505756Y-152260171D01*
X75549277Y-152406771D01*
X75560111Y-152445661D01*
X75571220Y-152488189D01*
X75581629Y-152533153D01*
X75586266Y-152556174D01*
X75590362Y-152579354D01*
X75593795Y-152602542D01*
X75596444Y-152625589D01*
X75598022Y-152646189D01*
X75598187Y-152648344D01*
G37*
G36*
X83289241Y-148455668D02*
G01*
X88771397Y-148455668D01*
X90845727Y-148455668D01*
X90890740Y-148455263D01*
X90915883Y-148455498D01*
X90928706Y-148455942D01*
X90941541Y-148456686D01*
X90954272Y-148457792D01*
X90966782Y-148459321D01*
X90978955Y-148461336D01*
X90990675Y-148463898D01*
X91001824Y-148467069D01*
X91012287Y-148470911D01*
X91017225Y-148473103D01*
X91021947Y-148475486D01*
X91026440Y-148478068D01*
X91030687Y-148480856D01*
X91035208Y-148484282D01*
X91039604Y-148488110D01*
X91043879Y-148492316D01*
X91048035Y-148496879D01*
X91056002Y-148506984D01*
X91063527Y-148518245D01*
X91070635Y-148530480D01*
X91077347Y-148543511D01*
X91083687Y-148557157D01*
X91089676Y-148571237D01*
X91100698Y-148599982D01*
X91110593Y-148628305D01*
X91119545Y-148654763D01*
X91127736Y-148677917D01*
X91314920Y-149196500D01*
X91286084Y-149203736D01*
X91255478Y-149209685D01*
X91223335Y-149214459D01*
X91189889Y-149218173D01*
X91155372Y-149220939D01*
X91120018Y-149222870D01*
X91047727Y-149224682D01*
X90974880Y-149224515D01*
X90903342Y-149223274D01*
X90771643Y-149221194D01*
X89759173Y-149221194D01*
X86425430Y-149221194D01*
X82029827Y-149221194D01*
X81978489Y-149222840D01*
X81927212Y-149226546D01*
X81876054Y-149232270D01*
X81825072Y-149239969D01*
X81774324Y-149249601D01*
X81723869Y-149261123D01*
X81673764Y-149274494D01*
X81624067Y-149289671D01*
X81574836Y-149306611D01*
X81526129Y-149325272D01*
X81478003Y-149345612D01*
X81430517Y-149367588D01*
X81383729Y-149391158D01*
X81337695Y-149416280D01*
X81248126Y-149471009D01*
X81162272Y-149531436D01*
X81080598Y-149597222D01*
X81041472Y-149632018D01*
X81003564Y-149668028D01*
X80966933Y-149705207D01*
X80931636Y-149743515D01*
X80897731Y-149782908D01*
X80865276Y-149823345D01*
X80834328Y-149864782D01*
X80804946Y-149907178D01*
X80777188Y-149950490D01*
X80751110Y-149994675D01*
X80726773Y-150039692D01*
X80704232Y-150085498D01*
X80684029Y-150130740D01*
X80665416Y-150176519D01*
X80648320Y-150222796D01*
X80632668Y-150269529D01*
X80618390Y-150316677D01*
X80605413Y-150364200D01*
X80593666Y-150412056D01*
X80583075Y-150460204D01*
X80565077Y-150557216D01*
X80550845Y-150654908D01*
X80539801Y-150752953D01*
X80531371Y-150851024D01*
X80529571Y-150894456D01*
X80530181Y-150942603D01*
X80533047Y-150994758D01*
X80538015Y-151050211D01*
X80544930Y-151108257D01*
X80553639Y-151168186D01*
X80563987Y-151229290D01*
X80575821Y-151290862D01*
X80588985Y-151352194D01*
X80603327Y-151412578D01*
X80618692Y-151471306D01*
X80634925Y-151527670D01*
X80651874Y-151580962D01*
X80669383Y-151630474D01*
X80687298Y-151675499D01*
X80705466Y-151715328D01*
X80760742Y-151817409D01*
X80822342Y-151912803D01*
X80889917Y-152001527D01*
X80963118Y-152083594D01*
X81041596Y-152159022D01*
X81125001Y-152227826D01*
X81212986Y-152290020D01*
X81305201Y-152345621D01*
X81401296Y-152394644D01*
X81500922Y-152437106D01*
X81603732Y-152473020D01*
X81709374Y-152502403D01*
X81817502Y-152525271D01*
X81927764Y-152541639D01*
X82039813Y-152551522D01*
X82153299Y-152554937D01*
X92302696Y-152554937D01*
X92353640Y-152554154D01*
X92367046Y-152554131D01*
X92380540Y-152554377D01*
X92394032Y-152554993D01*
X92407431Y-152556079D01*
X92420648Y-152557735D01*
X92433593Y-152560062D01*
X92446176Y-152563159D01*
X92458305Y-152567126D01*
X92464172Y-152569468D01*
X92469893Y-152572065D01*
X92475455Y-152574929D01*
X92480847Y-152578074D01*
X92486059Y-152581512D01*
X92491079Y-152585255D01*
X92495896Y-152589316D01*
X92500498Y-152593707D01*
X92509626Y-152604880D01*
X92519084Y-152619826D01*
X92528791Y-152638055D01*
X92538666Y-152659074D01*
X92548628Y-152682393D01*
X92558595Y-152707519D01*
X92578224Y-152761228D01*
X92640762Y-152950048D01*
X92814055Y-153428316D01*
X92860677Y-153566086D01*
X92900655Y-153694306D01*
X92916908Y-153752205D01*
X92930007Y-153804560D01*
X92939453Y-153850321D01*
X92944750Y-153888435D01*
X92154530Y-153888435D01*
X92023402Y-153493324D01*
X92007011Y-153446146D01*
X92002632Y-153434018D01*
X91998017Y-153421922D01*
X91993108Y-153409941D01*
X91987842Y-153398158D01*
X91982160Y-153386656D01*
X91976001Y-153375517D01*
X91969303Y-153364825D01*
X91962006Y-153354661D01*
X91958114Y-153349804D01*
X91954049Y-153345110D01*
X91949804Y-153340590D01*
X91945372Y-153336254D01*
X91940744Y-153332112D01*
X91935913Y-153328175D01*
X91930872Y-153324453D01*
X91925612Y-153320957D01*
X91916070Y-153315669D01*
X91905752Y-153311154D01*
X91894756Y-153307354D01*
X91883181Y-153304207D01*
X91871123Y-153301656D01*
X91858681Y-153299639D01*
X91845954Y-153298098D01*
X91833039Y-153296973D01*
X91820035Y-153296203D01*
X91807038Y-153295730D01*
X91781463Y-153295433D01*
X91734725Y-153295769D01*
X89709784Y-153295769D01*
X82079215Y-153295769D01*
X81948393Y-153292154D01*
X81818555Y-153281721D01*
X81689985Y-153264537D01*
X81562967Y-153240666D01*
X81437786Y-153210171D01*
X81314725Y-153173119D01*
X81194068Y-153129574D01*
X81076098Y-153079600D01*
X80961101Y-153023263D01*
X80849360Y-152960627D01*
X80741159Y-152891757D01*
X80636782Y-152816717D01*
X80536513Y-152735573D01*
X80440635Y-152648389D01*
X80349433Y-152555229D01*
X80263191Y-152456160D01*
X80192172Y-152364599D01*
X80126304Y-152269600D01*
X80065576Y-152171414D01*
X80009981Y-152070296D01*
X79959508Y-151966499D01*
X79914147Y-151860277D01*
X79873891Y-151751882D01*
X79838728Y-151641569D01*
X79808651Y-151529590D01*
X79783649Y-151416199D01*
X79763713Y-151301649D01*
X79748834Y-151186194D01*
X79739003Y-151070088D01*
X79734209Y-150953583D01*
X79734445Y-150836932D01*
X79739699Y-150720391D01*
X79749964Y-150604210D01*
X79765230Y-150488646D01*
X79785486Y-150373949D01*
X79810725Y-150260375D01*
X79840936Y-150148175D01*
X79876111Y-150037605D01*
X79916239Y-149928916D01*
X79961312Y-149822363D01*
X80011320Y-149718199D01*
X80066254Y-149616678D01*
X80126104Y-149518052D01*
X80190861Y-149422575D01*
X80260517Y-149330500D01*
X80335060Y-149242082D01*
X80414482Y-149157572D01*
X80498774Y-149077226D01*
X80560270Y-149023468D01*
X80626622Y-148968871D01*
X80696759Y-148914541D01*
X80769611Y-148861582D01*
X80844106Y-148811100D01*
X80881635Y-148787134D01*
X80919174Y-148764201D01*
X80956588Y-148742440D01*
X80993744Y-148721990D01*
X81030508Y-148702988D01*
X81066746Y-148685573D01*
X81190763Y-148633709D01*
X81319358Y-148589834D01*
X81451975Y-148553307D01*
X81588060Y-148523489D01*
X81727055Y-148499737D01*
X81868407Y-148481411D01*
X82011558Y-148467871D01*
X82155954Y-148458477D01*
X82446256Y-148449560D01*
X82734868Y-148449537D01*
X83289241Y-148455668D01*
G37*
G36*
X72691120Y-151642753D02*
G01*
X72740987Y-151646226D01*
X72793800Y-151651753D01*
X72847802Y-151659426D01*
X72874700Y-151664094D01*
X72901237Y-151669332D01*
X72927193Y-151675151D01*
X72952348Y-151681562D01*
X72976483Y-151688576D01*
X72999379Y-151696206D01*
X73020815Y-151704460D01*
X73040573Y-151713352D01*
X73056982Y-151722014D01*
X73072807Y-151731708D01*
X73088024Y-151742380D01*
X73102610Y-151753973D01*
X73116537Y-151766431D01*
X73129784Y-151779697D01*
X73142324Y-151793715D01*
X73154132Y-151808430D01*
X73165186Y-151823784D01*
X73175458Y-151839722D01*
X73184926Y-151856188D01*
X73193565Y-151873124D01*
X73201349Y-151890476D01*
X73208254Y-151908187D01*
X73214256Y-151926201D01*
X73219329Y-151944461D01*
X73223450Y-151962911D01*
X73226593Y-151981495D01*
X73228734Y-152000158D01*
X73229849Y-152018842D01*
X73229912Y-152037491D01*
X73228899Y-152056049D01*
X73226785Y-152074461D01*
X73223547Y-152092670D01*
X73219158Y-152110619D01*
X73213594Y-152128252D01*
X73206832Y-152145514D01*
X73198845Y-152162348D01*
X73189610Y-152178697D01*
X73179102Y-152194506D01*
X73167296Y-152209719D01*
X73154167Y-152224279D01*
X73145278Y-152233083D01*
X73136122Y-152241400D01*
X73117052Y-152256629D01*
X73097049Y-152270074D01*
X73076206Y-152281848D01*
X73054616Y-152292058D01*
X73032369Y-152300816D01*
X73009558Y-152308231D01*
X72986277Y-152314413D01*
X72962616Y-152319473D01*
X72938668Y-152323520D01*
X72914526Y-152326663D01*
X72890281Y-152329014D01*
X72866026Y-152330682D01*
X72841853Y-152331777D01*
X72794123Y-152332688D01*
X72674382Y-152330234D01*
X72601274Y-152328920D01*
X72525170Y-152329354D01*
X72487362Y-152330649D01*
X72450444Y-152332890D01*
X72414964Y-152336245D01*
X72381468Y-152340883D01*
X72350503Y-152346974D01*
X72322615Y-152354687D01*
X72309996Y-152359204D01*
X72298351Y-152364191D01*
X72287749Y-152369667D01*
X72278257Y-152375655D01*
X72266538Y-152384364D01*
X72255772Y-152393432D01*
X72245945Y-152402835D01*
X72237042Y-152412545D01*
X72229047Y-152422536D01*
X72221947Y-152432783D01*
X72215727Y-152443259D01*
X72210371Y-152453937D01*
X72205865Y-152464792D01*
X72202195Y-152475797D01*
X72199345Y-152486926D01*
X72197301Y-152498154D01*
X72196048Y-152509452D01*
X72195572Y-152520796D01*
X72195857Y-152532160D01*
X72196889Y-152543516D01*
X72198653Y-152554839D01*
X72201135Y-152566102D01*
X72204319Y-152577280D01*
X72208192Y-152588346D01*
X72212737Y-152599273D01*
X72217941Y-152610037D01*
X72223788Y-152620609D01*
X72230265Y-152630965D01*
X72237355Y-152641077D01*
X72245046Y-152650921D01*
X72253320Y-152660469D01*
X72262165Y-152669695D01*
X72271565Y-152678573D01*
X72281506Y-152687076D01*
X72291972Y-152695180D01*
X72302950Y-152702856D01*
X72318526Y-152712486D01*
X72334317Y-152720790D01*
X72350312Y-152727865D01*
X72366500Y-152733809D01*
X72382870Y-152738721D01*
X72399412Y-152742697D01*
X72416114Y-152745835D01*
X72432967Y-152748232D01*
X72449958Y-152749988D01*
X72467077Y-152751199D01*
X72501656Y-152752376D01*
X72571874Y-152752492D01*
X73485565Y-152752492D01*
X73534955Y-152925353D01*
X72695346Y-152925353D01*
X72578668Y-152926680D01*
X72517507Y-152926655D01*
X72455902Y-152924674D01*
X72425272Y-152922599D01*
X72394935Y-152919614D01*
X72365027Y-152915578D01*
X72335683Y-152910351D01*
X72307038Y-152903794D01*
X72279227Y-152895764D01*
X72252385Y-152886123D01*
X72226646Y-152874730D01*
X72205546Y-152863354D01*
X72185545Y-152850451D01*
X72166656Y-152836119D01*
X72148889Y-152820456D01*
X72132258Y-152803561D01*
X72116772Y-152785531D01*
X72102445Y-152766464D01*
X72089287Y-152746458D01*
X72077309Y-152725611D01*
X72066525Y-152704022D01*
X72056945Y-152681789D01*
X72048581Y-152659009D01*
X72041444Y-152635780D01*
X72035547Y-152612201D01*
X72030900Y-152588369D01*
X72027516Y-152564383D01*
X72025406Y-152540340D01*
X72024581Y-152516339D01*
X72025054Y-152492478D01*
X72026836Y-152468854D01*
X72029938Y-152445566D01*
X72034372Y-152422712D01*
X72040150Y-152400389D01*
X72047283Y-152378696D01*
X72055784Y-152357731D01*
X72065663Y-152337592D01*
X72076932Y-152318377D01*
X72089603Y-152300184D01*
X72103687Y-152283110D01*
X72119197Y-152267255D01*
X72136143Y-152252715D01*
X72154537Y-152239590D01*
X72168651Y-152230997D01*
X72183461Y-152223029D01*
X72215003Y-152208876D01*
X72248830Y-152196946D01*
X72284607Y-152187052D01*
X72322003Y-152179011D01*
X72360683Y-152172637D01*
X72400313Y-152167745D01*
X72440561Y-152164148D01*
X72481092Y-152161664D01*
X72521573Y-152160105D01*
X72601051Y-152159024D01*
X72744733Y-152159827D01*
X72792679Y-152159993D01*
X72818675Y-152159710D01*
X72845116Y-152158746D01*
X72858293Y-152157908D01*
X72871326Y-152156776D01*
X72884133Y-152155311D01*
X72896627Y-152153472D01*
X72908725Y-152151217D01*
X72920342Y-152148507D01*
X72931393Y-152145299D01*
X72941794Y-152141553D01*
X72954573Y-152136081D01*
X72966477Y-152130235D01*
X72977516Y-152124033D01*
X72987700Y-152117496D01*
X72997038Y-152110642D01*
X73005540Y-152103490D01*
X73013215Y-152096060D01*
X73020072Y-152088372D01*
X73026122Y-152080443D01*
X73031373Y-152072293D01*
X73035836Y-152063943D01*
X73039519Y-152055410D01*
X73042433Y-152046714D01*
X73044587Y-152037874D01*
X73045991Y-152028910D01*
X73046653Y-152019841D01*
X73046585Y-152010685D01*
X73045794Y-152001463D01*
X73044291Y-151992193D01*
X73042085Y-151982894D01*
X73039185Y-151973586D01*
X73035602Y-151964288D01*
X73031345Y-151955020D01*
X73026423Y-151945800D01*
X73020847Y-151936647D01*
X73014624Y-151927582D01*
X73007766Y-151918622D01*
X73000281Y-151909788D01*
X72992179Y-151901098D01*
X72983470Y-151892572D01*
X72974162Y-151884229D01*
X72964267Y-151876088D01*
X72950265Y-151865720D01*
X72936129Y-151856601D01*
X72921851Y-151848650D01*
X72907424Y-151841782D01*
X72892840Y-151835918D01*
X72878093Y-151830974D01*
X72863176Y-151826869D01*
X72848080Y-151823520D01*
X72832799Y-151820845D01*
X72817326Y-151818763D01*
X72801653Y-151817190D01*
X72785773Y-151816046D01*
X72753364Y-151814712D01*
X72720040Y-151814105D01*
X72028596Y-151814105D01*
X71983687Y-151814510D01*
X71958461Y-151814274D01*
X71945583Y-151813831D01*
X71932689Y-151813087D01*
X71919903Y-151811981D01*
X71907345Y-151810452D01*
X71895138Y-151808437D01*
X71883405Y-151805875D01*
X71872265Y-151802704D01*
X71861843Y-151798862D01*
X71856938Y-151796670D01*
X71852259Y-151794287D01*
X71847819Y-151791705D01*
X71843635Y-151788917D01*
X71839289Y-151785645D01*
X71835182Y-151782224D01*
X71831306Y-151778658D01*
X71827653Y-151774955D01*
X71824213Y-151771122D01*
X71820979Y-151767163D01*
X71815094Y-151758898D01*
X71809931Y-151750211D01*
X71805423Y-151741151D01*
X71801504Y-151731770D01*
X71798105Y-151722119D01*
X71795161Y-151712248D01*
X71792604Y-151702207D01*
X71790368Y-151692048D01*
X71788386Y-151681821D01*
X71781652Y-151641244D01*
X72645956Y-151641244D01*
X72691120Y-151642753D01*
G37*
D11*
%TO.C,REF\u002A\u002A*%
X113945270Y-151803583D03*
X113242326Y-153500639D03*
X113242326Y-150106527D03*
X111545270Y-154203583D03*
D12*
X111545270Y-151803583D03*
D11*
X111545270Y-149403583D03*
X109848214Y-153500639D03*
X109848214Y-150106527D03*
X109145270Y-151803583D03*
%TD*%
D13*
%TO.C,J9*%
X102115270Y-105113583D03*
D14*
X107115270Y-105113583D03*
X102115270Y-101613583D03*
X107115270Y-101613583D03*
X102115270Y-98113583D03*
X107115270Y-98113583D03*
X102115270Y-94613583D03*
X107115270Y-94613583D03*
X102115270Y-91113583D03*
X107115270Y-91113583D03*
X102115270Y-87613583D03*
X107115270Y-87613583D03*
X102115270Y-84113583D03*
X107115270Y-84113583D03*
X102115270Y-80613583D03*
X107115270Y-80613583D03*
X102115270Y-77113583D03*
X107115270Y-77113583D03*
X102115270Y-73613583D03*
X107115270Y-73613583D03*
%TD*%
D15*
%TO.C,J5*%
X82045270Y-29803583D03*
D16*
X82045270Y-23803583D03*
%TD*%
D15*
%TO.C,J7*%
X79045270Y-29803583D03*
D16*
X79045270Y-23803583D03*
%TD*%
D17*
%TO.C,J1*%
X84354928Y-70737027D03*
X84354928Y-72007027D03*
X83084928Y-70737027D03*
X83084928Y-72007027D03*
X81814928Y-70737027D03*
X81814928Y-72007027D03*
X80544928Y-70737027D03*
X80544928Y-72007027D03*
X79274928Y-70737027D03*
X79274928Y-72007027D03*
X78004928Y-70737027D03*
X78004928Y-72007027D03*
X76734928Y-70737027D03*
X76734928Y-72007027D03*
%TD*%
D13*
%TO.C,J8*%
X102115270Y-141613583D03*
D14*
X107115270Y-141613583D03*
X102115270Y-138113583D03*
X107115270Y-138113583D03*
X102115270Y-134613583D03*
X107115270Y-134613583D03*
X102115270Y-131113583D03*
X107115270Y-131113583D03*
X102115270Y-127613583D03*
X107115270Y-127613583D03*
X102115270Y-124113583D03*
X107115270Y-124113583D03*
X102115270Y-120613583D03*
X107115270Y-120613583D03*
X102115270Y-117113583D03*
X107115270Y-117113583D03*
X102115270Y-113613583D03*
X107115270Y-113613583D03*
X102115270Y-110113583D03*
X107115270Y-110113583D03*
%TD*%
D15*
%TO.C,J4*%
X76045270Y-29803583D03*
D16*
X76045270Y-23803583D03*
%TD*%
D13*
%TO.C,J3*%
X58975270Y-110743583D03*
D14*
X53975270Y-110743583D03*
X58975270Y-114243583D03*
X53975270Y-114243583D03*
X58975270Y-117743583D03*
X53975270Y-117743583D03*
X58975270Y-121243583D03*
X53975270Y-121243583D03*
X58975270Y-124743583D03*
X53975270Y-124743583D03*
X58975270Y-128243583D03*
X53975270Y-128243583D03*
X58975270Y-131743583D03*
X53975270Y-131743583D03*
X58975270Y-135243583D03*
X53975270Y-135243583D03*
X58975270Y-138743583D03*
X53975270Y-138743583D03*
X58975270Y-142243583D03*
X53975270Y-142243583D03*
%TD*%
D15*
%TO.C,J6*%
X85045270Y-29803583D03*
D16*
X85045270Y-23803583D03*
%TD*%
D11*
%TO.C,REF\u002A\u002A*%
X113945270Y-24803583D03*
X113242326Y-26500639D03*
X113242326Y-23106527D03*
X111545270Y-27203583D03*
D12*
X111545270Y-24803583D03*
D11*
X111545270Y-22403583D03*
X109848214Y-26500639D03*
X109848214Y-23106527D03*
X109145270Y-24803583D03*
%TD*%
%TO.C,REF\u002A\u002A*%
X78144642Y-101803583D03*
X78847586Y-100106527D03*
X78847586Y-103500639D03*
X80544642Y-99403583D03*
D12*
X80544642Y-101803583D03*
D11*
X80544642Y-104203583D03*
X82241698Y-100106527D03*
X82241698Y-103500639D03*
X82944642Y-101803583D03*
%TD*%
%TO.C,REF\u002A\u002A*%
X47145270Y-151803583D03*
X47848214Y-150106527D03*
X47848214Y-153500639D03*
X49545270Y-149403583D03*
D12*
X49545270Y-151803583D03*
D11*
X49545270Y-154203583D03*
X51242326Y-150106527D03*
X51242326Y-153500639D03*
X51945270Y-151803583D03*
%TD*%
%TO.C,REF\u002A\u002A*%
X47145270Y-24803583D03*
X47848214Y-23106527D03*
X47848214Y-26500639D03*
X49545270Y-22403583D03*
D12*
X49545270Y-24803583D03*
D11*
X49545270Y-27203583D03*
X51242326Y-23106527D03*
X51242326Y-26500639D03*
X51945270Y-24803583D03*
%TD*%
D13*
%TO.C,J2*%
X58975270Y-74243583D03*
D14*
X53975270Y-74243583D03*
X58975270Y-77743583D03*
X53975270Y-77743583D03*
X58975270Y-81243583D03*
X53975270Y-81243583D03*
X58975270Y-84743583D03*
X53975270Y-84743583D03*
X58975270Y-88243583D03*
X53975270Y-88243583D03*
X58975270Y-91743583D03*
X53975270Y-91743583D03*
X58975270Y-95243583D03*
X53975270Y-95243583D03*
X58975270Y-98743583D03*
X53975270Y-98743583D03*
X58975270Y-102243583D03*
X53975270Y-102243583D03*
X58975270Y-105743583D03*
X53975270Y-105743583D03*
%TD*%
D15*
%TO.C,TP2*%
X113280269Y-47543583D03*
%TD*%
%TO.C,TP7*%
X64545217Y-49027606D03*
%TD*%
%TO.C,TP10*%
X101458270Y-58003583D03*
%TD*%
%TO.C,TP12*%
X61709276Y-63647471D03*
%TD*%
%TO.C,TP15*%
X89537770Y-30238583D03*
%TD*%
%TO.C,TP1*%
X61130270Y-32583583D03*
%TD*%
%TO.C,TP4*%
X103410270Y-54593583D03*
%TD*%
%TO.C,TP11*%
X56515032Y-65952527D03*
%TD*%
%TO.C,TP6*%
X53315863Y-49352572D03*
%TD*%
%TO.C,TP3*%
X63510270Y-44463583D03*
%TD*%
%TO.C,TP5*%
X53311748Y-65951717D03*
%TD*%
%TO.C,TP8*%
X80545070Y-49041904D03*
%TD*%
%TO.C,TP9*%
X97842270Y-64503583D03*
%TD*%
M02*
