M48
; DRILL file KiCad 10.0.0-rc1.1 date 2026-03-27T10:33:15
; FORMAT={-:-/ absolute / metric / decimal}
; #@! TF.CreationDate,2026-03-27T10:33:15+01:00
; #@! TF.GenerationSoftware,Kicad,Pcbnew,10.0.0-rc1.1
; #@! TF.FileFunction,Plated,1,6,PTH
FMAT,2
METRIC
; #@! TA.AperFunction,Plated,PTH,ViaDrill
T1C0.300
; #@! TA.AperFunction,Plated,PTH,ViaDrill
T2C0.500
; #@! TA.AperFunction,Plated,PTH,ComponentDrill
T3C0.500
; #@! TA.AperFunction,Plated,PTH,ComponentDrill
T4C0.600
; #@! TA.AperFunction,Plated,PTH,ComponentDrill
T5C0.710
; #@! TA.AperFunction,Plated,PTH,ComponentDrill
T6C1.200
; #@! TA.AperFunction,Plated,PTH,ComponentDrill
T7C3.200
%
G90
G05
T1
X46.544Y-70.273
X46.545Y-74.276
X46.545Y-78.279
X46.546Y-82.282
X46.547Y-86.285
X46.549Y-110.31
X46.549Y-114.313
X46.55Y-90.289
X46.55Y-118.316
X46.55Y-94.292
X46.551Y-122.319
X46.551Y-98.295
X46.552Y-102.299
X46.552Y-106.302
X46.553Y-126.32
X46.554Y-130.323
X46.554Y-134.326
X46.555Y-138.329
X46.556Y-142.332
X46.557Y-146.336
X47.965Y-42.228
X47.965Y-43.228
X47.965Y-44.228
X48.438Y-33.632
X48.438Y-34.632
X48.544Y-72.274
X48.545Y-76.277
X48.546Y-80.281
X48.546Y-68.274
X48.549Y-84.285
X48.655Y-46.138
X48.655Y-47.138
X48.655Y-61.139
X48.655Y-62.139
X48.965Y-41.728
X48.965Y-42.728
X48.965Y-43.728
X48.965Y-44.728
X48.967Y-56.742
X48.967Y-57.742
X48.967Y-58.742
X49.438Y-33.632
X49.438Y-34.632
X49.965Y-40.298
X49.965Y-41.228
X49.965Y-42.228
X49.965Y-43.228
X49.965Y-44.228
X49.967Y-55.312
X49.967Y-56.242
X49.967Y-57.242
X49.967Y-58.242
X49.967Y-59.242
X50.19Y-49.348
X50.19Y-50.943
X50.549Y-110.311
X50.965Y-39.798
X50.965Y-40.728
X50.965Y-41.728
X50.965Y-42.728
X50.965Y-43.728
X50.965Y-44.728
X50.967Y-54.812
X50.967Y-55.742
X50.967Y-56.742
X50.967Y-57.742
X50.967Y-58.742
X50.967Y-59.742
X51.74Y-49.348
X51.965Y-40.298
X51.965Y-41.228
X51.965Y-42.228
X51.965Y-43.228
X51.965Y-44.228
X51.967Y-55.312
X51.967Y-56.242
X51.967Y-57.242
X51.967Y-58.242
X51.967Y-59.242
X52.545Y-72.277
X52.546Y-76.281
X52.546Y-80.284
X52.547Y-68.277
X52.55Y-112.314
X52.55Y-88.291
X52.551Y-92.294
X52.551Y-96.297
X52.554Y-124.316
X52.555Y-116.314
X52.555Y-128.319
X52.557Y-132.329
X52.965Y-41.728
X52.965Y-42.728
X52.965Y-43.728
X52.965Y-44.728
X52.967Y-56.742
X52.967Y-57.742
X52.967Y-58.742
X52.967Y-59.742
X53.267Y-61.642
X53.287Y-65.952
X53.318Y-49.29
X53.73Y-28.854
X53.965Y-42.228
X53.965Y-43.228
X53.965Y-44.228
X53.967Y-57.242
X53.967Y-58.242
X53.967Y-59.242
X54.545Y-70.277
X54.557Y-126.324
X54.558Y-130.327
X54.564Y-150.34
X54.565Y-154.343
X55.065Y-23.224
X56.207Y-59.402
X56.207Y-61.302
X56.445Y-26.799
X56.54Y-56.947
X56.54Y-65.953
X56.545Y-72.279
X56.547Y-68.278
X56.548Y-76.285
X56.55Y-88.294
X56.552Y-96.3
X56.552Y-100.303
X56.553Y-104.306
X56.555Y-112.313
X56.555Y-116.316
X56.556Y-120.319
X56.557Y-124.322
X56.559Y-136.331
X56.559Y-140.334
X56.564Y-152.341
X57.055Y-50.279
X57.055Y-51.279
X57.239Y-24.174
X57.32Y-43.719
X57.665Y-36.909
X57.69Y-29.954
X57.889Y-24.174
X58.086Y-65.951
X58.311Y-61.348
X58.311Y-59.352
X58.311Y-60.352
X58.455Y-28.374
X58.545Y-70.279
X58.557Y-126.325
X58.558Y-130.328
X58.561Y-150.344
X58.562Y-154.347
X58.77Y-42.819
X58.94Y-25.879
X59.05Y-40.499
X59.64Y-25.879
X59.84Y-37.859
X60.425Y-41.299
X60.49Y-37.859
X60.547Y-68.28
X60.555Y-112.314
X60.556Y-116.317
X60.557Y-124.324
X60.559Y-136.333
X60.56Y-140.336
X60.625Y-26.178
X60.625Y-29.589
X61.125Y-32.539
X61.4Y-59.398
X61.4Y-61.298
X61.56Y-39.559
X61.585Y-41.969
X61.625Y-26.178
X61.625Y-29.589
X61.73Y-63.645
X61.935Y-42.894
X62.152Y-46.132
X62.26Y-39.559
X62.285Y-41.969
X62.545Y-69.039
X62.557Y-122.322
X62.557Y-126.325
X62.558Y-130.328
X62.559Y-134.331
X62.56Y-142.338
X62.562Y-154.348
X62.705Y-29.589
X62.71Y-26.183
X63.15Y-39.559
X63.152Y-46.132
X63.165Y-41.969
X63.21Y-23.234
X63.225Y-69.039
X63.5Y-59.348
X63.5Y-60.348
X63.5Y-61.348
X63.5Y-37.059
X63.515Y-42.894
X63.515Y-44.444
X63.705Y-29.589
X63.71Y-26.183
X63.85Y-39.559
X63.865Y-41.969
X63.905Y-69.039
X64.545Y-49.033
X64.545Y-52.138
X64.545Y-53.138
X64.55Y-84.294
X64.551Y-88.297
X64.552Y-92.3
X64.559Y-136.334
X64.56Y-140.338
X64.75Y-39.559
X64.751Y-41.964
X65.076Y-27.993
X65.101Y-42.889
X65.45Y-39.559
X65.451Y-41.964
X65.576Y-25.993
X65.576Y-26.993
X65.576Y-28.993
X65.576Y-29.993
X65.576Y-30.993
X66.076Y-27.993
X66.55Y-82.294
X66.552Y-94.303
X66.554Y-102.309
X66.557Y-122.325
X66.558Y-126.328
X66.56Y-154.352
X66.561Y-142.341
X66.681Y-34.714
X66.681Y-36.714
X66.681Y-38.714
X66.681Y-40.714
X66.681Y-41.714
X66.681Y-42.714
X67.076Y-24.993
X67.076Y-25.993
X67.076Y-27.493
X67.076Y-28.493
X67.076Y-29.993
X67.076Y-30.993
X67.181Y-37.714
X67.181Y-39.714
X67.545Y-56.601
X67.545Y-57.601
X67.545Y-58.601
X67.545Y-59.601
X67.545Y-60.601
X67.545Y-61.601
X67.545Y-62.601
X67.545Y-63.601
X67.545Y-64.601
X67.545Y-65.601
X67.575Y-31.813
X67.576Y-24.174
X67.681Y-38.714
X67.693Y-84.514
X67.693Y-85.214
X67.693Y-85.914
X67.693Y-86.614
X67.693Y-87.314
X67.693Y-88.014
X67.693Y-88.714
X67.693Y-89.414
X67.693Y-90.114
X67.693Y-90.814
X67.693Y-91.514
X67.693Y-92.214
X67.693Y-92.914
X68.076Y-24.993
X68.076Y-25.993
X68.076Y-27.493
X68.076Y-28.493
X68.076Y-29.993
X68.076Y-30.993
X68.181Y-35.714
X68.181Y-37.714
X68.181Y-39.714
X68.181Y-41.714
X68.393Y-84.514
X68.393Y-92.914
X68.545Y-57.101
X68.545Y-58.101
X68.545Y-59.101
X68.545Y-60.101
X68.545Y-61.101
X68.545Y-62.101
X68.545Y-63.101
X68.545Y-64.101
X68.545Y-65.101
X68.55Y-76.291
X68.55Y-80.294
X68.555Y-104.313
X68.557Y-116.322
X68.557Y-120.325
X68.558Y-124.328
X68.56Y-136.338
X68.561Y-140.341
X68.567Y-24.174
X68.575Y-31.813
X68.681Y-34.714
X68.681Y-36.714
X68.681Y-38.714
X68.681Y-40.714
X68.681Y-42.714
X69.018Y-91.704
X69.076Y-24.993
X69.076Y-25.993
X69.076Y-27.493
X69.076Y-28.493
X69.076Y-29.993
X69.076Y-30.993
X69.093Y-84.514
X69.093Y-92.914
X69.181Y-35.714
X69.181Y-37.714
X69.181Y-39.714
X69.181Y-41.714
X69.545Y-56.601
X69.545Y-57.601
X69.545Y-58.601
X69.545Y-59.601
X69.545Y-60.601
X69.545Y-61.601
X69.545Y-62.601
X69.545Y-63.601
X69.545Y-64.601
X69.545Y-65.601
X69.681Y-34.714
X69.681Y-36.714
X69.681Y-38.714
X69.681Y-40.714
X69.681Y-42.714
X69.793Y-84.514
X69.793Y-92.914
X70.002Y-50.535
X70.002Y-51.435
X70.002Y-52.335
X70.076Y-27.993
X70.181Y-35.714
X70.181Y-37.714
X70.181Y-39.714
X70.181Y-41.714
X70.493Y-84.514
X70.493Y-92.914
X70.545Y-57.101
X70.545Y-58.101
X70.545Y-59.101
X70.545Y-60.101
X70.545Y-61.101
X70.545Y-62.101
X70.545Y-63.101
X70.545Y-64.101
X70.545Y-65.101
X70.551Y-82.295
X70.553Y-94.305
X70.553Y-98.308
X70.554Y-102.311
X70.558Y-122.327
X70.558Y-126.33
X70.56Y-154.355
X70.576Y-24.993
X70.576Y-25.993
X70.576Y-26.993
X70.576Y-28.993
X70.576Y-29.993
X70.576Y-30.993
X70.681Y-34.714
X70.681Y-36.714
X70.681Y-38.714
X70.681Y-40.714
X70.681Y-42.714
X70.995Y-47.836
X71.076Y-27.993
X71.181Y-35.714
X71.181Y-37.714
X71.181Y-39.714
X71.181Y-41.714
X71.193Y-84.514
X71.193Y-92.914
X71.545Y-56.601
X71.545Y-57.601
X71.545Y-58.601
X71.545Y-59.601
X71.545Y-60.601
X71.545Y-61.601
X71.545Y-62.601
X71.545Y-63.601
X71.545Y-64.601
X71.545Y-65.601
X71.681Y-34.714
X71.681Y-36.714
X71.681Y-38.714
X71.681Y-40.714
X71.681Y-42.714
X71.893Y-84.514
X71.893Y-85.214
X71.893Y-85.914
X71.893Y-87.314
X71.893Y-88.014
X71.893Y-88.714
X71.893Y-89.414
X71.893Y-90.114
X71.893Y-90.814
X71.893Y-91.514
X71.893Y-92.914
X72.181Y-35.714
X72.181Y-37.714
X72.181Y-39.714
X72.181Y-41.714
X72.545Y-57.101
X72.545Y-58.101
X72.545Y-59.101
X72.545Y-60.101
X72.545Y-61.101
X72.545Y-62.101
X72.545Y-63.101
X72.545Y-64.101
X72.545Y-65.101
X72.547Y-72.287
X72.55Y-76.292
X72.551Y-80.295
X72.554Y-100.311
X72.555Y-104.314
X72.556Y-112.32
X72.558Y-124.33
X72.593Y-85.914
X72.593Y-87.314
X72.681Y-34.714
X72.681Y-36.714
X72.681Y-38.714
X72.681Y-40.714
X72.681Y-42.714
X72.841Y-144.08
X73.025Y-91.034
X73.181Y-35.714
X73.181Y-37.714
X73.181Y-39.714
X73.181Y-41.714
X73.213Y-117.109
X73.218Y-120.297
X73.26Y-115.514
X73.263Y-118.704
X73.268Y-121.897
X73.293Y-85.914
X73.293Y-87.314
X73.545Y-56.601
X73.545Y-57.601
X73.545Y-58.601
X73.545Y-59.601
X73.545Y-60.601
X73.545Y-61.601
X73.545Y-62.601
X73.545Y-63.601
X73.545Y-64.601
X73.545Y-65.601
X73.681Y-38.714
X73.834Y-143.093
X74.181Y-37.714
X74.181Y-39.714
X74.545Y-57.101
X74.545Y-58.101
X74.545Y-59.101
X74.545Y-60.101
X74.545Y-61.101
X74.545Y-62.101
X74.545Y-63.101
X74.545Y-64.101
X74.545Y-65.101
X74.547Y-70.287
X74.55Y-74.291
X74.55Y-78.294
X74.551Y-82.297
X74.561Y-154.357
X74.681Y-34.714
X74.681Y-35.714
X74.681Y-36.714
X74.681Y-38.714
X74.681Y-40.714
X74.681Y-41.714
X74.681Y-42.714
X74.795Y-95.649
X74.826Y-142.106
X75.545Y-56.601
X75.545Y-57.601
X75.545Y-58.601
X75.545Y-59.601
X75.545Y-60.601
X75.545Y-61.601
X75.545Y-62.601
X75.545Y-63.601
X75.545Y-64.601
X75.545Y-65.601
X75.597Y-108.401
X75.597Y-109.996
X75.819Y-125.019
X75.819Y-126.289
X75.819Y-127.559
X75.819Y-128.829
X75.819Y-130.099
X75.819Y-131.369
X75.819Y-132.639
X75.819Y-133.909
X75.819Y-135.179
X75.819Y-136.449
X75.819Y-137.719
X75.819Y-138.989
X75.819Y-141.119
X76.095Y-119.199
X76.095Y-120.169
X76.27Y-80.759
X76.3Y-88.554
X76.3Y-87.554
X76.42Y-47.836
X76.545Y-57.101
X76.545Y-58.101
X76.545Y-59.101
X76.545Y-60.101
X76.545Y-61.101
X76.545Y-62.101
X76.545Y-63.101
X76.545Y-64.101
X76.545Y-65.101
X76.551Y-84.299
X76.561Y-140.342
X76.595Y-96.239
X76.61Y-95.374
X76.99Y-75.447
X76.99Y-77.947
X77.455Y-96.229
X77.46Y-97.074
X77.545Y-56.601
X77.545Y-57.601
X77.545Y-58.601
X77.545Y-59.601
X77.545Y-60.601
X77.545Y-61.601
X77.545Y-62.601
X77.545Y-63.601
X77.545Y-64.601
X77.545Y-65.601
X77.805Y-105.939
X77.82Y-80.759
X78.305Y-97.079
X78.552Y-86.3
X78.552Y-90.303
X78.554Y-98.309
X78.559Y-126.331
X78.559Y-130.334
X78.56Y-134.338
X78.561Y-138.341
X78.561Y-154.357
X78.561Y-142.344
X78.89Y-75.447
X79.583Y-41.758
X79.583Y-43.353
X79.645Y-35.342
X79.645Y-38.148
X80.545Y-49.032
X80.545Y-52.128
X80.545Y-53.128
X80.545Y-35.342
X80.545Y-74.889
X80.545Y-38.148
X80.551Y-84.297
X80.552Y-88.3
X80.553Y-92.303
X80.556Y-112.319
X80.557Y-116.322
X80.558Y-120.325
X80.561Y-140.341
X80.985Y-95.879
X81.364Y-113.065
X81.445Y-35.342
X81.445Y-38.148
X81.525Y-79.479
X81.695Y-76.689
X81.964Y-112.465
X82.275Y-80.089
X82.295Y-92.479
X82.535Y-95.879
X82.552Y-86.3
X82.552Y-90.303
X82.554Y-98.309
X82.558Y-126.331
X82.559Y-130.334
X82.56Y-134.337
X82.561Y-154.359
X82.561Y-142.344
X82.564Y-113.065
X82.633Y-41.758
X82.633Y-43.353
X82.785Y-106.519
X83.064Y-80.689
X83.15Y-77.947
X83.164Y-112.465
X83.295Y-92.479
X83.545Y-56.611
X83.545Y-57.611
X83.545Y-58.611
X83.545Y-59.611
X83.545Y-60.611
X83.545Y-61.611
X83.545Y-62.611
X83.545Y-63.611
X83.545Y-64.611
X83.545Y-65.611
X83.634Y-106.519
X83.634Y-107.367
X83.935Y-76.649
X84.075Y-95.879
X84.482Y-107.367
X84.545Y-57.111
X84.545Y-58.111
X84.545Y-59.111
X84.545Y-60.111
X84.545Y-61.111
X84.545Y-62.111
X84.545Y-63.111
X84.545Y-64.111
X84.545Y-65.111
X84.551Y-84.299
X84.552Y-88.302
X84.553Y-92.305
X84.561Y-140.342
X84.715Y-32.479
X84.945Y-38.559
X84.945Y-39.559
X84.991Y-109.984
X84.994Y-111.244
X85.015Y-118.249
X85.015Y-119.139
X85.015Y-119.999
X85.035Y-120.829
X85.269Y-126.289
X85.269Y-127.559
X85.269Y-128.829
X85.269Y-130.099
X85.269Y-131.369
X85.269Y-132.639
X85.269Y-133.909
X85.269Y-135.179
X85.269Y-136.449
X85.269Y-137.719
X85.269Y-138.989
X85.545Y-56.611
X85.545Y-57.611
X85.545Y-58.611
X85.545Y-59.611
X85.545Y-60.611
X85.545Y-61.611
X85.545Y-62.611
X85.545Y-63.611
X85.545Y-64.611
X85.545Y-65.611
X85.625Y-95.879
X85.994Y-110.619
X85.994Y-111.869
X86.005Y-50.558
X86.005Y-51.458
X86.005Y-52.358
X86.545Y-57.111
X86.545Y-58.111
X86.545Y-59.111
X86.545Y-60.111
X86.545Y-61.111
X86.545Y-62.111
X86.545Y-63.111
X86.545Y-64.111
X86.545Y-65.111
X86.547Y-70.287
X86.555Y-106.317
X86.561Y-154.357
X86.862Y-147.408
X86.99Y-47.836
X87.015Y-92.699
X87.018Y-108.401
X87.545Y-56.611
X87.545Y-57.611
X87.545Y-58.611
X87.545Y-59.611
X87.545Y-60.611
X87.545Y-61.611
X87.545Y-62.611
X87.545Y-63.611
X87.545Y-64.611
X87.545Y-65.611
X87.615Y-92.039
X87.812Y-123.481
X87.814Y-121.891
X87.855Y-146.42
X88.085Y-84.034
X88.085Y-85.584
X88.215Y-91.509
X88.545Y-57.111
X88.545Y-58.111
X88.545Y-59.111
X88.545Y-60.111
X88.545Y-61.111
X88.545Y-62.111
X88.545Y-63.111
X88.545Y-64.111
X88.545Y-65.111
X88.551Y-80.299
X88.553Y-88.305
X88.555Y-104.317
X88.556Y-108.32
X88.557Y-116.327
X88.559Y-124.333
X88.815Y-90.969
X88.848Y-145.433
X89.475Y-23.899
X89.535Y-30.214
X89.545Y-56.611
X89.545Y-57.611
X89.545Y-58.611
X89.545Y-59.611
X89.545Y-60.611
X89.545Y-61.611
X89.545Y-62.611
X89.545Y-63.611
X89.545Y-64.611
X89.545Y-65.611
X89.84Y-144.446
X90.035Y-38.559
X90.035Y-39.559
X90.035Y-40.809
X90.035Y-42.059
X90.035Y-43.059
X90.545Y-57.111
X90.545Y-58.111
X90.545Y-59.111
X90.545Y-60.111
X90.545Y-61.111
X90.545Y-62.111
X90.545Y-63.111
X90.545Y-64.111
X90.545Y-65.111
X90.551Y-74.295
X90.551Y-78.299
X90.552Y-82.302
X90.553Y-90.308
X90.558Y-118.33
X90.559Y-122.333
X90.56Y-126.336
X90.561Y-154.359
X91.035Y-38.559
X91.035Y-39.559
X91.035Y-40.809
X91.035Y-42.059
X91.035Y-43.059
X91.115Y-23.344
X91.545Y-56.611
X91.545Y-57.611
X91.545Y-58.611
X91.545Y-59.611
X91.545Y-60.611
X91.545Y-61.611
X91.545Y-62.611
X91.545Y-63.611
X91.545Y-64.611
X91.545Y-65.611
X92.035Y-38.559
X92.035Y-39.559
X92.035Y-40.809
X92.035Y-42.059
X92.035Y-43.059
X92.42Y-47.834
X92.545Y-57.111
X92.545Y-58.111
X92.545Y-59.111
X92.545Y-60.111
X92.545Y-61.111
X92.545Y-62.111
X92.545Y-63.111
X92.545Y-64.111
X92.545Y-65.111
X92.548Y-72.291
X92.551Y-76.297
X92.552Y-80.3
X92.554Y-92.309
X92.554Y-96.313
X92.555Y-100.316
X92.557Y-112.325
X92.558Y-144.359
X92.558Y-116.328
X92.56Y-128.337
X92.561Y-132.341
X92.561Y-136.344
X93.035Y-38.559
X93.035Y-39.559
X93.035Y-40.809
X93.035Y-42.059
X93.035Y-43.059
X93.545Y-56.611
X93.545Y-57.611
X93.545Y-58.611
X93.545Y-59.611
X93.545Y-60.611
X93.545Y-61.611
X93.545Y-62.611
X93.545Y-63.611
X93.545Y-64.611
X93.545Y-65.611
X94.035Y-38.559
X94.035Y-39.559
X94.035Y-40.809
X94.035Y-42.059
X94.035Y-43.059
X94.551Y-74.297
X94.552Y-78.3
X94.552Y-82.303
X94.554Y-90.309
X94.556Y-106.322
X94.557Y-110.325
X94.558Y-146.361
X94.558Y-118.331
X94.56Y-126.337
X94.562Y-154.362
X95.615Y-46.119
X95.615Y-47.119
X96.005Y-50.289
X96.03Y-51.884
X96.055Y-43.279
X96.185Y-38.529
X96.55Y-68.292
X96.563Y-144.353
X96.615Y-46.119
X96.615Y-47.119
X96.935Y-44.109
X97.853Y-64.51
X97.865Y-41.754
X97.865Y-43.304
X98.557Y-110.327
X98.559Y-118.333
X98.56Y-122.336
X98.56Y-126.339
X98.562Y-154.363
X98.564Y-146.355
X99.077Y-50.289
X99.135Y-38.029
X99.135Y-39.029
X100.549Y-72.296
X100.555Y-96.317
X100.556Y-100.32
X100.557Y-108.327
X100.558Y-112.33
X100.561Y-128.342
X100.562Y-132.345
X100.562Y-136.348
X100.563Y-140.351
X100.564Y-144.355
X100.565Y-152.361
X100.815Y-51.869
X100.815Y-52.869
X101.135Y-49.229
X101.455Y-58.009
X101.635Y-48.229
X101.635Y-50.229
X102.135Y-43.229
X102.135Y-47.229
X102.135Y-49.229
X102.549Y-70.296
X102.56Y-122.339
X102.561Y-126.342
X102.563Y-154.366
X102.564Y-146.358
X102.627Y-23.532
X102.627Y-24.802
X102.627Y-26.072
X102.627Y-27.342
X102.627Y-29.882
X102.635Y-42.229
X102.635Y-46.229
X102.635Y-48.229
X102.635Y-50.229
X103.135Y-41.229
X103.135Y-43.229
X103.135Y-47.229
X103.135Y-49.229
X103.425Y-54.589
X103.635Y-42.229
X103.635Y-44.229
X103.635Y-48.229
X104.135Y-41.229
X104.135Y-43.229
X104.135Y-45.229
X104.135Y-49.229
X104.549Y-72.298
X104.551Y-68.297
X104.557Y-100.323
X104.558Y-108.33
X104.559Y-112.333
X104.562Y-128.345
X104.562Y-132.348
X104.562Y-152.365
X104.563Y-136.351
X104.564Y-140.355
X104.564Y-144.358
X104.635Y-42.229
X104.635Y-44.229
X104.635Y-48.229
X105.135Y-41.229
X105.135Y-43.229
X105.135Y-45.229
X105.135Y-49.229
X105.635Y-42.229
X105.635Y-44.229
X105.635Y-46.229
X106.135Y-41.229
X106.135Y-43.229
X106.135Y-45.229
X106.135Y-47.229
X106.135Y-51.219
X106.135Y-52.219
X106.549Y-70.298
X106.561Y-122.341
X106.561Y-126.344
X106.563Y-154.368
X106.635Y-42.229
X106.635Y-44.229
X106.635Y-46.229
X107.135Y-41.229
X107.135Y-43.229
X107.135Y-45.229
X107.135Y-47.229
X107.135Y-49.229
X107.555Y-34.109
X107.615Y-62.739
X107.615Y-63.739
X107.615Y-64.739
X107.615Y-65.739
X107.615Y-66.739
X107.627Y-56.248
X107.627Y-57.248
X107.627Y-58.248
X107.627Y-60.248
X107.635Y-42.229
X107.635Y-44.229
X107.635Y-46.229
X107.635Y-48.229
X108.135Y-40.229
X108.135Y-41.229
X108.135Y-43.229
X108.135Y-45.229
X108.135Y-47.229
X108.135Y-49.229
X108.55Y-72.301
X108.552Y-68.3
X108.558Y-104.328
X108.558Y-108.331
X108.559Y-112.334
X108.56Y-116.337
X108.561Y-120.341
X108.561Y-124.344
X108.562Y-128.347
X108.564Y-140.356
X108.615Y-62.239
X108.615Y-63.239
X108.615Y-64.239
X108.615Y-65.239
X108.615Y-66.239
X108.627Y-55.748
X108.627Y-56.748
X108.627Y-57.748
X108.627Y-58.748
X108.627Y-59.748
X108.635Y-42.229
X108.635Y-44.229
X108.635Y-46.229
X108.635Y-48.229
X108.635Y-50.229
X109.135Y-40.229
X109.135Y-41.229
X109.135Y-43.229
X109.135Y-45.229
X109.135Y-47.229
X109.135Y-49.229
X109.615Y-62.739
X109.615Y-63.739
X109.615Y-64.739
X109.615Y-65.739
X109.615Y-66.739
X109.627Y-56.248
X109.627Y-57.248
X109.627Y-58.248
X109.627Y-60.248
X109.635Y-42.229
X109.635Y-44.229
X109.635Y-46.229
X109.635Y-48.229
X109.635Y-50.229
X109.915Y-30.979
X109.993Y-38.309
X110.135Y-40.229
X110.135Y-41.229
X110.135Y-43.229
X110.135Y-45.229
X110.135Y-47.229
X110.135Y-49.229
X110.55Y-70.301
X110.558Y-106.33
X110.559Y-110.333
X110.635Y-42.229
X110.635Y-48.229
X111.135Y-40.229
X111.135Y-41.229
X111.465Y-30.979
X111.505Y-32.559
X112.225Y-52.999
X112.55Y-72.302
X112.552Y-68.302
X112.553Y-76.306
X112.554Y-80.309
X112.775Y-50.548
X113.275Y-47.599
X113.355Y-60.328
X113.357Y-62.171
X113.357Y-63.721
X113.358Y-65.273
X113.358Y-55.677
X113.358Y-57.227
X113.775Y-50.548
X114.55Y-70.302
X114.553Y-74.306
X114.554Y-78.309
X114.554Y-82.313
X114.555Y-86.316
X114.556Y-90.319
X114.556Y-94.322
X114.557Y-98.325
X114.558Y-102.328
X114.558Y-106.331
X114.559Y-110.334
X114.56Y-114.337
X114.561Y-118.341
X114.561Y-122.344
X114.562Y-126.347
X114.563Y-130.35
X114.563Y-134.353
X114.564Y-138.356
X114.565Y-142.359
X114.565Y-146.362
T2
X63.655Y-72.489
X63.655Y-97.869
X63.655Y-112.489
X63.655Y-129.989
X67.375Y-77.741
X67.375Y-81.241
X67.375Y-103.741
X67.375Y-107.241
X67.375Y-117.741
X67.375Y-121.241
X67.375Y-135.241
X67.375Y-138.741
X67.513Y-70.741
X67.513Y-74.241
X67.513Y-96.741
X67.513Y-100.241
X67.513Y-110.741
X67.513Y-114.241
X67.513Y-128.241
X67.513Y-131.741
X70.438Y-70.741
X70.438Y-96.741
X70.438Y-110.741
X70.438Y-128.241
X70.575Y-77.741
X70.575Y-81.241
X70.575Y-103.741
X70.575Y-107.241
X70.575Y-117.741
X70.575Y-121.241
X70.575Y-135.241
X70.575Y-138.741
X90.52Y-77.116
X90.52Y-80.616
X90.52Y-94.616
X90.52Y-98.116
X90.52Y-113.616
X90.52Y-117.116
X90.52Y-131.116
X90.52Y-134.616
X90.658Y-87.616
X90.658Y-105.116
X90.658Y-124.116
X90.658Y-141.616
X93.583Y-84.116
X93.583Y-87.616
X93.583Y-101.616
X93.583Y-105.116
X93.583Y-120.616
X93.583Y-124.116
X93.583Y-138.116
X93.583Y-141.616
X93.72Y-77.116
X93.72Y-80.616
X93.72Y-94.616
X93.72Y-98.116
X93.72Y-113.616
X93.72Y-117.116
X93.72Y-131.116
X93.72Y-134.616
X97.455Y-71.789
X97.455Y-85.869
X97.455Y-103.359
X97.455Y-122.369
X97.455Y-139.859
T3
X47.145Y-24.804
X47.145Y-151.804
X47.848Y-23.107
X47.848Y-26.501
X47.848Y-150.107
X47.848Y-153.501
X49.545Y-22.404
X49.545Y-27.204
X49.545Y-149.404
X49.545Y-154.204
X51.242Y-23.107
X51.242Y-26.501
X51.242Y-150.107
X51.242Y-153.501
X51.945Y-24.804
X51.945Y-151.804
X78.145Y-101.804
X78.848Y-100.107
X78.848Y-103.501
X80.545Y-99.404
X80.545Y-104.204
X82.242Y-100.107
X82.242Y-103.501
X82.945Y-101.804
X109.145Y-24.804
X109.145Y-151.804
X109.848Y-23.107
X109.848Y-26.501
X109.848Y-150.107
X109.848Y-153.501
X111.545Y-22.404
X111.545Y-27.204
X111.545Y-149.404
X111.545Y-154.204
X113.242Y-23.107
X113.242Y-26.501
X113.242Y-150.107
X113.242Y-153.501
X113.945Y-24.804
X113.945Y-151.804
T4
X76.045Y-23.804
X79.045Y-23.804
X82.045Y-23.804
X85.045Y-23.804
T5
X76.735Y-70.737
X76.735Y-72.007
X78.005Y-70.737
X78.005Y-72.007
X79.275Y-70.737
X79.275Y-72.007
X80.545Y-70.737
X80.545Y-72.007
X81.815Y-70.737
X81.815Y-72.007
X83.085Y-70.737
X83.085Y-72.007
X84.355Y-70.737
X84.355Y-72.007
T6
X53.975Y-74.244
X53.975Y-77.744
X53.975Y-81.244
X53.975Y-84.744
X53.975Y-88.244
X53.975Y-91.744
X53.975Y-95.244
X53.975Y-98.744
X53.975Y-102.244
X53.975Y-105.744
X53.975Y-110.744
X53.975Y-114.244
X53.975Y-117.744
X53.975Y-121.244
X53.975Y-124.744
X53.975Y-128.244
X53.975Y-131.744
X53.975Y-135.244
X53.975Y-138.744
X53.975Y-142.244
X58.975Y-74.244
X58.975Y-77.744
X58.975Y-81.244
X58.975Y-84.744
X58.975Y-88.244
X58.975Y-91.744
X58.975Y-95.244
X58.975Y-98.744
X58.975Y-102.244
X58.975Y-105.744
X58.975Y-110.744
X58.975Y-114.244
X58.975Y-117.744
X58.975Y-121.244
X58.975Y-124.744
X58.975Y-128.244
X58.975Y-131.744
X58.975Y-135.244
X58.975Y-138.744
X58.975Y-142.244
X102.115Y-73.614
X102.115Y-77.114
X102.115Y-80.614
X102.115Y-84.114
X102.115Y-87.614
X102.115Y-91.114
X102.115Y-94.614
X102.115Y-98.114
X102.115Y-101.614
X102.115Y-105.114
X102.115Y-110.114
X102.115Y-113.614
X102.115Y-117.114
X102.115Y-120.614
X102.115Y-124.114
X102.115Y-127.614
X102.115Y-131.114
X102.115Y-134.614
X102.115Y-138.114
X102.115Y-141.614
X107.115Y-73.614
X107.115Y-77.114
X107.115Y-80.614
X107.115Y-84.114
X107.115Y-87.614
X107.115Y-91.114
X107.115Y-94.614
X107.115Y-98.114
X107.115Y-101.614
X107.115Y-105.114
X107.115Y-110.114
X107.115Y-113.614
X107.115Y-117.114
X107.115Y-120.614
X107.115Y-124.114
X107.115Y-127.614
X107.115Y-131.114
X107.115Y-134.614
X107.115Y-138.114
X107.115Y-141.614
T7
X49.545Y-24.804
X49.545Y-151.804
X80.545Y-101.804
X111.545Y-24.804
X111.545Y-151.804
M30
